<svg xmlns="http://www.w3.org/2000/svg" width="1145" height="269" viewBox="0 0 1145 269">
  <g fill="none" fill-rule="evenodd" transform="translate(.5)">
    <g fill="#FFF" transform="translate(608 160.5)">
      <text font-family="Inter-Regular_Bold, Inter" font-size="20" font-weight="bold">
        <tspan x="51.065" y="19">Elastic Synths</tspan>
      </text>
      <text fill-opacity=".905" font-family="Inter-Light, Inter" font-size="19" font-weight="300">
        <tspan x="16.331" y="57">Engineered to track the </tspan> <tspan x="35.196" y="80">patterns of a single </tspan> <tspan x="44.831" y="103">underlying asset.</tspan>
      </text>
    </g>
    <g fill="#FFF" transform="translate(303.333 160.5)">
      <text font-family="Inter-Regular_Bold, Inter" font-size="20" font-weight="bold">
        <tspan x="46.75" y="19">Elastic Indexes</tspan>
      </text>
      <text fill-opacity=".905" font-family="Inter-Light, Inter" font-size="19" font-weight="300">
        <tspan x="16.331" y="57">Engineered to track the </tspan> <tspan x="23.688" y="80">patterns of a group of </tspan> <tspan x="39.959" y="103">underlying assets.</tspan>
      </text>
    </g>
    <g fill="#FFF" transform="translate(0 160.5)">
      <text font-family="Inter-Regular_Bold, Inter" font-size="20" font-weight="bold">
        <tspan x="62.492" y="19">Stable Pegs</tspan>
      </text>
      <text fill-opacity=".905" font-family="Inter-Light, Inter" font-size="19" font-weight="300">
        <tspan x="21.155" y="57">Engineered to target a </tspan> <tspan x="66.108" y="80">stable price.</tspan>
      </text>
    </g>
    <g fill="#FFF" transform="translate(917 160.5)">
      <text font-family="Inter-Regular_Bold, Inter" font-size="20" font-weight="bold">
        <tspan x="50.318" y="19">Growth Pegs</tspan>
      </text>
      <text fill-opacity=".905" font-family="Inter-Light, Inter" font-size="19" font-weight="300">
        <tspan x="8.649" y="57">Engineered to target an </tspan> <tspan x="40.725" y="80">increasing price.</tspan>
      </text>
    </g>
    <g stroke="#FF0079" stroke-dasharray="7" stroke-linecap="square" transform="translate(120.5 30.453)">
      <path d="M449,-4.26325641e-14 L449,54.046875 L0,53.0234375 L0,91.5239258"/>
      <line x1="303.5" x2="303.5" y1="54.652" y2="91.524"/>
      <line x1="606.667" x2="606.667" y1="54.652" y2="91.524"/>
      <path d="M449,54.046875 L910,54.046875 L910,91.6237793"/>
    </g>
    <path fill="#FF0079" fill-rule="nonzero" d="M455.571429 26.4427793C457.380952 26.4427793 459.083333 26.0975412 460.678571 25.407065 462.27381 24.7165888 463.666667 23.7880174 464.857143 22.6213507 466.047619 21.4546841 466.988095 20.0856364 467.678571 18.5142079 468.369048 16.9427793 468.714286 15.2523031 468.714286 13.4427793 468.714286 11.6808745 468.369048 10.0023031 467.678571 8.40706501 466.988095 6.81182691 466.047619 5.43087453 464.857143 4.26420786 463.666667 3.0975412 462.27381 2.16896977 460.678571 1.47849358 459.083333.788017387 457.380952.442779292 455.571429.442779292 453.761905.442779292 452.059524.788017387 450.464286 1.47849358 448.869048 2.16896977 447.488095 3.0975412 446.321429 4.26420786 445.154762 5.43087453 444.22619 6.81182691 443.535714 8.40706501 442.845238 10.0023031 442.5 11.6808745 442.5 13.4427793 442.5 15.2523031 442.845238 16.9427793 443.535714 18.5142079 444.22619 20.0856364 445.154762 21.4546841 446.321429 22.6213507 447.488095 23.7880174 448.869048 24.7165888 450.464286 25.407065 452.059524 26.0975412 453.761905 26.4427793 455.571429 26.4427793zM6.98092643 137.942779C7.94732062 137.942779 8.8564941 137.758401 9.70844687 137.389646 10.5603996 137.02089 11.3042688 136.524977 11.9400545 135.901907 12.5758401 135.278837 13.0781108 134.547684 13.4468665 133.708447 13.8156222 132.86921 14 131.966394 14 131 14 130.059037 13.8156222 129.162579 13.4468665 128.310627 13.0781108 127.458674 12.5758401 126.721163 11.9400545 126.098093 11.3042688 125.475023 10.5603996 124.97911 9.70844687 124.610354 8.8564941 124.241599 7.94732062 124.057221 6.98092643 124.057221 6.01453224 124.057221 5.10535876 124.241599 4.25340599 124.610354 3.40145322 124.97911 2.66394187 125.475023 2.04087193 126.098093 1.417802 126.721163.921889192 127.458674.553133515 128.310627.184377838 129.162579 0 130.059037 0 131 0 131.966394.184377838 132.86921.553133515 133.708447.921889192 134.547684 1.417802 135.278837 2.04087193 135.901907 2.66394187 136.524977 3.40145322 137.02089 4.25340599 137.389646 5.10535876 137.758401 6.01453224 137.942779 6.98092643 137.942779zM310.480926 137.942779C311.447321 137.942779 312.356494 137.758401 313.208447 137.389646 314.0604 137.02089 314.804269 136.524977 315.440054 135.901907 316.07584 135.278837 316.578111 134.547684 316.946866 133.708447 317.315622 132.86921 317.5 131.966394 317.5 131 317.5 130.059037 317.315622 129.162579 316.946866 128.310627 316.578111 127.458674 316.07584 126.721163 315.440054 126.098093 314.804269 125.475023 314.0604 124.97911 313.208447 124.610354 312.356494 124.241599 311.447321 124.057221 310.480926 124.057221 309.514532 124.057221 308.605359 124.241599 307.753406 124.610354 306.901453 124.97911 306.163942 125.475023 305.540872 126.098093 304.917802 126.721163 304.421889 127.458674 304.053134 128.310627 303.684378 129.162579 303.5 130.059037 303.5 131 303.5 131.966394 303.684378 132.86921 304.053134 133.708447 304.421889 134.547684 304.917802 135.278837 305.540872 135.901907 306.163942 136.524977 306.901453 137.02089 307.753406 137.389646 308.605359 137.758401 309.514532 137.942779 310.480926 137.942779zM613.980926 137.942779C614.947321 137.942779 615.856494 137.758401 616.708447 137.389646 617.5604 137.02089 618.304269 136.524977 618.940054 135.901907 619.57584 135.278837 620.078111 134.547684 620.446866 133.708447 620.815622 132.86921 621 131.966394 621 131 621 130.059037 620.815622 129.162579 620.446866 128.310627 620.078111 127.458674 619.57584 126.721163 618.940054 126.098093 618.304269 125.475023 617.5604 124.97911 616.708447 124.610354 615.856494 124.241599 614.947321 124.057221 613.980926 124.057221 613.014532 124.057221 612.105359 124.241599 611.253406 124.610354 610.401453 124.97911 609.663942 125.475023 609.040872 126.098093 608.417802 126.721163 607.921889 127.458674 607.553134 128.310627 607.184378 129.162579 607 130.059037 607 131 607 131.966394 607.184378 132.86921 607.553134 133.708447 607.921889 134.547684 608.417802 135.278837 609.040872 135.901907 609.663942 136.524977 610.401453 137.02089 611.253406 137.389646 612.105359 137.758401 613.014532 137.942779 613.980926 137.942779zM916.480926 137.942779C917.447321 137.942779 918.356494 137.758401 919.208447 137.389646 920.0604 137.02089 920.804269 136.524977 921.440054 135.901907 922.07584 135.278837 922.578111 134.547684 922.946866 133.708447 923.315622 132.86921 923.5 131.966394 923.5 131 923.5 130.059037 923.315622 129.162579 922.946866 128.310627 922.578111 127.458674 922.07584 126.721163 921.440054 126.098093 920.804269 125.475023 920.0604 124.97911 919.208447 124.610354 918.356494 124.241599 917.447321 124.057221 916.480926 124.057221 915.514532 124.057221 914.605359 124.241599 913.753406 124.610354 912.901453 124.97911 912.163942 125.475023 911.540872 126.098093 910.917802 126.721163 910.421889 127.458674 910.053134 128.310627 909.684378 129.162579 909.5 130.059037 909.5 131 909.5 131.966394 909.684378 132.86921 910.053134 133.708447 910.421889 134.547684 910.917802 135.278837 911.540872 135.901907 912.163942 136.524977 912.901453 137.02089 913.753406 137.389646 914.605359 137.758401 915.514532 137.942779 916.480926 137.942779z" transform="translate(113.5)"/>
  </g>
</svg>
