<svg xmlns="http://www.w3.org/2000/svg" width="72" height="80" viewBox="0 0 72 80">
  <path fill="#73328D" d="M158.27509,803.671735 C149.067221,803.711734 139.859352,803.695734 130.651483,803.695734 L130.651483,803.687734 L103.027876,803.687734 C102.075889,803.687734 101.179902,803.559736 101.419899,805.079714 C102.779879,813.695592 104.075861,822.319469 105.403842,830.935347 C106.707824,839.447226 108.219802,847.927105 109.251787,856.462984 C109.78778,860.92692 113.563726,865.078861 118.691653,864.998862 C126.62754,864.870864 134.555428,864.990863 142.491315,864.958863 C147.827239,864.934863 151.25119,861.878907 152.035179,856.590982 C153.619157,845.967133 155.211134,835.343284 156.819111,824.719435 C157.795097,818.263527 158.755084,811.807619 159.819068,805.36771 C160.051065,803.911731 159.595072,803.671735 158.27509,803.671735 Z M132.899451,815.623565 C132.843452,828.495382 132.891451,841.367198 132.883451,854.239015 L128.475514,854.239015 C128.467514,847.831107 128.467514,841.415198 128.467514,835.007289 L128.483514,835.007289 C128.483514,828.415383 128.523513,821.823476 128.451514,815.23157 C128.451514,815.031573 128.459514,814.863575 128.475514,814.703578 L132.843452,814.703578 C132.883451,814.967574 132.899451,815.279569 132.899451,815.623565 Z M109.78778,814.703578 L114.187717,814.703578 C114.291716,815.007573 114.355715,815.367568 114.411714,815.791562 C115.539698,824.895433 116.843679,833.975304 118.107662,843.063174 C118.627654,846.791121 119.211646,850.503069 119.667639,854.239015 L115.211703,854.239015 C114.01172,845.615138 112.803737,836.999261 111.611754,828.375383 C110.987763,823.871447 110.411771,819.359511 109.80378,814.847576 L109.78778,814.703578 Z M149.291218,830.71935 C148.203234,838.559238 147.01925,846.383127 146.075264,854.239015 L141.627327,854.239015 C143.443301,841.311199 145.171277,828.375383 146.939252,815.447567 C146.971251,815.22357 146.971251,814.959574 146.995251,814.703578 L151.547186,814.703578 C151.499187,815.023573 151.403188,815.367568 151.363189,815.647564 C150.691198,820.679493 149.995208,825.703421 149.291218,830.71935 Z M166.00298,797.62382 C165.138993,795.56785 163.723013,793.879874 162.147035,792.335896 C160.42706,790.65592 158.483087,789.695933 155.955123,789.759932 C151.091193,789.879931 146.227262,789.759932 141.363331,789.799932 C140.307346,789.807932 139.731354,789.655934 139.403359,788.471951 C138.723368,786.023985 137.18739,785.016 134.659426,785.008 C131.939465,785 129.219504,784.992 126.499542,785.016 C124.115576,785.032 122.547598,786.143984 121.891608,788.439951 C121.579612,789.527936 121.091619,789.847931 119.963635,789.831931 C115.099704,789.751932 110.235773,789.751932 105.379842,789.799932 C101.099903,789.839931 96.0359754,794.063871 95.0839889,798.239812 C94.795993,799.527793 95.2439866,800.271783 96.4999688,800.50378 C97.1239599,800.615778 97.7639508,800.623778 98.3959418,800.623778 C109.107789,800.631778 119.819637,800.631778 130.523485,800.623778 L145.107278,800.623778 L159.867068,800.631778 C161.315047,800.631778 162.771026,800.671777 164.203006,800.559779 C166.170978,800.407781 166.75497,799.407795 166.00298,797.62382 Z" transform="translate(-95 -785)"/>
</svg>
