<svg xmlns="http://www.w3.org/2000/svg" width="51" height="51" viewBox="0 0 51 51">
  <g fill="none" transform="translate(0 .739)">
    <path fill="#FF0079" d="M25.1373626,50 C28.6172161,50 31.8910256,49.3360806 34.9587912,48.0082418 C38.0265568,46.6804029 40.7051282,44.8946886 42.9945055,42.6510989 C45.2838828,40.4075092 47.0924908,37.7747253 48.4203297,34.7527473 C49.7481685,31.7307692 50.4120879,28.4798535 50.4120879,25 C50.4120879,21.6117216 49.7481685,18.3836996 48.4203297,15.3159341 C47.0924908,12.2481685 45.2838828,9.59249084 42.9945055,7.3489011 C40.7051282,5.10531136 38.0265568,3.31959707 34.9587912,1.99175824 C31.8910256,0.663919414 28.6172161,0 25.1373626,0 C21.6575092,0 18.3836996,0.663919414 15.3159341,1.99175824 C12.2481685,3.31959707 9.59249084,5.10531136 7.3489011,7.3489011 C5.10531136,9.59249084 3.31959707,12.2481685 1.99175824,15.3159341 C0.663919414,18.3836996 6.4659389e-13,21.6117216 6.4659389e-13,25 C6.4659389e-13,28.4798535 0.663919414,31.7307692 1.99175824,34.7527473 C3.31959707,37.7747253 5.10531136,40.4075092 7.3489011,42.6510989 C9.59249084,44.8946886 12.2481685,46.6804029 15.3159341,48.0082418 C18.3836996,49.3360806 21.6575092,50 25.1373626,50 Z"/>
    <path fill="#0C0A1D" d="M17.5302627,35.5029297 C18.3994033,35.5029297 19.2172744,35.3369141 19.983876,35.0048828 C20.7504775,34.6728516 21.4194229,34.2211914 21.9907119,33.6499023 C22.562001,33.0786133 23.0112197,32.4121094 23.3383682,31.6503906 C23.6655166,30.8886719 23.8290908,30.0732422 23.8290908,29.2041016 C23.8290908,28.3349609 23.6655166,27.5170898 23.3383682,26.7504883 C23.0112197,25.9838867 22.562001,25.3149414 21.9907119,24.7436523 C21.4194229,24.1723633 20.7504775,23.7231445 19.983876,23.3959961 C19.2172744,23.0688477 18.3994033,22.9052734 17.5302627,22.9052734 L17.5302627,22.9052734 L13.3261611,22.9052734 C13.0331924,22.9052734 12.7597549,22.8515625 12.5058486,22.7441406 C12.2519424,22.6367188 12.0297744,22.487793 11.8393447,22.2973633 C11.648915,22.1069336 11.4999893,21.8823242 11.3925674,21.6235352 C11.2851455,21.3647461 11.2314346,21.0888672 11.2314346,20.7958984 C11.2314346,20.5029297 11.2851455,20.2294922 11.3925674,19.9755859 C11.4999893,19.7216797 11.648915,19.4995117 11.8393447,19.309082 C12.0297744,19.1186523 12.2519424,18.9697266 12.5058486,18.8623047 C12.7597549,18.7548828 13.0331924,18.7011719 13.3261611,18.7011719 L13.3261611,18.7011719 L22.964833,18.7011719 L22.964833,14.4970703 L13.3261611,14.4970703 C12.4570205,14.4970703 11.6415908,14.6630859 10.8798721,14.9951172 C10.1181533,15.3271484 9.45164942,15.7788086 8.88036036,16.3500977 C8.3090713,16.9213867 7.85741114,17.5878906 7.52537989,18.3496094 C7.19334864,19.1113281 7.02733302,19.9267578 7.02733302,20.7958984 C7.02733302,21.6650391 7.19334864,22.4829102 7.52537989,23.2495117 C7.85741114,24.0161133 8.3090713,24.6850586 8.88036036,25.2563477 C9.45164942,25.8276367 10.1181533,26.2792969 10.8798721,26.6113281 C11.6415908,26.9433594 12.4570205,27.109375 13.3261611,27.109375 L13.3261611,27.109375 L17.5302627,27.109375 C17.8232315,27.109375 18.096669,27.1630859 18.3505752,27.2705078 C18.6044815,27.3779297 18.8266494,27.5268555 19.0170791,27.7172852 C19.2075088,27.9077148 19.3564346,28.1298828 19.4638565,28.3837891 C19.5712783,28.6376953 19.6249893,28.9111328 19.6249893,29.2041016 C19.6249893,29.4970703 19.5712783,29.7705078 19.4638565,30.0244141 C19.3564346,30.2783203 19.2075088,30.5004883 19.0170791,30.690918 C18.8266494,30.8813477 18.6044815,31.0302734 18.3505752,31.1376953 C18.096669,31.2451172 17.8232315,31.2988281 17.5302627,31.2988281 L17.5302627,31.2988281 L8.19920802,31.2988281 L8.19920802,35.5029297 L17.5302627,35.5029297 Z M30.7870986,35.5029297 L30.7870986,31.2988281 L34.9912002,31.2988281 C36.143544,31.2988281 37.2299697,31.0791016 38.2504775,30.6396484 C39.2709854,30.2001953 40.1620986,29.5996094 40.9238174,28.8378906 C41.6855361,28.0761719 42.2861221,27.1850586 42.7255752,26.1645508 C43.1650283,25.144043 43.3847549,24.0576172 43.3847549,22.9052734 C43.3847549,22.1337891 43.2846572,21.3916016 43.0844619,20.6787109 C42.8842666,19.9658203 42.6010635,19.296875 42.2348525,18.671875 C41.8686416,18.046875 41.4291885,17.4780273 40.9164932,16.965332 C40.4037979,16.4526367 39.8373916,16.0131836 39.2172744,15.6469727 C38.5971572,15.2807617 37.9306533,14.9975586 37.2177627,14.7973633 C36.5048721,14.597168 35.7626846,14.4970703 34.9912002,14.4970703 L34.9912002,14.4970703 L26.5829971,14.4970703 L26.5829971,35.5029297 L30.7870986,35.5029297 Z M34.9912002,27.109375 L30.7870986,27.109375 L30.7870986,18.7011719 L34.9912002,18.7011719 C35.5673721,18.7011719 36.1093643,18.8110352 36.6171768,19.0307617 C37.1249893,19.2504883 37.5693252,19.5507812 37.9501846,19.9316406 C38.331044,20.3125 38.6313369,20.7592773 38.8510635,21.2719727 C39.07079,21.784668 39.1806533,22.3291016 39.1806533,22.9052734 C39.1806533,23.4814453 39.07079,24.0258789 38.8510635,24.5385742 C38.6313369,25.0512695 38.331044,25.4980469 37.9501846,25.8789062 C37.5693252,26.2597656 37.1249893,26.5600586 36.6171768,26.7797852 C36.1093643,26.9995117 35.5673721,27.109375 34.9912002,27.109375 L34.9912002,27.109375 Z"/>
  </g>
</svg>
