<svg xmlns="http://www.w3.org/2000/svg" width="41" height="40" viewBox="0 0 41 40">
  <path d="M34.5200835,0.439276946 C30.2258633,4.80684561 25.9249751,9.18775035 21.5707425,13.6153314 C20.9972907,14.1954512 20.0771007,14.2021193 19.5036489,13.6153314 C15.1694205,9.21442253 10.8551962,4.82684974 6.53430381,0.439276946 C5.96085205,-0.14084286 5.04066201,-0.134174817 4.47387829,0.44594499 C3.42699542,1.52616808 2.40011668,2.59972312 1.33322968,3.69995034 C0.766445963,4.28673819 0.779782051,5.23360041 1.34656577,5.81372021 C5.55410138,10.0946043 9.87499373,14.4888451 14.2558985,18.9497664 C14.8293502,19.5298862 14.8226822,20.4700804 14.2558985,21.0568682 C9.90833395,25.4844493 5.57410551,29.8920262 1.27321729,34.2662629 C0.706433569,34.8463827 0.706433569,35.7865769 1.28655338,36.3600287 L4.47387829,39.5540216 C5.04733005,40.1274734 5.98085618,40.1274734 6.5476399,39.5473536 L19.4969809,26.3913032 C20.0704326,25.8111834 20.9906227,25.8111834 21.5640744,26.3913032 C25.8782987,30.778876 30.179187,35.1531127 34.5134154,39.5606897 C35.0868672,40.1408095 36.0137253,40.1474775 36.580509,39.5673577 C37.647396,38.4871346 38.6942788,37.4202476 39.7544978,36.3466926 C40.3279496,35.7665728 40.3279496,34.8197105 39.7611658,34.2395907 C35.5069539,29.9053623 31.1927296,25.5111215 26.8118249,21.0502002 C26.2383731,20.4700804 26.2383731,19.5232182 26.8118249,18.9430984 C31.1593894,14.5155173 35.4869498,10.1079404 39.78117,5.72703564 C40.3546217,5.14691584 40.3479537,4.20672167 39.7745019,3.62660186 L36.587177,0.419272815 C36.0203933,-0.147510904 35.0935352,-0.14084286 34.5200835,0.439276946 Z"/>
</svg>
