<svg xmlns="http://www.w3.org/2000/svg" width="60" height="67" viewBox="0 0 60 67">
  <path d="M50.2910448,26.9253731 L46.5149254,26.9253731 L46.5149254,19.4029851 C47.9253731,18.0746269 48.7835821,16.1268657 48.6492537,13.9925373 C48.4328358,10.5895522 45.6791045,7.81343284 42.2686567,7.59701493 C42.119403,7.58955224 41.9552239,7.57462687 41.8059701,7.57462687 C41.1268657,7.57462687 40.4850746,7.67164179 39.8656716,7.85074627 C39.738806,7.8880597 39.619403,7.91044776 39.5,7.91044776 C39.0223881,7.91044776 38.5746269,7.64925373 38.3283582,7.20895522 C37,4.81343284 34.4253731,3.18656716 31.4850746,3.18656716 C29.8880597,3.18656716 28.4029851,3.6641791 27.1641791,4.49253731 C26.9477612,4.63432836 26.6940299,4.70895522 26.4552239,4.70895522 C26.0447761,4.70895522 25.6492537,4.51492537 25.3880597,4.14925373 C23.6940299,1.67164179 20.7910448,0.052238806 17.5746269,0.052238806 C12.380597,0.052238806 8.11940299,4.25373134 8.11940299,9.43283582 L8.11940299,9.47761194 C8.35074627,9.97014925 7.85820896,10.3208955 7.36567164,10.3208955 C7.26865672,10.3208955 7.18656716,10.3134328 7.08955224,10.2985075 C6.59701493,10.141791 6.08208955,10.0671642 5.55223881,10.0671642 C5.40298507,10.0671642 5.26119403,10.0671642 5.1119403,10.0746269 C2.82089552,10.261194 0.858208955,11.7910448 0.231343284,14.0074627 C-0.708955224,17.3134328 1.3358209,20.3507463 4.2761194,21.0522388 L4.2761194,54.9477612 C4.2761194,60.6940299 8.93283582,65.358209 14.6716418,65.358209 L36.119403,65.358209 C41.3358209,65.358209 45.641791,61.5149254 46.380597,56.5074627 C53.9552239,56.1044776 59.9850842,49.8358209 59.9850842,42.1641791 L59.9850842,36.6567164 C59.9925373,31.2835821 55.6492537,26.9253731 50.2910448,26.9253731 Z M16.1492537,51.5149254 C16.1492537,51.9477612 15.6343284,52.2835821 14.9925373,52.2835821 C14.3507463,52.2835821 13.8358209,51.9477612 13.8358209,51.5149254 L13.8358209,36.1044776 C13.8358209,35.6791045 14.3507463,35.3358209 14.9925373,35.3358209 C15.6343284,35.3358209 16.1492537,35.6791045 16.1492537,36.1044776 L16.1492537,51.5149254 Z M23.0746269,51.5149254 C23.0746269,51.9477612 22.5597015,52.2835821 21.9179104,52.2835821 C21.2761194,52.2835821 20.761194,51.9477612 20.761194,51.5149254 L20.761194,36.1044776 C20.761194,35.6791045 21.2761194,35.3358209 21.9179104,35.3358209 C22.5597015,35.3358209 23.0746269,35.6791045 23.0746269,36.1044776 L23.0746269,51.5149254 Z M30.0074627,51.5149254 C30.0074627,51.9477612 29.4925373,52.2835821 28.8507463,52.2835821 C28.2089552,52.2835821 27.6940299,51.9477612 27.6940299,51.5149254 L27.6940299,36.1044776 C27.6940299,35.6791045 28.2089552,35.3358209 28.8507463,35.3358209 C29.4925373,35.3358209 30.0074627,35.6791045 30.0074627,36.1044776 L30.0074627,51.5149254 Z M36.9328358,51.5149254 C36.9328358,51.9477612 36.4179104,52.2835821 35.7761194,52.2835821 C35.1343284,52.2835821 34.619403,51.9477612 34.619403,51.5149254 L34.619403,36.1044776 C34.619403,35.6791045 35.1343284,35.3358209 35.7761194,35.3358209 C36.4179104,35.3358209 36.9328358,35.6791045 36.9328358,36.1044776 L36.9328358,51.5149254 Z M45.2835821,17.7014925 C44.3731343,18.6641791 43.141791,19.2014925 41.8134328,19.2014925 L40.2313433,19.2014925 L22.1567164,19.1268657 C21.6119403,19.1268657 21.0895522,19.358209 20.6865672,19.7313433 C20.2985075,20.119403 20.0820896,20.6492537 20.0820896,21.2014925 L20.0820896,25.2686567 C20.0820896,26.0671642 19.4328358,26.7238806 18.6268657,26.7238806 L17.9850746,26.7238806 C17.1865672,26.7238806 16.5298507,26.0671642 16.5298507,25.2686567 L16.5298507,21.1791045 C16.5298507,20.0447761 15.6119403,19.1119403 14.4626866,19.1044776 L5.08955224,19.0820896 C4.1119403,18.9402985 3.23134328,18.3955224 2.6641791,17.5597015 C2.08208955,16.6865672 1.93283582,15.619403 2.23134328,14.5597015 C2.61940299,13.1940299 3.81343284,12.2462687 5.28358209,12.1343284 C5.38059701,12.1268657 5.46268657,12.1268657 5.55970149,12.1268657 C5.88059701,12.1268657 6.20149254,12.1716418 6.52238806,12.2686567 C6.79850746,12.3507463 7.08208955,12.3955224 7.38059701,12.3955224 C8.40298507,12.3955224 9.36567164,11.8880597 9.88059701,11.0746269 C10.238806,10.5074627 10.3507463,9.84328358 10.2164179,9.18656716 C10.3432836,5.26119403 13.5970149,2.1119403 17.5820896,2.1119403 C20.0447761,2.1119403 22.3208955,3.29104478 23.6791045,5.29850746 C24.3059701,6.20895522 25.3432836,6.76865672 26.4552239,6.76865672 C27.119403,6.76865672 27.7761194,6.57462687 28.3208955,6.19402985 C29.261194,5.57462687 30.3656716,5.24626866 31.5,5.24626866 C33.5746269,5.24626866 35.5,6.37313433 36.5223881,8.19402985 C37.1268657,9.29850746 38.2686567,9.97014925 39.5223881,9.97014925 C39.8432836,9.97014925 40.1641791,9.92537313 40.4701493,9.84328358 C40.9029851,9.71641791 41.3656716,9.64925373 41.8134328,9.64925373 C41.9253731,9.64925373 42.0298507,9.64925373 42.1492537,9.65671642 C44.4850746,9.82089552 46.4328358,11.7761194 46.5746269,14.119403 C46.6567164,15.4626866 46.2014925,16.7313433 45.2835821,17.7014925 Z M57.9179104,42.141791 C57.9179104,48.619403 52.880597,53.9552239 46.5149254,54.4179104 L46.5149254,29 L50.2985075,29 C54.5,29 57.9253731,32.4253731 57.9253731,36.6343284 L57.9179104,42.141791 Z" transform="translate(0 .819)"/>
</svg>
