<svg xmlns="http://www.w3.org/2000/svg" width="80" height="81" viewBox="0 0 80 81">
  <path fill="#73328D" d="M842.034708,70.2958841 C841.403822,69.6649975 840.489494,69.4181289 839.630025,69.6375677 L826.097965,73.0754424 C825.659087,73.1851618 825.256783,73.4137439 824.936768,73.7337589 L784.733749,113.927635 C783.755417,114.915109 783.755417,116.506041 784.733749,117.493515 L815.126024,147.885791 C815.647191,148.406958 816.378654,149.156707 816.881535,149.367003 C817.183263,149.495009 817.512421,149.559012 817.841579,149.559012 C818.509039,149.559012 819.149069,149.293857 819.62452,148.818406 L859.827539,108.615387 C860.147554,108.295372 860.376136,107.893067 860.485855,107.45419 L863.914587,93.9221296 C864.134026,93.0626609 863.887157,92.1483325 863.25627,91.517446 L842.034708,70.2958841 Z M804.574675,119.477608 C803.934645,119.477608 803.285471,119.230739 802.791734,118.737002 C801.804259,117.758671 801.804259,116.158596 802.791734,115.180265 L820.602851,97.3691476 C821.590326,96.381673 823.181257,96.381673 824.168732,97.3691476 C825.156206,98.347479 825.156206,99.9475537 824.168732,100.925885 L806.357615,118.737002 C805.863878,119.230739 805.223848,119.477608 804.574675,119.477608 Z M810.590955,125.484745 C809.950925,125.484745 809.301752,125.237877 808.808015,124.74414 C807.82054,123.765808 807.82054,122.165733 808.808015,121.187402 L826.619132,103.376285 C827.597463,102.397954 829.197538,102.397954 830.185013,103.376285 C831.163344,104.36376 831.163344,105.954691 830.185013,106.942166 L812.364752,124.74414 C811.880158,125.237877 811.230985,125.484745 810.590955,125.484745 Z M836.19215,112.94016 L818.37189,130.76042 C817.878153,131.254158 817.238123,131.501026 816.588949,131.501026 C815.94892,131.501026 815.299746,131.254158 814.806009,130.76042 C813.818534,129.772946 813.818534,128.182014 814.806009,127.19454 L832.617126,109.383423 C833.595457,108.405091 835.195532,108.405091 836.183007,109.383423 C837.170481,110.361754 837.170481,111.961829 836.19215,112.94016 Z M847.209807,98.0640372 C845.646306,99.6275387 843.561637,100.496151 841.348962,100.496151 C839.127144,100.496151 837.051619,99.636682 835.478974,98.0640372 C832.251395,94.8273147 832.251395,89.5699265 835.478974,86.333204 C837.051619,84.7697025 839.127144,83.9102338 841.348962,83.9102338 C843.561637,83.9102338 845.646306,84.7697025 847.209807,86.333204 C850.44653,89.5699265 850.44653,94.836458 847.209807,98.0640372 Z" transform="translate(-784 -69)"/>
</svg>
