<svg xmlns="http://www.w3.org/2000/svg" width="88" height="89" viewBox="0 0 88 89">
  <path fill="#73328D" d="M849.908676,306.716829 C849.59726,305.621852 850.461187,304.597194 851.576256,304.76797 C851.887671,304.818199 852.219178,304.888518 852.520548,305.009066 C854.52968,305.782582 856.558904,306.485778 858.598174,307.19902 C860.044749,307.711349 861.481279,308.304043 862.978082,308.70587 C863.912329,308.946966 864.816438,309.258381 865.740639,309.509523 C866.072146,309.599934 866.413699,309.609979 866.73516,309.449249 C867.046575,309.298564 867.116895,309.037377 866.875799,308.786235 C866.283105,308.193541 865.660274,307.651075 864.916895,307.259294 C864.454795,307.018199 864.032877,306.6666 863.580822,306.395367 C862.063927,305.481212 860.486758,304.637377 858.919635,303.783495 L856.830137,302.668427 L856.016438,302.206326 L854.700457,301.452902 C853.906849,301.061121 853.866667,300.086692 854.318721,299.423678 C854.770776,298.760664 855.242922,298.620025 856.03653,298.780756 C856.789954,298.941486 857.40274,299.383495 858.075799,299.725048 C859.562557,300.488518 861.069406,301.221852 862.536073,302.03555 C863.831963,302.768883 865.157991,303.411806 866.453881,304.104957 C867.398174,304.60724 868.372603,305.029157 869.427397,305.240116 C869.618265,305.270253 869.839269,305.350619 869.959817,305.159751 C870.090411,304.958838 869.92968,304.778016 869.809132,304.637377 C869.286758,304.07482 868.764384,303.522308 868.201826,302.999934 C867.850228,302.678473 867.518721,302.326874 867.147032,302.03555 C866.313242,301.372536 865.620091,300.558838 864.736073,299.946052 C864.394521,299.704957 864.143379,299.363404 863.811872,299.102217 C863.068493,298.499477 862.315068,297.886692 861.672146,297.17345 C861.079452,296.510436 860.999087,295.767057 861.340639,295.174363 C861.621918,294.682125 862.26484,294.430984 862.807306,294.631897 C863.178995,294.772536 863.520548,294.97345 863.821918,295.214546 C864.515068,295.777103 865.238356,296.319568 865.961644,296.821852 C866.815525,297.414546 867.609132,298.087605 868.422831,298.710436 C869.517808,299.53418 870.622831,300.357925 871.607306,301.342399 C872.340639,302.065687 873.154338,302.708609 874.028311,303.271167 C875.153425,303.984409 876.378995,304.325961 877.644749,304.637377 C878.699543,304.898564 879.714155,305.310436 880.728767,305.712262 C881.673059,306.083952 882.516895,306.626418 883.410959,307.108609 C884.315068,307.610893 885.058447,308.304043 885.801826,308.967057 C886.635616,309.70039 887.449315,310.524135 887.700457,311.709523 C887.800913,312.181669 887.821005,312.653815 887.730594,313.136007 C887.569863,313.989888 887.238356,314.733267 886.685845,315.406326 C885.952511,316.30039 885.771689,317.425504 885.530594,318.510436 C885.359817,319.324135 885.279452,320.157925 885.189041,320.981669 C885.058447,322.237377 884.455708,323.262034 883.531507,324.10587 C882.617352,324.93966 881.592694,325.612719 880.547945,326.265687 C880.065753,326.567057 879.613699,326.918655 879.111416,327.189888 C878.388128,327.571623 877.604566,327.67208 876.821005,327.732354 C875.715982,327.812719 874.63105,327.993541 873.606393,328.445596 C872.873059,328.757011 872.260274,329.26934 871.617352,329.731441 C871.024658,330.17345 870.391781,330.464774 869.638356,330.575276 C868.734247,330.70587 867.970776,331.208153 867.247489,331.740573 C866.765297,332.092171 866.273059,332.423678 865.720548,332.664774 C865.127854,332.915915 864.404566,332.383495 864.344292,331.680299 C864.253881,330.685778 864.69589,329.892171 865.278539,329.148792 C865.921461,328.335094 866.805479,327.90313 867.779909,327.581669 C868.231963,327.44103 868.623744,327.179842 868.985388,326.878473 C869.829224,326.16523 870.703196,325.502217 871.637443,324.909523 C871.878539,324.748792 872.179909,324.668427 872.451142,324.537833 C873.485845,324.045596 873.254795,323.422765 872.832877,322.689431 C872.6621,322.378016 872.350685,322.13692 871.999087,322.006326 C871.105023,321.664774 870.321461,321.132354 869.527854,320.609979 C868.533333,319.957011 867.458447,319.595367 866.252968,319.535094 C865.348858,319.494911 864.454795,319.293998 863.550685,319.17345 C862.214612,318.992628 860.868493,319.012719 859.53242,318.942399 C858.146119,318.862034 856.759817,318.711349 855.373516,318.560664 C854.157991,318.430071 852.942466,318.319568 851.726941,318.158838 C850.822831,318.03829 850.220091,317.556098 850.340639,316.501304 C850.421005,315.808153 851.184475,315.16523 852.038356,315.185322 C853.394521,315.215459 854.740639,315.265687 856.378082,315.30587 C858.5379,315.295824 860.978995,315.496737 863.430137,315.577103 C864.123288,315.597194 864.776256,315.476646 865.358904,315.07482 C865.90137,314.693084 865.941553,314.110436 865.459361,313.658381 C865.218265,313.437377 864.936986,313.276646 864.635616,313.156098 C863.480365,312.704043 862.365297,312.181669 861.189954,311.809979 C859.542466,311.287605 857.995434,310.504043 856.357991,309.981669 C855.554338,309.730527 854.780822,309.298564 853.987215,308.997194 C853.253881,308.725961 852.500457,308.454728 851.777169,308.133267 C851.26484,307.902217 850.772603,307.661121 850.320548,307.329614 C850.109589,307.148792 849.978995,306.947879 849.908676,306.716829 Z M875.133333,353.84103 C874.922374,353.278473 874.570776,352.786235 874.229224,352.304043 C873.696804,351.57071 873.174429,350.797194 873.043836,349.883039 C872.933333,349.13966 872.631963,348.506783 872.2,347.904043 C871.7379,347.251075 871.205479,346.628244 870.90411,345.884865 C870.492237,344.890345 870.30137,343.855641 870.221005,342.780756 C870.160731,341.967057 870.07032,341.153358 869.668493,340.409979 C869.39726,339.897651 869.055708,339.455641 868.754338,338.97345 C868.091324,337.908609 867.408219,336.853815 866.544292,335.929614 C865.720548,335.045596 864.726027,334.462947 863.510502,334.342399 C862.556164,334.241943 861.591781,334.141486 860.657534,333.920482 C859.673059,333.689431 858.668493,333.498564 857.854795,332.825504 C857.2621,332.343313 856.609132,332.031897 855.855708,331.851075 C854.861187,331.609979 853.936986,331.77071 853.133333,332.293084 C852.389954,332.76523 851.706849,333.357925 851.164384,334.091258 C850.652055,334.794454 850.029224,335.387148 849.587215,336.160664 C849.105023,337.0045 848.592694,337.818199 848.23105,338.732354 C847.799087,339.817285 847.387215,340.912262 847.075799,342.037377 C846.854795,342.861121 846.754338,343.715002 846.33242,344.488518 C845.609132,345.8045 844.745205,347.009979 843.690411,348.104957 C842.183562,349.651988 841.008219,351.460208 839.672146,353.147879 C839.571689,353.288518 839.50137,353.46934 839.370776,353.599934 C838.697717,354.272993 838.225571,355.106783 837.632877,355.850162 C837.411872,356.121395 837.251142,356.442856 837.130594,356.774363 C836.979909,357.176189 837.160731,357.86934 837.472146,358.090345 C838.06484,358.512262 839.009132,358.502217 839.541553,357.999934 C840.053881,357.537833 840.556164,357.055641 840.968037,356.50313 C841.600913,355.639203 842.354338,354.895824 843.037443,354.07208 C843.861187,353.057468 844.785388,352.123221 845.649315,351.138746 C846.10137,350.616372 846.63379,350.184409 847.146119,349.712262 C847.276712,349.591715 847.46758,349.430984 847.668493,349.551532 C847.869406,349.67208 847.778995,349.90313 847.748858,350.083952 C847.568037,351.078473 847.156164,352.002673 846.694064,352.876646 C845.980822,354.242856 845.287671,355.629157 844.534247,356.985322 C843.720548,358.431897 842.99726,359.928701 842.243836,361.405413 C841.892237,362.078473 841.440183,362.711349 841.279452,363.47482 C841.108676,364.278473 841.249315,364.730527 841.922374,365.192628 C842.635616,365.67482 843.680365,365.594454 844.011872,364.630071 C844.102283,364.368883 844.273059,364.157925 844.413699,363.916829 C844.73516,363.384409 845.096804,362.862034 845.357991,362.299477 C845.900457,361.104043 846.623744,360.009066 847.206393,358.823678 C847.789041,357.63829 848.522374,356.533267 849.205479,355.388062 C849.406393,355.056555 849.637443,354.745139 849.828311,354.403587 C850.210046,353.740573 850.702283,353.137833 851.26484,352.615459 C851.515982,352.384409 851.777169,352.454728 851.927854,352.766144 C852.068493,353.047422 852.078539,353.358838 852.008219,353.640116 C851.747032,354.644683 851.455708,355.639203 851.134247,356.623678 C850.43105,358.77345 849.717808,360.943313 848.884018,363.052902 C848.552511,363.896737 848.331507,364.77071 847.989954,365.614546 C847.718721,366.297651 847.427397,366.980756 847.286758,367.714089 C847.045662,368.899477 847.568037,369.502217 848.863927,369.592628 C849.245662,369.622765 849.557078,369.451988 849.808219,369.140573 C850.119635,368.738746 850.350685,368.286692 850.541553,367.824591 C851.144292,366.378016 851.787215,364.941486 852.309589,363.464774 C852.922374,361.726874 853.69589,360.059294 854.268493,358.301304 C854.610046,357.236463 855.092237,356.231897 855.494064,355.187148 C855.654795,354.785322 855.785388,354.383495 856.086758,354.051988 C856.589041,353.509523 857.171689,353.549705 857.583562,354.162491 C857.955251,354.725048 858.065753,355.357925 858.045662,356.020938 C857.965297,358.482125 857.764384,360.933267 857.774429,363.153358 C857.724201,364.720482 857.673973,366.026418 857.643836,367.342399 C857.63379,367.513176 857.663927,367.714089 857.694064,367.884865 C857.86484,368.678473 858.497717,369.120482 859.341553,369.140573 C859.994521,369.150619 860.516895,368.517742 860.607306,367.834637 C860.768037,366.588975 860.888584,365.333267 861.029224,364.077559 C861.179909,362.741486 861.320548,361.415459 861.400913,360.079386 C861.481279,358.713176 861.441096,357.346966 861.631963,355.980756 C861.742466,355.116829 861.96347,354.262947 861.993607,353.39902 C862.03379,352.093084 862.415525,350.927788 863.148858,349.862947 C863.671233,349.089431 864.16347,348.285778 864.515068,347.421852 C864.645662,347.090345 864.876712,346.79902 865.188128,346.628244 C865.911416,346.246509 866.494064,345.985322 867.006393,347.020025 C867.136986,347.281212 867.217352,347.592628 867.378082,347.833724 C867.940639,348.717742 868.583562,349.551532 869.266667,350.355185 C869.598174,350.73692 869.879452,351.158838 870.050228,351.651075 C870.371689,352.605413 870.783562,353.509523 871.59726,354.162491 C872.330594,354.755185 873.124201,355.197194 874.118721,355.126874 C874.801826,355.13692 875.354338,354.443769 875.133333,353.84103 Z M911.699543,369.763404 C911.247489,369.431897 910.755251,369.17071 910.242922,368.949705 C909.509589,368.63829 908.786301,368.357011 908.032877,368.085778 C907.219178,367.794454 906.455708,367.352445 905.621918,367.091258 C904.004566,366.568883 902.487671,365.795367 900.860274,365.293084 C899.785388,364.961578 898.760731,364.459294 897.705936,364.057468 C897.294064,363.896737 896.882192,363.756098 896.550685,363.444683 C896.058447,362.982582 896.078539,362.420025 896.621005,362.018199 C897.193607,361.606326 897.846575,361.465687 898.549772,361.495824 C901.021005,361.596281 903.492237,361.767057 906.023744,361.787148 C907.249315,361.827331 908.515068,361.867514 909.790868,361.907696 C910.242922,361.927788 910.654795,361.817285 911.046575,361.566144 C911.860274,361.043769 911.990868,359.557011 910.89589,359.104957 C910.584475,358.974363 910.252968,358.914089 909.911416,358.873906 C908.83653,358.77345 907.771689,358.652902 906.696804,358.532354 C905.350685,358.381669 904.004566,358.230984 902.658447,358.150619 C901.292237,358.070253 899.926027,358.10039 898.559817,357.919568 C897.69589,357.809066 896.842009,357.608153 895.978082,357.557925 C894.772603,357.497651 893.657534,357.236463 892.642922,356.563404 C891.758904,355.97071 890.854795,355.408153 889.87032,354.986235 C889.408219,354.795367 889.106849,354.393541 888.936073,353.891258 C888.73516,353.268427 888.825571,352.946966 889.398174,352.625504 C889.709589,352.454728 890.051142,352.364317 890.342466,352.17345 C891.266667,351.580756 892.140639,350.947879 892.974429,350.234637 C893.346119,349.923221 893.7379,349.641943 894.2,349.501304 C895.164384,349.189888 896.058447,348.76797 896.70137,347.944226 C897.273973,347.220938 897.705936,346.457468 897.665753,345.50313 C897.625571,344.609066 896.831963,344.116829 896.048402,344.508609 C895.576256,344.749705 895.134247,345.04103 894.702283,345.362491 C893.96895,345.884865 893.205479,346.377103 892.291324,346.507696 C891.568037,346.608153 890.955251,346.909523 890.382648,347.321395 C889.789954,347.753358 889.217352,348.225504 888.534247,348.546966 C887.489498,349.039203 886.364384,349.240116 885.209132,349.330527 C884.405479,349.390801 883.611872,349.491258 882.868493,349.862947 C882.346119,350.13418 881.894064,350.495824 881.401826,350.80724 C880.316895,351.470253 879.2621,352.17345 878.3379,353.047422 C877.473973,353.851075 876.931507,354.815459 876.790868,355.980756 C876.690411,356.824591 876.620091,357.658381 876.449315,358.492171 C876.218265,359.60724 876.027397,360.752445 875.284018,361.676646 C874.731507,362.349705 874.410046,363.10313 874.249315,363.946966 C874.158904,364.419112 874.189041,364.871167 874.279452,365.333267 C874.520548,366.538746 875.354338,367.362491 876.198174,368.10587 C876.931507,368.758838 877.654795,369.451988 878.558904,369.93418 C879.442922,370.406326 880.276712,370.958838 881.241096,371.330527 C882.285845,371.732354 883.310502,372.154272 884.395434,372.425504 C885.63105,372.73692 886.83653,373.048336 887.941553,373.761578 C888.825571,374.344226 889.659361,374.987148 890.412785,375.710436 C891.417352,376.694911 892.522374,377.528701 893.627397,378.362491 C894.50137,379.03555 895.355251,379.758838 896.279452,380.381669 C897.253881,381.044683 898.117808,381.878473 899.192694,382.380756 C899.715068,382.621852 900.398174,382.37071 900.649315,381.858381 C900.980822,381.195367 900.880365,380.391715 900.347945,379.879386 C899.795434,379.33692 899.252968,378.784409 898.630137,378.302217 C898.178082,377.960664 897.826484,377.478473 897.354338,377.157011 C896.490411,376.564317 895.777169,375.790801 895.003653,375.117742 C894.139726,374.384409 893.285845,373.620938 892.522374,372.757011 C892.351598,372.566144 892.150685,372.385322 892.040183,372.154272 C891.919635,371.90313 891.989954,371.752445 892.281279,371.752445 C892.391781,371.752445 892.522374,371.762491 892.622831,371.782582 C893.627397,371.983495 894.551598,372.395367 895.445662,372.867514 C896.791781,373.580756 898.147945,374.243769 899.484018,374.997194 C900.920548,375.800847 902.39726,376.524135 903.873973,377.277559 C904.567123,377.629157 905.2,378.091258 905.983562,378.262034 C906.787215,378.43281 907.249315,378.292171 907.70137,377.59902 C908.183562,376.875733 908.083105,375.851075 907.118721,375.509523 C906.957991,375.459294 906.807306,375.368883 906.666667,375.268427 C905.571689,374.504957 904.336073,373.962491 903.170776,373.309523 C901.422831,372.335094 899.644749,371.430984 897.947032,370.356098 C897.665753,370.175276 897.404566,369.954272 897.103196,369.793541 C896.349772,369.411806 895.726941,368.86934 895.134247,368.276646 C894.883105,368.015459 894.943379,367.754272 895.274886,367.593541 C895.556164,367.462947 895.86758,367.442856 896.148858,367.523221 C897.153425,367.784409 898.147945,368.085778 899.13242,368.397194 C901.322374,369.090345 903.472146,369.883952 905.631963,370.677559 C906.485845,370.988975 907.349772,371.230071 908.193607,371.571623 C908.886758,371.852902 909.579909,372.154272 910.333333,372.264774 C910.825571,372.345139 911.3379,372.355185 911.659361,371.923221 C912.03105,371.44103 912.231963,370.868427 912.021005,370.23555 C911.990868,370.054728 911.87032,369.893998 911.699543,369.763404 Z M924.497717,318.962491 C923.834703,318.510436 922.920548,318.590801 922.347945,319.17345 C921.805479,319.725961 921.263014,320.278473 920.780822,320.891258 C920.439269,321.343313 919.957078,321.694911 919.635616,322.167057 C919.032877,323.04103 918.269406,323.754272 917.56621,324.547879 C916.832877,325.391715 916.099543,326.265687 915.225571,326.99902 C915.044749,327.159751 914.873973,327.350619 914.652968,327.461121 C914.381735,327.60176 914.23105,327.511349 914.221005,327.209979 C914.221005,327.109523 914.241096,326.99902 914.251142,326.898564 C914.452055,325.873906 914.873973,324.909523 915.36621,323.995367 C916.059361,322.689431 916.722374,321.363404 917.435616,320.067514 C918.259361,318.600847 919.00274,317.083952 919.776256,315.577103 C920.117808,314.914089 920.569863,314.291258 920.720548,313.537833 C920.891324,312.73418 920.750685,312.262034 920.06758,311.820025 C919.334247,311.337833 918.299543,311.448336 917.978082,312.402673 C917.907763,312.623678 917.757078,312.814546 917.646575,313.015459 C917.315068,313.56797 916.923288,314.10039 916.652055,314.683039 C916.079452,315.928701 915.326027,317.093998 914.723288,318.319568 C914.160731,319.444683 913.457534,320.499477 912.814612,321.584409 C912.643836,321.875733 912.40274,322.106783 912.252055,322.428244 C911.880365,323.181669 911.317808,323.8045 910.73516,324.387148 C910.50411,324.618199 910.242922,324.557925 910.092237,324.2666 C909.931507,323.96523 909.921461,323.633724 910.001826,323.312262 C910.252968,322.347879 910.534247,321.383495 910.845662,320.439203 C911.609132,318.03829 912.493151,315.687605 913.336986,313.306783 L914.261187,310.704957 C914.442009,310.192628 914.642922,309.690345 914.733333,309.137833 C914.944292,307.982582 913.909589,307.068427 912.774429,307.420025 C912.553425,307.490345 912.362557,307.610893 912.201826,307.80176 C911.890411,308.193541 911.669406,308.63555 911.468493,309.087605 C910.855708,310.544226 910.212785,312.000847 909.680365,313.477559 C909.077626,315.195367 908.30411,316.872993 907.731507,318.610893 C907.349772,319.806326 906.807306,320.961578 906.355251,322.126874 C906.234703,322.43829 906.084018,322.719568 905.852968,322.950619 C905.400913,323.43281 904.818265,323.402673 904.426484,322.860208 C904.034703,322.297651 903.884018,321.654728 903.914155,320.981669 C904.014612,318.510436 904.185388,316.039203 904.205479,313.437377 C904.235616,312.302217 904.285845,311.036463 904.326027,309.77071 C904.336073,309.559751 904.326027,309.358838 904.29589,309.147879 C904.125114,308.344226 903.53242,307.862034 902.748858,307.821852 C901.955251,307.781669 901.463014,308.454728 901.372603,309.137833 C901.272146,309.84103 901.201826,310.554272 901.131507,311.267514 C900.930594,313.156098 900.699543,315.034637 900.599087,316.933267 C900.518721,318.239203 900.548858,319.56523 900.378082,320.871167 C900.26758,321.725048 900.046575,322.568883 900.026484,323.422765 C900.006393,324.93966 899.473973,326.265687 898.630137,327.471167 C898.218265,328.063861 897.846575,328.696737 897.575342,329.379842 C897.424658,329.751532 897.213699,330.093084 896.872146,330.304043 C896.138813,330.746052 895.475799,330.977103 894.993607,329.942399 C894.873059,329.671167 894.782648,329.379842 894.621918,329.138746 C894.039269,328.214546 893.36621,327.360664 892.663014,326.526874 C892.351598,326.16523 892.110502,325.77345 891.959817,325.321395 C891.648402,324.357011 891.226484,323.462947 890.412785,322.809979 C889.679452,322.227331 888.885845,321.775276 887.891324,321.845596 C887.157991,321.895824 886.615525,322.619112 886.866667,323.221852 C887.097717,323.774363 887.439269,324.256555 887.790868,324.748792 C888.323288,325.482125 888.825571,326.255641 888.956164,327.179842 C889.056621,327.913176 889.368037,328.536007 889.789954,329.118655 C890.322374,329.851988 890.905023,330.555185 891.216438,331.429157 C891.547945,332.37345 891.718721,333.337833 891.789041,334.322308 C891.849315,335.115915 891.949772,335.899477 892.331507,336.612719 C892.60274,337.125048 892.954338,337.567057 893.245662,338.049249 C893.908676,339.124135 894.601826,340.158838 895.455708,341.093084 C896.289498,341.997194 897.30411,342.559751 898.52968,342.690345 C899.353425,342.780756 900.177169,342.861121 901.000913,343.031897 C902.156164,343.272993 903.331507,343.514089 904.265753,344.287605 C904.818265,344.73966 905.441096,344.990801 906.134247,345.171623 C907.118721,345.422765 908.00274,345.231897 908.826484,344.759751 C910.021918,344.056555 910.885845,342.971623 911.699543,341.886692 C912.513242,340.80176 913.226484,339.646509 913.718721,338.350619 C914.150685,337.215459 914.622831,336.110436 914.894064,334.935094 C915.165297,333.719568 915.536986,332.584409 916.210046,331.509523 C916.762557,330.63555 917.395434,329.821852 918.108676,329.098564 C919.093151,328.104043 919.926941,326.978929 920.770776,325.893998 C921.403653,325.080299 922.056621,324.2666 922.649315,323.412719 C923.191781,322.629157 923.784475,321.855641 924.377169,321.112262 C924.578082,320.861121 924.718721,320.559751 924.829224,320.248336 C925.040183,319.856555 924.849315,319.183495 924.497717,318.962491 Z" transform="translate(-837 -294)"/>
</svg>
