<svg xmlns="http://www.w3.org/2000/svg" width="91" height="61" viewBox="0 0 91 61">
  <path fill="#73328D" d="M431.478199,323.024441 C430.524199,320.702441 428.238199,319.064441 425.574199,319.064441 C422.910199,319.064441 420.615199,320.702441 419.661199,323.024441 L415.278199,323.024441 C414.315199,320.702441 412.029199,319.064441 409.365199,319.064441 C406.701199,319.064441 404.406199,320.702441 403.452199,323.024441 L398.709199,323.024441 C397.746199,320.702441 395.469199,319.064441 392.796199,319.064441 C390.123199,319.064441 387.837199,320.702441 386.883199,323.024441 L379.962199,323.024441 L379.962199,327.884441 L386.883199,327.884441 C387.837199,330.215441 390.123199,331.853441 392.796199,331.853441 C395.469199,331.853441 397.746199,330.215441 398.709199,327.884441 L403.452199,327.884441 C404.406199,330.215441 406.692199,331.853441 409.365199,331.853441 C412.038199,331.853441 414.315199,330.215441 415.278199,327.884441 L419.661199,327.884441 C420.615199,330.215441 422.901199,331.853441 425.574199,331.853441 C428.247199,331.853441 430.524199,330.215441 431.478199,327.884441 L469.962199,327.884441 L469.962199,323.024441 L431.478199,323.024441 Z M457.128199,366.251441 C454.455199,366.251441 452.178199,367.880441 451.215199,370.211441 L446.472199,370.211441 C445.518199,367.880441 443.232199,366.251441 440.559199,366.251441 C437.886199,366.251441 435.609199,367.880441 434.646199,370.211441 L430.263199,370.211441 C429.309199,367.880441 427.023199,366.251441 424.350199,366.251441 C421.677199,366.251441 419.400199,367.880441 418.437199,370.211441 L379.962199,370.211441 L379.962199,375.071441 L418.437199,375.071441 C419.400199,377.393441 421.686199,379.031441 424.350199,379.031441 C427.014199,379.031441 429.309199,377.393441 430.263199,375.071441 L434.646199,375.071441 C435.609199,377.393441 437.895199,379.031441 440.559199,379.031441 C443.223199,379.031441 445.518199,377.393441 446.472199,375.071441 L451.215199,375.071441 C452.178199,377.393441 454.455199,379.031441 457.128199,379.031441 C459.801199,379.031441 462.087199,377.393441 463.041199,375.071441 L469.962199,375.071441 L469.962199,370.211441 L463.041199,370.211441 C462.087199,367.880441 459.801199,366.251441 457.128199,366.251441 Z M449.343199,342.833441 C446.670199,342.833441 444.384199,344.471441 443.430199,346.793441 L439.047199,346.793441 C438.093199,344.471441 435.807199,342.833441 433.134199,342.833441 C430.461199,342.833441 428.184199,344.471441 427.221199,346.793441 L404.469199,346.793441 C403.515199,344.471441 401.229199,342.833441 398.556199,342.833441 C395.883199,342.833441 393.606199,344.471441 392.643199,346.793441 L379.962199,346.793441 L379.962199,351.662441 L392.643199,351.662441 C393.606199,353.984441 395.892199,355.622441 398.556199,355.622441 C401.220199,355.622441 403.515199,353.984441 404.469199,351.662441 L427.221199,351.662441 C428.184199,353.984441 430.461199,355.622441 433.134199,355.622441 C435.807199,355.622441 438.093199,353.984441 439.047199,351.662441 L443.430199,351.662441 C444.384199,353.984441 446.670199,355.622441 449.343199,355.622441 C452.016199,355.622441 454.293199,353.984441 455.256199,351.662441 L469.962199,351.662441 L469.962199,346.793441 L455.256199,346.793441 C454.293199,344.471441 452.016199,342.833441 449.343199,342.833441 Z" transform="translate(-379 -319)"/>
</svg>
