<svg xmlns="http://www.w3.org/2000/svg" width="81" height="80" viewBox="0 0 81 80">
  <path fill="#73328D" d="M279.764806,80.5878388 L267.447051,67.0631835 C266.792929,66.3445711 265.862418,65.9576259 264.895055,66.0036908 L215.706953,66.0036908 C214.73959,65.9576259 213.809079,66.3445711 213.154957,67.0631835 L200.846415,80.5878388 C199.869839,81.6565446 199.722432,83.2503902 200.487109,84.4849296 L220.562194,116.988325 C219.613257,119.402125 219.088117,122.027825 219.088117,124.782506 C219.088117,136.501417 228.5867,146 240.305611,146 L240.314824,146 C252.033735,146 261.532318,136.501417 261.532318,124.782506 C261.532318,122.027825 261.007178,119.402125 260.058241,116.988325 L280.133325,84.4849296 C280.88879,83.2503902 280.741382,81.6657575 279.764806,80.5878388 Z M252.632578,83.3793719 L240.33325,103.555799 L240.287185,103.555799 L227.987856,83.3793719 L252.632578,83.3793719 Z M207.295502,83.1582604 L215.043618,74.6546794 L233.377449,104.725848 C229.858091,105.941961 226.762529,108.051734 224.357941,110.787989 L207.295502,83.1582604 Z M254.198785,123.197873 L248.569654,128.68881 L249.896323,136.436926 C250.006879,137.072622 249.739703,137.717531 249.223776,138.095263 C248.92896,138.307161 248.578867,138.417717 248.228774,138.417717 C247.961597,138.417717 247.685208,138.353226 247.436458,138.224245 L240.471444,134.566691 L233.506431,138.233457 C232.935226,138.537486 232.244253,138.482208 231.719113,138.104476 C231.193973,137.726744 230.93601,137.081835 231.046565,136.446139 L232.373234,128.698023 L226.744103,123.207086 C226.283454,122.75565 226.117621,122.083103 226.311093,121.465833 C226.513779,120.848563 227.038919,120.40634 227.683827,120.314211 L235.468796,119.181014 L238.951303,112.123871 C239.236905,111.543453 239.826536,111.174934 240.471444,111.174934 C241.116353,111.174934 241.705984,111.543453 241.991586,112.123871 L245.474093,119.181014 L253.259061,120.314211 C253.894757,120.40634 254.42911,120.857776 254.631795,121.465833 C254.825268,122.07389 254.659434,122.746437 254.198785,123.197873 Z M256.25328,110.769563 C253.848692,108.033308 250.75313,105.923535 247.233772,104.707422 L265.567603,74.6362535 L273.31572,83.1398344 L256.25328,110.769563 Z" transform="translate(-200 -66)"/>
</svg>
