<svg xmlns="http://www.w3.org/2000/svg" width="89" height="81" viewBox="0 0 89 81">
  <path fill="#73328D" d="M148.979614,252.956886 C148.758279,247.228715 144.995569,242.403594 139.462174,240.863097 C139.205424,240.792269 138.957528,240.730295 138.700778,240.668321 C136.549394,242.014043 134.008459,242.801998 131.281601,242.801998 C128.51933,242.801998 125.951835,241.996336 123.782744,240.6152 C118.098839,241.863535 113.796071,247.104767 113.663269,252.744404 C113.592442,255.719157 113.530468,258.685058 113.521614,261.659811 C113.521614,264.430936 113.317985,264.510617 114.734535,264.882461 C114.743388,264.891314 132.937193,269.132109 147.837522,264.926728 C148.625477,264.599151 149.068149,264.200747 149.050442,263.235722 C148.988468,259.809444 149.112416,256.374312 148.979614,252.956886 Z M117.718142,240.783416 C118.851381,239.94234 120.152836,239.40228 121.463144,238.764833 C119.037303,236.374406 117.479099,233.098636 117.319737,229.459875 C117.240056,229.451021 117.151522,229.451021 117.062988,229.451021 C114.353837,229.459875 111.635833,229.389047 108.926683,229.477581 C105.686326,229.583823 102.924055,230.460313 100.666429,232.160172 C99.6217243,233.001248 95.221568,237.171215 95.079913,248.255713 L95.079913,253.718282 C99.6305777,255.179098 104.27863,256.135269 109.02407,256.746156 C110.582275,256.940931 111.175455,256.639915 111.122334,254.904642 C110.962972,249.132203 112.972702,244.307082 117.718142,240.783416 Z M159.692269,231.40763 C155.168164,228.645359 150.130561,229.574969 145.243466,229.504142 C145.066397,233.125196 143.517046,236.383259 141.091205,238.773686 C143.357684,239.721004 145.349707,240.916217 146.987592,242.633783 C150.351897,246.166303 151.697618,250.407098 151.414309,255.205658 C151.334628,256.409725 151.617938,256.940931 152.99022,256.843544 C157.062799,256.533673 161.020284,255.736864 164.844967,254.276048 C165.801138,253.904204 166.270369,253.408411 166.234956,252.292879 C166.137568,248.81348 166.261516,245.316373 166.093301,241.836974 C165.871965,237.242042 163.570072,233.78035 159.692269,231.40763 Z M131.361282,239.570495 C137.05404,239.490814 141.657838,234.833909 141.657838,229.158858 C141.666679,223.404126 137.124867,218.800341 131.40555,218.773579 C125.606551,218.738367 120.878817,223.368713 120.852149,229.114591 C120.825697,234.789641 125.703939,239.650176 131.361282,239.570495 Z M113.353399,228.840134 C113.574735,228.822427 114.097088,228.813574 114.601733,228.716186 C115.602171,228.512557 116.549489,228.282368 117.337444,227.84855 C117.638461,223.448393 119.975767,219.614857 123.410899,217.268697 C123.384339,217.003094 123.348925,216.737491 123.286951,216.463035 C122.259953,211.239509 117.178082,207.405972 112.131625,208.025713 C106.536256,208.707427 102.348582,213.390893 102.623038,218.667539 C102.924055,224.404564 107.403892,228.769307 113.353399,228.840134 Z M178.027729,221.704267 C175.770103,219.995554 173.007832,219.119065 169.767476,219.012823 C167.058325,218.924289 164.340321,218.995117 161.63117,218.986263 C161.542636,218.986263 161.454102,218.986263 161.374421,218.995117 C161.215059,222.633878 159.656855,225.909648 157.231014,228.300075 C158.541322,228.946375 159.842777,229.486435 160.976016,230.318658 C165.721457,233.842324 167.731186,238.667445 167.571824,244.439884 C167.518704,246.175156 168.111884,246.485027 169.670088,246.281398 C174.415528,245.679364 179.06358,244.71434 183.614245,243.253524 L183.614245,237.799809 C183.47259,226.71531 179.072434,222.53649 178.027729,221.704267 Z M161.356714,217.383792 C162.14467,217.826463 163.091987,218.047799 164.092425,218.251428 C164.597071,218.357669 165.119423,218.357669 165.340759,218.375376 C171.290266,218.313402 175.770103,213.94866 176.07112,208.202781 C176.345576,202.926135 172.157903,198.242669 166.562533,197.560955 C161.516076,196.941214 156.434205,200.774751 155.407207,205.998277 C155.345233,206.272733 155.309819,206.547189 155.283259,206.803939 C158.718391,209.150099 161.055697,212.992489 161.356714,217.383792 Z M138.302374,216.206285 C138.258107,216.365647 138.231547,216.525009 138.21384,216.675517 C142.277565,219.00397 145.057544,223.306739 145.252319,228.282368 C145.402827,228.344342 145.571043,228.397463 145.748111,228.44173 C152.352772,230.265537 158.92202,225.227934 158.868899,218.339962 C158.824632,212.895101 154.840587,208.610039 149.271778,208.008006 C144.366976,207.485653 139.42676,211.177535 138.302374,216.206285 Z M136.381179,215.799027 C136.708756,214.010634 137.487858,212.346188 138.461736,210.540088 C133.220503,210.115123 128.280288,210.123976 122.915107,210.548941 C124.260829,212.50555 124.942543,214.31165 125.208146,216.223992 C127.040807,215.338649 129.103657,214.842856 131.281601,214.842856 C133.078848,214.842856 134.805268,215.179287 136.381179,215.799027 Z M130.688421,209.539681 L130.741542,209.539681 C134.42457,209.548503 138.045624,207.698136 140.170448,204.502046 C141.055792,203.182885 141.622411,201.722068 141.879161,200.216985 C141.994256,199.552977 142.065083,198.862409 142.065083,198.162988 C142.065083,192.638446 138.125305,188.034661 132.90178,186.998809 L132.742418,186.945688 L132.574203,186.945688 C131.954462,186.839447 131.325869,186.786327 130.688421,186.786327 C124.402484,186.786327 119.31176,191.877051 119.31176,198.162988 C119.31176,204.448926 124.402484,209.539681 130.688421,209.539681 Z" transform="translate(-95 -186)"/>
</svg>
