<svg xmlns="http://www.w3.org/2000/svg" width="60" height="52" viewBox="0 0 60 52">
  <path d="M59.6506849,1.93150685 C59.0273973,0.520547945 57.8424658,0.00684931507 56.3561644,0.00684931507 C47.5753425,0.0273972603 38.8013699,0.0273972603 30.0068493,0.0273972603 L3.85616438,0.0273972603 C1.23972603,0.0273972603 0.0342465753,1.21232877 0.0342465753,3.81506849 L0.0342465753,47.0068493 C0.0342465753,48.0068493 0.260273973,48.890411 0.993150685,49.609589 C1.74657534,50.3630137 2.70547945,50.5342466 3.7260274,50.5342466 L56.4315068,50.5342466 C58.6164384,50.5342466 59.9520548,49.2328767 59.9520548,47.1027397 C59.9726027,32.5616438 59.9726027,18 59.9520548,3.43835616 C59.9520548,2.93150685 59.8561644,2.38356164 59.6506849,1.93150685 Z M16.5753425,3.96575342 C17.630137,3.96575342 18.1780822,4.49315068 18.1780822,5.54794521 C18.1780822,6.62328767 17.6849315,7.13013699 16.6164384,7.15068493 C15.5205479,7.15068493 15.0342466,6.67808219 15.0342466,5.5890411 C15.0273973,4.47945205 15.5,3.98630137 16.5753425,3.96575342 Z M11.0753425,3.96575342 C12.1506849,3.96575342 12.6232877,4.45205479 12.6232877,5.56849315 C12.6232877,6.69863014 12.1917808,7.13013699 11.0753425,7.15068493 C10,7.15068493 9.49315068,6.64383562 9.49315068,5.56849315 C9.49315068,4.51369863 10.0205479,3.98630137 11.0753425,3.96575342 Z M5.53424658,3.96575342 C6.56849315,3.96575342 7.1369863,4.49315068 7.15068493,5.54794521 C7.17123288,6.60273973 6.64383562,7.13013699 5.5890411,7.15068493 C4.47945205,7.15068493 3.98630137,6.67808219 3.96575342,5.60958904 C3.95205479,4.53424658 4.47945205,3.98630137 5.53424658,3.96575342 Z M58.390411,46.8013699 C58.390411,48.4041096 57.8630137,48.9109589 56.2808219,48.9109589 L3.65068493,48.9109589 C2.14383562,48.9109589 1.59589041,48.3835616 1.59589041,46.8767123 L1.59589041,11.1232877 L58.3835616,11.1232877 L58.390411,46.8013699 Z M28.0410959,43.4657534 C30.3150685,42.9178082 31.3972603,40.5410959 30.3356164,38.4520548 C30.2739726,38.3287671 30.260274,38.1027397 30.3356164,38 C31.2260274,36.7808219 32.130137,35.5821918 33.0410959,34.3835616 C33.1027397,34.3082192 33.2671233,34.2465753 33.3630137,34.2739726 C34.3287671,34.5136986 35.2191781,34.3287671 36.0821918,33.8082192 C36.1780822,33.8767123 36.260274,33.9246575 36.3356164,33.9794521 C37.5205479,34.869863 38.7054795,35.7534247 39.8767123,36.6506849 C39.9657534,36.7191781 40,36.9178082 40,37.0547945 C40,37.4726027 39.9178082,37.8972603 39.9657534,38.3013699 C40.1438356,39.7534247 41.2123288,40.869863 42.6780822,41.1849315 C44.0410959,41.4794521 45.5136986,40.8356164 46.260274,39.630137 C47.0342466,38.3767123 46.9520548,36.8082192 46.0342466,35.6712329 C45.869863,35.4657534 45.8630137,35.3287671 45.9794521,35.109589 C47.2054795,32.6780822 48.4246575,30.239726 49.6369863,27.7945205 C49.760274,27.5479452 49.8835616,27.4589041 50.1849315,27.4726027 C52.0684932,27.5547945 53.6712329,25.9589041 53.6712329,24.0479452 C53.6712329,22.1438356 52.0479452,20.5273973 50.1780822,20.609589 C48.7739726,20.6712329 47.6986301,21.3287671 47.1164384,22.6164384 C46.5547945,23.8630137 46.6986301,25.0753425 47.5479452,26.1780822 C47.6849315,26.3561644 47.7465753,26.4863014 47.630137,26.7191781 C46.3835616,29.1849315 45.1438356,31.6643836 43.890411,34.130137 C43.8287671,34.2465753 43.6369863,34.369863 43.5068493,34.369863 C42.8493151,34.3630137 42.239726,34.4931507 41.6712329,34.8219178 C41.4863014,34.9315068 41.3767123,34.9041096 41.2123288,34.7808219 C40.0753425,33.9178082 38.9383562,33.0616438 37.7876712,32.2191781 C37.5410959,32.0342466 37.4589041,31.8767123 37.5273973,31.5547945 C38.0479452,29.1986301 35.8082192,27.0136986 33.4589041,27.5684932 C31.1643836,28.109589 30.0821918,30.5068493 31.1643836,32.609589 C31.2191781,32.7191781 31.2191781,32.9315068 31.1506849,33.0273973 C30.2671233,34.2328767 29.369863,35.4246575 28.4657534,36.609589 C28.390411,36.7054795 28.2054795,36.7534247 28.0753425,36.7534247 C27.6027397,36.760274 27.1232877,36.6712329 26.6643836,36.739726 C24.8082192,37.0205479 23.5547945,38.8972603 23.9178082,40.7876712 C24.2945205,42.6438356 26.2191781,43.8972603 28.0410959,43.4657534 Z M12.2534247,34.7808219 C15.9794521,36.0342466 19.4246575,34.6506849 21.2876712,32.6438356 C21.2739726,32.6232877 21.2671233,32.5958904 21.2465753,32.5753425 L19.0273973,30.6506849 C17.6369863,29.4452055 16.239726,28.2465753 14.8561644,27.0342466 C14.7260274,26.9178082 14.6164384,26.7465753 14.5616438,26.5753425 C13.9109589,24.5958904 13.2808219,22.6164384 12.6369863,20.6369863 C12.390411,19.8767123 12.1438356,19.1232877 11.890411,18.3424658 C8.91780822,19.4726027 6.31506849,22.5616438 6.30821918,26.5684932 C6.31506849,30.1917808 8.74657534,33.6027397 12.2534247,34.7808219 Z M15.8287671,26.5958904 C16.2123288,26.9246575 16.5890411,27.2534247 16.9657534,27.5821918 C18.1849315,28.6369863 19.4041096,29.6917808 20.630137,30.7465753 C21.0684932,31.130137 21.5136986,31.5068493 21.9520548,31.8835616 C25.5479452,27.2739726 23.5205479,21.2260274 19.6917808,19.1027397 C19.6712329,19.1232877 19.6506849,19.1369863 19.6369863,19.1575342 C18.3493151,21.5342466 17.0547945,23.9178082 15.760274,26.2945205 C15.6917808,26.4383562 15.7328767,26.5136986 15.8287671,26.5958904 Z M18.8219178,18.6164384 C17.3013699,17.7465753 14.5479452,17.5068493 12.8356164,18.0684932 C13.6164384,20.4863014 14.390411,22.8972603 15.1849315,25.3630137 C16.4246575,23.0753425 17.6232877,20.8424658 18.8219178,18.6164384 Z" transform="translate(0 .798)"/>
</svg>
