<svg xmlns="http://www.w3.org/2000/svg" width="90" height="73" viewBox="0 0 90 73">
  <path fill="#73328D" d="M421.797816,232.25 C422.701925,240.931507 429.462199,247.691781 437.712199,247.691781 C445.91083,247.691781 452.722473,240.931507 453.626583,232.25 C462.677953,230.90411 468.585487,224.205479 468.85261,223.835616 C470.393706,222.068493 470.239597,219.325342 468.482747,217.722603 C466.777268,216.109589 464.116309,216.273973 462.575213,218.041096 C462.523843,218.092466 458.424528,222.705479 452.465624,223.568493 C452.095761,222.55137 451.612884,221.534247 451.027268,220.619863 C451.027268,220.568493 448.951925,201.366438 448.951925,201.366438 C448.951925,200.667808 448.212199,200.082192 447.297816,200.082192 L426.801241,200.082192 C425.897131,200.082192 425.147131,200.678082 425.147131,201.366438 C425.147131,201.366438 423.657405,221.15411 423.975898,221.369863 C423.554665,222.068493 423.174528,222.818493 422.907405,223.568493 C417.051241,222.705479 412.951925,218.15411 412.849186,218.041096 C411.30809,216.273973 408.647131,216.109589 406.880008,217.722603 C405.174528,219.273973 405.020419,222.068493 406.561514,223.835616 C406.838912,224.205479 412.695076,230.914384 421.797816,232.25 Z M426.051241,221.739726 L449.311514,221.739726 C449.732747,222.386986 450.051241,223.023973 450.318364,223.722603 L425.044391,223.722603 C425.362884,223.023973 425.681378,222.386986 426.051241,221.739726 Z M451.551241,232.414384 C450.595761,239.873288 444.739597,245.606164 437.66083,245.606164 C430.633432,245.606164 424.828638,239.863014 423.821788,232.414384 L451.551241,232.414384 Z M399.708775,232.743151 C399.708775,236.174658 397.900556,239.174658 395.239597,240.787671 L395.239597,223.886986 L393.431378,223.886986 L393.431378,241.640411 C392.044391,242.020548 389.763569,242.071918 388.325213,241.640411 L388.325213,223.886986 L386.465624,223.886986 L386.465624,240.828767 C383.753295,239.277397 381.883432,236.215753 381.883432,232.732877 L381.883432,223.886986 L380.013569,223.886986 L380.013569,232.732877 C380.013569,238.630137 384.380008,243.407534 389.917679,243.890411 L389.917679,272.256849 L391.838912,272.256849 L391.838912,243.890411 C397.273843,243.356164 401.578638,238.578767 401.578638,232.732877 L401.578638,223.886986 L399.708775,223.886986 L399.708775,232.743151 Z M441.595761,249.304795 L441.338912,249.273973 C440.167679,249.140411 438.986172,249.047945 437.784117,249.047945 L437.712199,249.047945 L437.599186,249.058219 C436.427953,249.058219 435.287542,249.150685 434.157405,249.273973 L433.746446,249.325342 C421.130008,250.917808 410.630008,259.958904 406.150556,272.267123 L469.273843,272.267123 C464.784117,259.917808 454.243021,250.856164 441.595761,249.304795 Z" transform="translate(-380 -200)"/>
</svg>
