<svg xmlns="http://www.w3.org/2000/svg" width="96" height="86" viewBox="0 0 96 86">
  <path fill="#73328D" d="M186.568161,956.052506 C184.78406,951.006674 183.40494,945.741935 181.029787,940.980684 C172.744116,924.376506 160.780789,910.990276 144.745772,901.445884 C143.366651,900.624979 142.830326,899.738401 142.93978,898.151317 C143.08207,896.093581 142.972616,894.0249 142.972616,892 C141.03528,893.838828 139.502923,895.469693 137.784495,896.892596 C135.124761,899.103567 132.344629,901.172249 129.619223,903.306603 L126.6968,905.594192 L126.95949,906.032008 C131.797359,904.981249 136.635227,903.919545 141.899967,902.781223 C141.681059,906.305643 142.261165,909.786282 141.155679,912.632087 C133.920767,931.337783 124.562446,948.927047 111.920504,964.644648 C111.318507,965.388935 110.771237,966.18795 109.939386,967.315327 C135.847158,964.327231 161.240496,961.393863 186.841796,958.449549 C186.754233,957.51919 186.80896,956.731121 186.568161,956.052506 Z M143.169634,961.284409 L143.169634,903.448893 C147.39456,922.690913 149.693094,941.987661 143.169634,961.284409 Z M103,971.233781 C103.831851,973.105445 104.598029,974.59402 105.145299,976.159213 C105.637842,977.57117 106.502529,977.932369 107.914487,977.932369 C129.991367,977.888587 152.068247,977.746297 174.145128,977.998041 C179.420812,978.063713 183.711411,976.47663 187.750265,973.466644 C188.921423,972.591011 190.136363,971.770106 191.230904,970.795965 C194.350344,968.037723 197.152367,965.027737 198.772287,960.572958 C166.658471,964.152105 135.015307,967.676525 103,971.233781 Z" transform="translate(-103 -892)"/>
</svg>
