<svg xmlns="http://www.w3.org/2000/svg" width="60" height="51" viewBox="0 0 60 51">
  <path d="M58.8424658,38.5616438 C55.9246575,42.3630137 51.5,44.5410959 46.0068493,44.5410959 C40.7671233,44.5410959 34.8082192,42.6232877 28.2945205,38.8493151 C23.0547945,35.8082192 17.6438356,34.8424658 12.869863,33.9931507 C8.56849315,33.2191781 4.19863014,32.4246575 1.18493151,29.9383562 C0.506849315,29.3767123 0.0479452055,29.5479452 0.157534247,30.4178082 C1.5890411,41.9931507 15.9041096,36.6849315 29.6506849,44.6438356 C46.5068493,54.4178082 57.1164384,49.7191781 59.4657534,38.8150685 C59.6506849,37.9657534 59.369863,37.869863 58.8424658,38.5616438 Z M15.1164384,26.9520548 C19.6575342,27.6917808 24.8013699,28.5205479 29.9794521,31.2328767 C35.3767123,34.0684932 40.2260274,35.4931507 44.4041096,35.4931507 C48.1164384,35.4931507 51.1849315,34.3082192 53.260274,32.0616438 C55.2671233,29.890411 56.3287671,26.7808219 56.3287671,23.0684932 C56.3287671,11.8767123 44.3835616,2.76712329 29.6917808,2.76712329 C13.1575342,2.76712329 3.68490069,8.53424658 3.68490069,18.5890411 C3.67123288,25.1027397 8.2260274,25.8424658 15.1164384,26.9520548 Z M18.8630137,8.7739726 C23,8.7739726 26.3561644,11.3767123 26.3561644,14.5753425 C26.3561644,17.7808219 23,20.3767123 18.8630137,20.3767123 C14.7191781,20.3767123 11.3630137,17.7808219 11.3630137,14.5753425 C11.3630137,11.3767123 14.7191781,8.7739726 18.8630137,8.7739726 Z M29.6506849,36.5 C48.8493151,47.630137 59.9657534,39.9931507 59.9657534,25.7739726 C59.9657534,11.5616438 46.3972603,0.0410958904 29.6506849,0.0410958904 C12.9041096,0.0410958904 0.0342465753,6.04794521 0.0342465753,20.260274 C0.0342465753,34.4726027 15.1643836,28.1027397 29.6506849,36.5 Z M29.6849315,1.5 C45.0821918,1.5 57.5958904,11.1780822 57.5958904,23.0821918 C57.5958904,27.1232877 56.4178082,30.5273973 54.1849315,32.9383562 C51.8630137,35.4520548 48.4794521,36.7808219 44.3972603,36.7808219 C40.0068493,36.7808219 34.9589041,35.2945205 29.3835616,32.3767123 C24.3972603,29.760274 19.3561644,28.9452055 14.9109589,28.2260274 C7.92465753,27.0821918 2.40410959,26.1849315 2.40410959,18.5958904 C2.40410959,7.73287671 12.3493151,1.5 29.6849315,1.5 Z M22.5821918,14.5821918 C22.5821918,16.1712329 20.9178082,17.4589041 18.8630137,17.4589041 C16.8082192,17.4589041 15.1438356,16.1712329 15.1438356,14.5821918 C15.1438356,12.9931507 16.8082192,11.7054795 18.8630137,11.7054795 C20.9178082,11.7054795 22.5821918,12.9931507 22.5821918,14.5821918 Z" transform="translate(0 .39)"/>
</svg>
