<svg xmlns="http://www.w3.org/2000/svg" width="87" height="86" viewBox="0 0 87 86">
  <path fill="#73328D" d="M702.009632,887.215379 L702.009632,889.417225 C702.009632,890.292066 701.292066,890.999902 700.427055,890.999902 L617.582577,890.999902 C616.717566,891.009632 616,890.292066 616,889.427055 L616,806.582577 C616,805.717566 616.717566,805 617.582577,805 L619.784424,805 C620.659265,805 621.367001,805.717566 621.367001,806.582577 L621.367001,884.040394 C621.367001,884.915235 622.084567,885.622972 622.949578,885.622972 L700.407395,885.622972 C701.292066,885.632801 702.009632,886.340538 702.009632,887.215379 Z M634.271484,870.302734 C634.667082,870.577933 634.88208,870.483333 635.148679,870.139335 C635.664675,869.47714 658.913715,841.489558 659.403912,840.810162 C659.765109,840.302766 660.031708,840.311366 660.539104,840.646763 C665.613071,844.060941 670.712837,847.440718 675.795403,850.854896 C676.277,851.181693 676.491998,851.155894 676.784397,850.631297 C678.461385,847.638517 680.172774,844.662937 681.875563,841.678757 C685.25534,835.761996 688.652318,829.853835 692.014895,823.928474 C692.341693,823.360878 692.582492,823.257679 693.150088,823.618876 C694.164881,824.263872 695.231274,824.822868 696.271867,825.416264 C697.097462,825.889261 697.106062,825.889261 697.106062,824.969067 C697.080262,820.1015 697.054462,815.233932 697.028662,810.374964 C697.028662,810.194366 697.097462,809.987967 696.865263,809.772968 C692.307293,812.430351 687.740724,815.096333 683.027955,817.848315 C684.455546,818.665309 685.719737,819.430704 687.026929,820.1273 C687.594525,820.428298 687.628925,820.660496 687.310727,821.202292 C683.191354,828.366045 679.089181,835.546997 675.012808,842.73655 C674.668811,843.338546 674.453812,843.415945 673.851816,843.011748 C669.078848,839.795369 664.28008,836.61339 659.498511,833.422811 C659.145914,833.190613 658.879315,832.906815 658.466518,833.422811 C656.73793,835.546997 632.310697,865.022369 630.539109,867.120755 C630.255311,867.456153 630.255311,867.636752 630.642308,867.89475 C631.8721,868.668745 633.076092,869.46854 634.271484,870.302734 Z" transform="translate(-616 -805)"/>
</svg>
