<svg xmlns="http://www.w3.org/2000/svg" width="51" height="51" viewBox="0 0 51 51">
  <g fill="none" transform="translate(0 .5)">
    <path fill="#FF0079" d="M25.1373626,50 C28.6172161,50 31.8910256,49.3360806 34.9587912,48.0082418 C38.0265568,46.6804029 40.7051282,44.8946886 42.9945055,42.6510989 C45.2838828,40.4075092 47.0924908,37.7747253 48.4203297,34.7527473 C49.7481685,31.7307692 50.4120879,28.4798535 50.4120879,25 C50.4120879,21.6117216 49.7481685,18.3836996 48.4203297,15.3159341 C47.0924908,12.2481685 45.2838828,9.59249084 42.9945055,7.3489011 C40.7051282,5.10531136 38.0265568,3.31959707 34.9587912,1.99175824 C31.8910256,0.663919414 28.6172161,0 25.1373626,0 C21.6575092,0 18.3836996,0.663919414 15.3159341,1.99175824 C12.2481685,3.31959707 9.59249084,5.10531136 7.3489011,7.3489011 C5.10531136,9.59249084 3.31959707,12.2481685 1.99175824,15.3159341 C0.663919414,18.3836996 6.4659389e-13,21.6117216 6.4659389e-13,25 C6.4659389e-13,28.4798535 0.663919414,31.7307692 1.99175824,34.7527473 C3.31959707,37.7747253 5.10531136,40.4075092 7.3489011,42.6510989 C9.59249084,44.8946886 12.2481685,46.6804029 15.3159341,48.0082418 C18.3836996,49.3360806 21.6575092,50 25.1373626,50 Z"/>
    <path fill="#0C0A1D" d="M23.1479385,35.5029297 L23.1479385,31.2988281 L12.952626,31.2988281 L12.952626,27.109375 L19.85204,27.109375 L19.85204,22.9052734 L12.952626,22.9052734 L12.952626,18.7011719 L23.1479385,18.7011719 L23.1479385,14.4970703 L8.74852442,14.4970703 L8.74852442,35.5029297 L23.1479385,35.5029297 Z M35.3647354,35.5029297 C36.233876,35.5029297 37.0517471,35.3369141 37.8183486,35.0048828 C38.5849502,34.6728516 39.2538955,34.2211914 39.8251846,33.6499023 C40.3964736,33.0786133 40.8456924,32.4121094 41.1728408,31.6503906 C41.4999893,30.8886719 41.6635635,30.0732422 41.6635635,29.2041016 C41.6635635,28.3349609 41.4999893,27.5170898 41.1728408,26.7504883 C40.8456924,25.9838867 40.3964736,25.3149414 39.8251846,24.7436523 C39.2538955,24.1723633 38.5849502,23.7231445 37.8183486,23.3959961 C37.0517471,23.0688477 36.233876,22.9052734 35.3647354,22.9052734 L35.3647354,22.9052734 L31.1606338,22.9052734 C30.867665,22.9052734 30.5942275,22.8515625 30.3403213,22.7441406 C30.086415,22.6367188 29.8642471,22.487793 29.6738174,22.2973633 C29.4833877,22.1069336 29.3344619,21.8823242 29.22704,21.6235352 C29.1196182,21.3647461 29.0659072,21.0888672 29.0659072,20.7958984 C29.0659072,20.5029297 29.1196182,20.2294922 29.22704,19.9755859 C29.3344619,19.7216797 29.4833877,19.4995117 29.6738174,19.309082 C29.8642471,19.1186523 30.086415,18.9697266 30.3403213,18.8623047 C30.5942275,18.7548828 30.867665,18.7011719 31.1606338,18.7011719 L31.1606338,18.7011719 L40.7993057,18.7011719 L40.7993057,14.4970703 L31.1606338,14.4970703 C30.2914932,14.4970703 29.4760635,14.6630859 28.7143447,14.9951172 C27.952626,15.3271484 27.2861221,15.7788086 26.714833,16.3500977 C26.143544,16.9213867 25.6918838,17.5878906 25.3598525,18.3496094 C25.0278213,19.1113281 24.8618057,19.9267578 24.8618057,20.7958984 C24.8618057,21.6650391 25.0278213,22.4829102 25.3598525,23.2495117 C25.6918838,24.0161133 26.143544,24.6850586 26.714833,25.2563477 C27.2861221,25.8276367 27.952626,26.2792969 28.7143447,26.6113281 C29.4760635,26.9433594 30.2914932,27.109375 31.1606338,27.109375 L31.1606338,27.109375 L35.3647354,27.109375 C35.6577041,27.109375 35.9311416,27.1630859 36.1850479,27.2705078 C36.4389541,27.3779297 36.6611221,27.5268555 36.8515518,27.7172852 C37.0419815,27.9077148 37.1909072,28.1298828 37.2983291,28.3837891 C37.405751,28.6376953 37.4594619,28.9111328 37.4594619,29.2041016 C37.4594619,29.4970703 37.405751,29.7705078 37.2983291,30.0244141 C37.1909072,30.2783203 37.0419815,30.5004883 36.8515518,30.690918 C36.6611221,30.8813477 36.4389541,31.0302734 36.1850479,31.1376953 C35.9311416,31.2451172 35.6577041,31.2988281 35.3647354,31.2988281 L35.3647354,31.2988281 L26.0336807,31.2988281 L26.0336807,35.5029297 L35.3647354,35.5029297 Z"/>
  </g>
</svg>
