<svg xmlns="http://www.w3.org/2000/svg" width="73" height="80" viewBox="0 0 73 80">
  <path fill="#73328D" d="M166.018085,86.3713917 L166.018085,83.253306 C165.185986,83.6373517 164.75622,83.7927988 164.381318,84.0213975 C158.090283,87.9990142 154.496712,93.5768215 154.341265,101.138865 C154.313833,102.473881 154.295545,103.232829 152.4759,102.976799 C148.854897,102.473881 145.489925,103.552867 142.307832,105.299361 C140.93624,106.049165 140.753361,106.771536 141.448301,108.21628 C145.435061,116.610423 139.592079,125.864097 130.25611,125.498339 C126.196198,125.333748 123.507878,126.997946 120.993292,129.567395 C120.042322,130.536653 119.127927,130.874979 117.783767,130.884123 C110.240011,130.938987 104.515901,134.367967 100.446845,140.604138 C99.0752526,142.71639 99.2489876,142.935845 101.745285,142.935845 C122.319165,142.944989 142.8839,142.899269 163.45778,142.999927 C165.780342,143.008996 166.054661,142.176897 166.045731,140.220092 C165.981509,122.27967 166.018085,104.320959 166.018085,86.3713917 Z M130.402413,139.964062 C128.491328,140.000638 127.019153,138.601614 126.982577,136.717961 C126.946001,134.752012 128.271874,133.343845 130.201246,133.307269 C132.167195,133.270693 133.575363,134.596565 133.621082,136.516794 C133.675946,138.400447 132.24949,139.927486 130.402413,139.964062 Z M150.336217,134.7703 C148.169101,134.797732 146.532335,133.206686 146.495759,131.048714 C146.459183,128.799303 148.159957,127.089385 150.409368,127.125961 C152.549052,127.162537 154.149242,128.817591 154.149242,130.984707 C154.149242,133.106102 152.494188,134.742869 150.336217,134.7703 Z M154.414417,116.921317 C152.878234,117.012756 151.771816,116.235521 151.588937,114.589611 C151.625513,112.870549 152.613059,111.864714 154.112666,111.754987 C155.694569,111.64526 156.700403,112.64195 156.736979,114.306148 C156.791843,115.869763 155.895736,116.839021 154.414417,116.921317 Z M161.135217,96.2468539 C160.184247,96.1919902 159.571602,95.54277 159.571602,94.6009435 C159.562459,93.5402457 160.28483,92.8453058 161.308952,92.8544498 C162.333074,92.8635937 162.964007,93.5219579 163.000582,94.6283754 C162.817703,95.6799292 162.195915,96.3108615 161.135217,96.2468539 Z M144.063469,88.8402573 L144.484091,88.9408407 C147.885639,82.8418284 151.305475,76.761104 154.679591,70.6529477 C157.660518,65.2397314 157.623942,65.2488754 151.52493,63.1914874 C150.253921,62.7708659 149.74186,62.9994645 149.458398,64.3161928 C148.434276,69.1350526 147.327858,73.9356245 146.26716,78.7453404 C145.535645,82.1103127 144.804129,85.475285 144.063469,88.8402573 Z M134.07828,113.172299 C129.122261,112.029306 124.175386,110.831449 119.201079,109.752463 C115.28747,108.902076 115.305758,108.966083 115.141167,113.062571 C115.095447,114.168989 115.415485,114.589611 116.567622,114.507315 C122.392316,114.123269 128.21701,113.794087 134.041704,113.455761 L134.07828,113.172299 Z M130.502997,120.286289 C128.335881,120.377729 126.168766,120.441736 124.010795,120.560608 C122.310021,120.652047 122.319165,120.670335 122.712354,122.380253 C122.812938,122.83745 122.995817,122.983753 123.453014,122.810018 C125.803008,121.996207 128.153002,121.209828 130.521285,120.414304 C130.512141,120.368585 130.502997,120.322865 130.502997,120.286289 Z M124.861182,91.7206004 C123.315855,90.76963 121.825391,89.745508 120.417224,88.5842268 C119.877731,88.1361734 119.493685,88.2184689 118.999912,88.7945375 C114.190196,94.3266251 109.353048,99.8312809 104.515901,105.335937 C101.260656,109.048379 98.0328427,112.788253 94.750166,116.46412 C93.8357713,117.488242 93.6254605,118.228901 94.8690373,119.125008 C95.8748714,119.856524 96.7618342,120.75263 97.7036607,121.566442 C98.0328427,121.849904 98.3437369,122.169942 98.8283661,122.105935 C99.3038513,122.032783 99.53245,121.639593 99.8159123,121.319555 L121.349906,96.8137786 L124.852038,92.8270179 C125.190364,92.4521161 125.519546,92.1412219 124.861182,91.7206004 Z M143.560552,93.5493897 C138.723405,89.2974546 133.355908,85.7953231 127.851252,82.4760705 C122.648347,79.3396969 117.134547,77.0262784 111.337285,75.2432089 C109.609079,74.71286 108.493518,75.0237541 107.441964,76.4319219 C106.884183,77.1817255 106.765312,77.437756 107.707138,77.9315291 C113.787863,81.0953346 119.594269,84.7254814 125.144644,88.7305299 C129.835489,92.122934 134.434894,95.6250655 138.686829,99.5478186 C139.253753,100.069024 139.573792,100.215327 140.131572,99.5112428 C141.311141,98.0573553 142.58215,96.6857633 143.807439,95.2775956 C144.026893,95.030709 144.218916,94.7655346 144.401795,94.5369359 C144.310356,94.006587 143.871446,93.8237081 143.560552,93.5493897 Z M128.299306,79.7054547 C129.798913,80.5466978 131.307664,81.3787969 132.706688,82.3571992 C133.712522,83.0612831 134.03256,82.3023355 134.526333,81.7811306 C135.12069,81.1501983 135.175553,80.5741297 134.444038,79.9614852 C133.273612,78.973939 132.139763,77.949817 130.99677,76.9439829 C130.749883,76.7245282 130.502997,76.4776416 130.00008,76.5507932 C129.149693,76.8342555 128.729071,77.776082 128.043275,78.4161583 C127.47635,78.9465072 127.631797,79.3396969 128.299306,79.7054547 Z M161.775294,81.3422212 C163.210893,80.1352202 161.491831,79.7237426 161.016346,79.1293861 C160.595724,78.5990372 160.010512,77.5017636 159.114405,78.8367798 C157.111881,81.8177064 155.054493,84.7620571 153.024537,87.7246958 C153.152552,87.8709989 153.280567,88.0081581 153.417727,88.1453173 C156.197486,85.8776186 159.013822,83.6464957 161.775294,81.3422212 Z" transform="translate(-94 -63)"/>
</svg>
