<svg xmlns="http://www.w3.org/2000/svg" width="85" height="81" viewBox="0 0 85 81">
  <path fill="#73328D" d="M1024.54223,69.5590119 L1024.54223,125.120169 C1024.54223,128.778793 1027.34622,131.736422 1030.81279,131.736422 L1102.2952,131.736422 C1105.76177,131.736422 1108.56576,128.778793 1108.56576,125.120169 L1108.56576,69.5590119 L1024.54223,69.5590119 Z M1102.39123,119.291337 C1102.39123,122.412211 1100.00016,124.928115 1097.04253,124.928115 L1036.06546,124.928115 C1033.10783,124.928115 1030.71676,122.402608 1030.71676,119.291337 L1030.71676,82.4650256 L1102.39123,82.4650256 L1102.39123,119.291337 Z M1085.1352,144.911311 L1068.32089,128.961245 C1067.86956,128.529124 1067.26459,128.33707 1066.66923,128.375481 L1066.55399,128.365878 L1066.43876,128.375481 C1065.8434,128.33707 1065.23843,128.538726 1064.7871,128.961245 L1047.98239,144.920913 C1047.13736,145.717936 1047.13736,147.023902 1047.98239,147.820925 C1048.82743,148.617948 1050.19101,148.617948 1051.04565,147.820925 L1064.40299,135.135773 L1064.40299,147.504037 C1064.40299,148.637154 1065.37286,149.559012 1066.5636,149.559012 C1067.75433,149.559012 1068.7242,148.646756 1068.7242,147.504037 L1068.7242,135.135773 L1082.08154,147.820925 C1082.92658,148.617948 1084.29016,148.617948 1085.1448,147.820925 C1085.97063,147.014299 1085.97063,145.717936 1085.1352,144.911311 Z M1051.03605,103.581338 L1065.36326,101.689608 C1064.99836,99.298539 1063.96127,96.984291 1062.20398,94.9965344 C1057.19137,89.330948 1048.29928,88.591541 1042.32641,93.3448719 C1036.35354,98.0982029 1035.57572,106.548569 1040.58832,112.214155 C1045.54331,117.822126 1054.30096,118.599943 1060.26423,114.009858 L1051.03605,103.581338 Z M1071.30733,95.995214 L1096.04385,95.995214 L1096.04385,98.5495292 L1071.30733,98.5495292 L1071.30733,95.995214 Z M1071.33613,102.707493 L1096.07266,102.707493 L1096.07266,105.252206 L1071.33613,105.252206 L1071.33613,102.707493 Z M1071.33613,109.41017 L1087.08454,109.41017 L1087.08454,111.954883 L1071.33613,111.954883 L1071.33613,109.41017 Z" transform="translate(-1024 -69)"/>
</svg>
