<svg xmlns="http://www.w3.org/2000/svg" width="71" height="80" viewBox="0 0 71 80">
  <path fill="#73328D" d="M586.189242,112.744 L587.517242,114.072 C588.069242,114.624 588.965242,114.624 589.533242,114.072 C590.085242,113.52 590.085242,112.624 589.525242,112.064 L588.845242,111.384 C590.165242,111.608 591.597242,111.632 593.085242,111.56 C593.157242,111.632 593.213242,111.712 593.277242,111.776 C605.661242,124.16 625.709242,110.904 625.709242,110.904 L616.693242,101.888 C616.957242,101.648 617.285242,101.408 617.525242,101.168 L590.525242,74.176 C590.285242,74.416 590.053242,74.744 589.813242,75.008 L580.797242,66 C580.797242,66 567.533242,86.048 579.917242,98.432 C579.981242,98.496 580.069242,98.56 580.141242,98.624 C580.069242,100.104 580.085242,101.552 580.317242,102.872 C579.765242,102.336 578.877242,102.336 578.333242,102.872 C577.773242,103.432 577.773242,104.336 578.325242,104.888 L579.653242,106.208 L576.021242,108.68 C574.157242,107.992 572.357242,108.6 570.381242,110.576 C569.301242,111.656 568.325242,112.976 567.669242,114.36 L560.725242,119.08 L559.813242,118.16 L555.749242,122.24 L570.165242,136.664 L574.229242,132.6 L573.309242,131.68 L577.837242,125.024 L578.861242,125.432 L592.981242,145.984 L614.653242,146 L584.093242,115.824 L586.189242,112.744 Z M614.357242,103.752 L620.829242,110.232 C615.541242,112.864 604.861242,116.8 597.101242,111.072 C603.317242,109.896 609.861242,106.952 614.357242,103.752 Z M581.477242,70.872 L587.949242,77.344 C584.749242,81.848 581.805242,88.4 580.637242,94.6 C574.909242,86.848 578.845242,76.168 581.477242,70.872 Z" transform="translate(-555 -66)"/>
</svg>
