<svg xmlns="http://www.w3.org/2000/svg" width="51" height="52" viewBox="0 0 51 52">
  <g fill="none" transform="translate(0 .5)">
    <path fill="#FF0079" d="M25.1373626,50.9770508 C28.6172161,50.9770508 31.8910256,50.3131314 34.9587912,48.9852925 C38.0265568,47.6574537 40.7051282,45.8717394 42.9945055,43.6281497 C45.2838828,41.3845599 47.0924908,38.7517761 48.4203297,35.729798 C49.7481685,32.70782 50.4120879,29.4569043 50.4120879,25.9770508 C50.4120879,22.5887724 49.7481685,19.3607504 48.4203297,16.2929848 C47.0924908,13.2252193 45.2838828,10.5695416 42.9945055,8.32595188 C40.7051282,6.08236214 38.0265568,4.29664785 34.9587912,2.96880902 C31.8910256,1.6409702 28.6172161,0.977050781 25.1373626,0.977050781 C21.6575092,0.977050781 18.3836996,1.6409702 15.3159341,2.96880902 C12.2481685,4.29664785 9.59249084,6.08236214 7.3489011,8.32595188 C5.10531136,10.5695416 3.31959707,13.2252193 1.99175824,16.2929848 C0.663919414,19.3607504 0,22.5887724 0,25.9770508 C0,29.4569043 0.663919414,32.70782 1.99175824,35.729798 C3.31959707,38.7517761 5.10531136,41.3845599 7.3489011,43.6281497 C9.59249084,45.8717394 12.2481685,47.6574537 15.3159341,48.9852925 C18.3836996,50.3131314 21.6575092,50.9770508 25.1373626,50.9770508 Z"/>
    <path fill="#0C0A1D" d="M17.0981338,36.8242188 C18.3969619,36.8242188 19.6469619,36.6020508 20.8481338,36.1577148 C22.0493057,35.7133789 23.1381729,35.0761719 24.1147354,34.2460938 L24.1147354,34.2460938 L24.1147354,25.9550781 L20.0571182,25.9550781 L20.0571182,31.9316406 C19.6078994,32.15625 19.1342666,32.3320312 18.6362197,32.4589844 C18.1381729,32.5859375 17.6254775,32.6494141 17.0981338,32.6494141 C16.180165,32.6494141 15.3183486,32.4736328 14.5126846,32.1220703 C13.7070205,31.7705078 13.0014541,31.2919922 12.3959854,30.6865234 C11.7905166,30.0810547 11.312001,29.3730469 10.9604385,28.5625 C10.608876,27.7519531 10.4330947,26.8828125 10.4330947,25.9550781 C10.4330947,25.0371094 10.608876,24.175293 10.9604385,23.3696289 C11.312001,22.5639648 11.7905166,21.8608398 12.3959854,21.2602539 C13.0014541,20.659668 13.7070205,20.1835938 14.5126846,19.8320312 C15.3183486,19.4804688 16.180165,19.3046875 17.0981338,19.3046875 C18.0161025,19.3046875 18.890126,19.487793 19.7202041,19.8540039 C20.5502822,20.2202148 21.2827041,20.7255859 21.9174697,21.3701172 L21.9174697,21.3701172 L24.1147354,17.7080078 C23.1381729,16.8779297 22.0493057,16.2407227 20.8481338,15.7963867 C19.6469619,15.3520508 18.3969619,15.1298828 17.0981338,15.1298828 C16.10204,15.1298828 15.1425674,15.2592773 14.2197158,15.5180664 C13.2968643,15.7768555 12.4350479,16.140625 11.6342666,16.609375 C10.8334854,17.078125 10.1010635,17.6420898 9.43700099,18.3012695 C8.77293849,18.9604492 8.20653224,19.6928711 7.73778224,20.4985352 C7.26903224,21.3041992 6.90526271,22.1660156 6.64647364,23.0839844 C6.38768458,24.0019531 6.25829005,24.9589844 6.25829005,25.9550781 C6.25829005,26.9511719 6.38768458,27.9130859 6.64647364,28.8408203 C6.90526271,29.7685547 7.26903224,30.6352539 7.73778224,31.440918 C8.20653224,32.246582 8.77293849,32.9790039 9.43700099,33.6381836 C10.1010635,34.2973633 10.8334854,34.8637695 11.6342666,35.3374023 C12.4350479,35.8110352 13.2968643,36.1772461 14.2197158,36.4360352 C15.1425674,36.6948242 16.10204,36.8242188 17.0981338,36.8242188 Z M31.5561416,36.3701172 L31.5561416,32.1660156 L35.7602432,32.1660156 C36.9125869,32.1660156 37.9990127,31.9462891 39.0195205,31.5068359 C40.0400283,31.0673828 40.9311416,30.4667969 41.6928604,29.7050781 C42.4545791,28.9433594 43.055165,28.0522461 43.4946182,27.0317383 C43.9340713,26.0112305 44.1537979,24.9248047 44.1537979,23.7724609 C44.1537979,23.0009766 44.0537002,22.2587891 43.8535049,21.5458984 C43.6533096,20.8330078 43.3701065,20.1640625 43.0038955,19.5390625 C42.6376846,18.9140625 42.1982315,18.3452148 41.6855361,17.8325195 C41.1728408,17.3198242 40.6064346,16.8803711 39.9863174,16.5141602 C39.3662002,16.1479492 38.6996963,15.8647461 37.9868057,15.6645508 C37.273915,15.4643555 36.5317275,15.3642578 35.7602432,15.3642578 L35.7602432,15.3642578 L27.35204,15.3642578 L27.35204,36.3701172 L31.5561416,36.3701172 Z M35.7602432,27.9765625 L31.5561416,27.9765625 L31.5561416,19.5683594 L35.7602432,19.5683594 C36.336415,19.5683594 36.8784072,19.6782227 37.3862197,19.8979492 C37.8940322,20.1176758 38.3383682,20.4179688 38.7192275,20.7988281 C39.1000869,21.1796875 39.4003799,21.6264648 39.6201065,22.1391602 C39.839833,22.6518555 39.9496963,23.1962891 39.9496963,23.7724609 C39.9496963,24.3486328 39.839833,24.8930664 39.6201065,25.4057617 C39.4003799,25.918457 39.1000869,26.3652344 38.7192275,26.7460938 C38.3383682,27.1269531 37.8940322,27.4272461 37.3862197,27.6469727 C36.8784072,27.8666992 36.336415,27.9765625 35.7602432,27.9765625 L35.7602432,27.9765625 Z"/>
  </g>
</svg>
