<svg xmlns="http://www.w3.org/2000/svg" width="95" height="81" viewBox="0 0 95 81">
  <path fill="#73328D" d="M925.003174,137.974399 C935.358392,136.79156 945.670598,135.028054 956.165607,135.576461 C957.101125,135.619474 958.273211,135.974325 958.262531,134.243079 C958.251705,132.834425 958.219446,131.90966 956.369915,131.565561 C948.401881,130.103142 940.476859,128.404155 932.530331,126.844958 C931.379752,126.619143 930.594777,126.124502 929.928086,125.156724 C926.659148,120.457627 923.31494,115.812296 920.024497,111.134705 C918.357769,108.769027 916.110375,107.510916 913.239302,107.446397 C910.561784,107.392632 907.873513,107.360373 905.195996,107.457151 C900.486146,107.6292 897.313986,110.801359 897.29248,115.511209 C897.227962,126.242786 897.29248,136.974362 897.238509,147.705938 C897.227962,149.125345 897.636579,149.555468 899.066739,149.544911 C905.443317,149.469444 911.830648,149.512456 918.207226,149.512456 C920.895496,149.512456 920.927755,149.512456 920.293324,146.867198 C919.056719,141.673459 917.777102,136.490473 916.518992,131.307487 C916.637276,131.242969 916.755559,131.17845 916.86309,131.113932 L921.809508,136.748547 C922.659002,137.737831 923.551508,138.135695 925.003174,137.974399 Z M914.938289,105.446324 C924.562297,105.349546 932.992714,98.1879934 932.938949,87.8650343 C933.315307,78.3485563 925.594593,69.7783495 915.422177,69.5632879 C905.679885,69.3482262 897.46453,77.273248 897.260221,87.0800592 C897.055912,97.1879568 904.884156,105.543102 914.938289,105.446324 Z M991.263668,117.027394 L991.263668,86.7789729 C991.263668,83.9509122 990.74752,83.5745544 988.102262,84.1337146 C983.005301,85.2090229 977.886833,86.2413188 972.789872,87.3273801 C963.2949,89.3382066 953.810682,91.3597861 944.31571,93.3921187 C942.896303,93.693205 941.777982,94.1663406 941.788735,96.0266239 C941.799489,105.306534 941.73497,114.597197 941.648945,123.887861 C941.638192,125.113712 941.939279,125.963205 943.218895,125.898687 C944.509265,125.834168 943.928599,124.683589 943.928599,124.049157 C943.960858,119.285541 943.960858,114.521926 943.960858,109.75831 L943.960858,97.7256109 C944.025377,97.5213023 944.100648,97.3384999 944.208179,97.1556975 L944.240438,97.1019321 L985.274201,89.3812189 C985.951645,89.4457374 986.231225,89.8973668 986.220472,91.090959 C986.145201,104.220473 986.155954,117.360739 986.209719,130.490253 C986.220472,131.984932 985.790349,132.46882 984.284917,132.522586 C977.187883,132.759154 970.080095,133.135511 962.983061,133.425845 C961.983024,133.468857 961.144284,133.393585 961.144284,134.845252 C961.144284,136.458214 962.219592,136.06035 963.079839,136.06035 C969.026293,136.071103 974.983501,136.124868 980.929956,136.028091 C982.564424,135.995831 982.833251,136.7593 982.510659,137.985152 C982.209573,139.103472 981.166524,138.565818 980.467573,138.587324 C966.04769,139.006694 951.595547,137.705572 937.207922,139.501336 C932.680875,140.07125 928.143074,140.565891 923.59452,141.071286 C922.476199,141.200323 921.970804,141.447644 922.30415,142.824039 C923.31494,146.974729 923.239668,146.996235 927.519395,147.404852 L928.809765,147.587654 C934.562664,148.232839 940.315563,149.308148 946.089968,149.415678 C960.380815,149.684505 974.671662,149.480197 988.973261,149.544715 C990.74752,149.555468 991.317433,149.114592 991.29651,147.275815 C991.209903,137.200177 991.263668,127.113785 991.263668,117.027394 L991.263668,117.027394 Z M984.844078,89.3812189 C985.005374,89.3704658 985.145164,89.3704658 985.274201,89.3812189 L984.844078,89.3812189 Z M927.43337,145.308001 C926.626889,144.963902 925.003174,145.93168 925.175223,144.006878 C925.379532,141.770237 927.250568,142.996088 928.347382,142.673496 C929.508715,142.329397 929.766789,143.082113 929.766789,144.125162 C929.766789,146.146741 928.30437,145.049927 927.43337,145.308001 Z M940.122008,145.856408 C939.347786,145.716618 938.541305,145.834902 937.745576,145.834902 L937.745576,145.609087 C936.874577,145.609087 936.003577,145.566075 935.143331,145.61984 C934.057269,145.684359 933.412084,145.501556 933.412084,144.135915 C933.412084,142.834792 933.777689,142.318644 935.111071,142.329397 C936.842318,142.350903 938.59507,142.297138 940.315563,142.103582 C942.218859,141.910027 941.681205,143.200397 941.777982,144.18968 C941.907019,145.447791 941.584427,146.125235 940.122008,145.856408 Z M953.8752,113.62942 C953.853694,113.726198 953.821435,113.790716 953.703151,113.812222 C952.939682,113.930506 952.16546,114.059543 951.401991,114.18858 L951.401991,116.253172 L953.59562,116.640283 C953.756916,116.672542 953.832188,116.726308 953.8752,116.887604 C953.993484,117.32848 954.165533,117.758604 954.402101,118.145715 C954.488126,118.274751 954.46662,118.371529 954.380595,118.489813 L953.17625,120.156541 C953.090225,120.264072 953.090225,120.339343 953.197756,120.436121 C953.606373,120.823232 954.004237,121.231849 954.391348,121.629713 C954.498879,121.737244 954.563397,121.726491 954.670928,121.651219 L956.359162,120.46838 C956.477446,120.382356 956.574224,120.360849 956.703261,120.446874 C957.101125,120.683442 957.520495,120.855491 957.972125,120.963022 C958.111915,120.995281 958.176433,121.0598 958.208692,121.221096 C958.316223,121.952306 958.456013,122.683515 958.574297,123.414725 L960.638889,123.414725 C960.767926,122.683515 960.896963,121.952306 961.015247,121.221096 C961.036753,121.0598 961.101272,120.995281 961.251815,120.963022 C961.681938,120.855491 962.090555,120.683442 962.466913,120.457627 C962.628209,120.360849 962.73574,120.360849 962.87553,120.479133 C963.413184,120.876997 963.972345,121.253355 964.520752,121.640466 C964.649789,121.737244 964.735813,121.75875 964.86485,121.61896 C965.241208,121.231849 965.617566,120.844738 966.004677,120.479133 C966.133714,120.350096 966.122961,120.274825 966.026183,120.135035 C965.617566,119.586628 965.230455,119.027467 964.832591,118.489813 C964.746567,118.371529 964.714307,118.285505 964.800332,118.145715 C965.0369,117.74785 965.208949,117.32848 965.31648,116.876851 C965.359492,116.715555 965.445517,116.672542 965.585307,116.651036 L967.61764,116.306937 C967.789689,116.274678 967.821948,116.199407 967.821948,116.048863 C967.811195,115.532715 967.800442,115.016568 967.821948,114.50042 C967.832701,114.263852 967.746677,114.18858 967.531615,114.167074 L965.59606,113.865988 C965.445517,113.844482 965.359492,113.790716 965.31648,113.618667 C965.208949,113.17779 965.0369,112.75842 964.800332,112.382062 C964.72506,112.253025 964.735813,112.156248 964.821838,112.037964 C965.230455,111.46805 965.617566,110.898137 966.026183,110.338977 C966.112208,110.20994 966.112208,110.145421 965.993924,110.03789 C965.59606,109.661532 965.208949,109.263668 964.832591,108.876557 C964.714307,108.758274 964.639036,108.758274 964.509999,108.855051 L962.843271,110.059396 C962.73574,110.145421 962.638962,110.166927 962.520678,110.091656 C962.122814,109.855088 961.692691,109.672286 961.241062,109.554002 C961.101272,109.521742 961.047506,109.446471 961.026,109.306681 L960.692654,107.328114 C960.660395,107.145311 960.617383,107.048533 960.391568,107.059286 C959.87542,107.080793 959.337766,107.080793 958.821618,107.059286 C958.628063,107.048533 958.574297,107.134558 958.552791,107.306607 L958.251705,109.242162 C958.230199,109.414212 958.176433,109.521742 957.993631,109.564755 C957.542001,109.672286 957.122631,109.855088 956.724767,110.080903 C956.606483,110.156174 956.531212,110.134668 956.412928,110.059396 C955.853767,109.650779 955.273101,109.252915 954.724694,108.844298 C954.60641,108.758274 954.541891,108.758274 954.43436,108.865804 C954.04725,109.263668 953.649385,109.661532 953.251521,110.048643 C953.143991,110.156174 953.143991,110.231446 953.230015,110.360483 C953.627879,110.919643 954.025743,111.489556 954.412854,112.048717 C954.488126,112.156248 954.509632,112.231519 954.445114,112.360556 C954.18704,112.715408 954.004237,113.167037 953.8752,113.62942 Z M959.649605,112.371309 C961.230309,112.392815 962.499172,113.672432 962.499172,115.242382 C962.488419,116.833838 961.198049,118.124208 959.617346,118.102702 C958.036643,118.081196 956.767779,116.801579 956.767779,115.231629 C956.767779,113.650926 958.079655,112.349803 959.649605,112.371309 Z M965.617566,105.338793 L964.380962,106.091509 C964.241172,106.166781 964.198159,106.242052 964.273431,106.403348 C964.434727,106.747447 964.574517,107.113052 964.714307,107.467904 C964.778826,107.639953 964.86485,107.661459 965.026147,107.618447 L966.413294,107.306607 C966.563838,107.274348 966.671368,107.285101 966.768146,107.424891 C966.961702,107.693718 967.198269,107.919533 967.456343,108.113089 C967.553121,108.18836 967.58538,108.252879 967.553121,108.381916 C967.434837,108.865804 967.327306,109.349693 967.198269,109.833582 C967.155257,110.005631 967.198269,110.080903 967.359566,110.145421 C967.714417,110.285211 968.080022,110.425001 968.424121,110.586298 C968.574664,110.650816 968.639182,110.607804 968.714454,110.48952 L969.520935,109.231409 C969.596207,109.113125 969.671478,109.05936 969.822021,109.091619 C970.144614,109.145384 970.47796,109.145384 970.800552,109.091619 C970.940342,109.070113 971.004861,109.102372 971.080132,109.220656 L971.886613,110.511026 C971.961885,110.640063 972.037156,110.672322 972.176947,110.607804 C972.531798,110.446507 972.897403,110.295964 973.263008,110.156174 C973.381292,110.113162 973.44581,110.059396 973.402798,109.908853 L973.047946,108.424928 C973.015687,108.285138 973.037193,108.199113 973.155477,108.113089 C973.413551,107.919533 973.650119,107.682965 973.843674,107.424891 C973.929699,107.31736 974.004971,107.295854 974.134008,107.328114 C974.628649,107.446397 975.123291,107.543175 975.617933,107.672212 C975.779229,107.715225 975.832995,107.661459 975.88676,107.521669 C976.02655,107.166817 976.177093,106.801212 976.338389,106.457114 C976.413661,106.306571 976.381402,106.231299 976.241612,106.145274 C975.811488,105.8872 975.392118,105.618373 974.972748,105.360299 C974.865217,105.295781 974.811452,105.231262 974.832958,105.091472 C974.87597,104.76888 974.87597,104.435534 974.843711,104.112942 C974.832958,103.973152 974.854464,103.887127 974.983501,103.811856 C975.413624,103.553782 975.843748,103.274201 976.273871,103.005374 C976.402908,102.930103 976.413661,102.865584 976.359896,102.736547 C976.198599,102.370943 976.048056,102.005338 975.908266,101.62898 C975.854501,101.48919 975.789982,101.467684 975.650192,101.499943 L974.198526,101.844041 C974.058736,101.876301 973.972711,101.865548 973.886687,101.747264 C973.682378,101.478437 973.44581,101.241869 973.176983,101.03756 C973.080205,100.962289 973.058699,100.887017 973.080205,100.768733 L973.424304,99.2848078 C973.456563,99.1450178 973.435057,99.0697462 973.284514,99.0052277 C972.908156,98.8654376 972.542551,98.7041414 972.176947,98.5428452 C972.058663,98.4890797 971.994144,98.5105859 971.929626,98.6288698 L971.144651,99.9084866 C971.069379,100.037524 970.972601,100.080536 970.832811,100.069783 C970.510219,100.026771 970.176873,100.016017 969.854281,100.069783 C969.714491,100.091289 969.649972,100.037524 969.585454,99.9192397 C969.338133,99.4998695 969.058553,99.0912524 968.811232,98.6611291 C968.714454,98.4998328 968.639182,98.4890797 968.488639,98.5643513 C968.166047,98.7148945 967.832701,98.8546845 967.488603,98.9729685 C967.295047,99.0374869 967.252035,99.1235116 967.295047,99.3278202 C967.413331,99.822462 967.510109,100.317104 967.628393,100.865511 C967.649899,100.919276 967.553121,100.973042 967.488603,101.026807 C967.241282,101.220363 967.004714,101.446177 966.811158,101.693498 C966.714381,101.833288 966.60685,101.854795 966.456307,101.811782 C965.983171,101.693498 965.499282,101.596721 965.026147,101.467684 C964.875604,101.424671 964.821838,101.467684 964.778826,101.596721 C964.628283,101.962325 964.488493,102.32793 964.327196,102.682782 C964.251925,102.844078 964.294937,102.908597 964.434727,102.994621 C964.854097,103.252695 965.262715,103.521522 965.671332,103.790349 C965.778862,103.865621 965.821875,103.930139 965.811122,104.06993 C965.778862,104.392522 965.768109,104.725868 965.811122,105.04846 C965.789616,105.166744 965.746603,105.263522 965.617566,105.338793 Z M970.338169,102.381696 C971.542515,102.403202 972.521045,103.392485 972.499539,104.586078 C972.46728,105.822682 971.521009,106.7582 970.295157,106.747447 C969.080059,106.747447 968.101528,105.736657 968.123034,104.553818 C968.133788,103.33872 969.133824,102.360189 970.338169,102.381696 Z" transform="translate(-897 -69)"/>
</svg>
