<svg xmlns="http://www.w3.org/2000/svg" width="51" height="52" viewBox="0 0 51 52">
  <g fill="none" transform="translate(0 .977)">
    <path fill="#FF0079" d="M25.1373626,50.2614746 C28.6172161,50.2614746 31.8910256,49.5975552 34.9587912,48.2697164 C38.0265568,46.9418775 40.7051282,45.1561633 42.9945055,42.9125735 C45.2838828,40.6689838 47.0924908,38.0361999 48.4203297,35.0142219 C49.7481685,31.9922438 50.4120879,28.7413281 50.4120879,25.2614746 C50.4120879,21.8731962 49.7481685,18.6451742 48.4203297,15.5774087 C47.0924908,12.5096431 45.2838828,9.85396545 42.9945055,7.61037571 C40.7051282,5.36678596 38.0265568,3.58107168 34.9587912,2.25323285 C31.8910256,0.925394023 28.6172161,0.261474609 25.1373626,0.261474609 C21.6575092,0.261474609 18.3836996,0.925394023 15.3159341,2.25323285 C12.2481685,3.58107168 9.59249084,5.36678596 7.3489011,7.61037571 C5.10531136,9.85396545 3.31959707,12.5096431 1.99175824,15.5774087 C0.663919414,18.6451742 0,21.8731962 0,25.2614746 C0,28.7413281 0.663919414,31.9922438 1.99175824,35.0142219 C3.31959707,38.0361999 5.10531136,40.6689838 7.3489011,42.9125735 C9.59249084,45.1561633 12.2481685,46.9418775 15.3159341,48.2697164 C18.3836996,49.5975552 21.6575092,50.2614746 25.1373626,50.2614746 Z"/>
    <path fill="#0C0A1D" d="M28.8315322,35.7644043 L28.8315322,31.5603027 L18.6362197,31.5603027 L18.6362197,27.3708496 L25.5356338,27.3708496 L25.5356338,23.166748 L18.6362197,23.166748 L18.6362197,18.9626465 L28.8315322,18.9626465 L28.8315322,14.7585449 L14.4321182,14.7585449 L14.4321182,35.7644043 L28.8315322,35.7644043 Z M35.9799697,35.7644043 L35.9799697,14.7585449 L31.7758682,14.7585449 L31.7758682,35.7644043 L35.9799697,35.7644043 Z"/>
  </g>
</svg>
