<svg xmlns="http://www.w3.org/2000/svg" width="69" height="81" viewBox="0 0 69 81">
  <path fill="#73328D" d="M111.044156,352.971729 C111.062441,353.447144 111.071584,353.959128 111.610997,354.14198 C112.141267,354.324832 112.598396,353.995699 112.735535,353.565997 C113.348088,351.618626 114.902328,350.676939 116.648563,349.890677 C115.076038,349.991245 113.649794,350.439232 112.287548,351.106641 C111.537856,351.463202 111.016728,352.048328 111.044156,352.971729 Z M107.643113,341.854341 C107.387121,341.269216 106.765425,341.241788 106.235155,341.433782 C105.659172,341.644062 105.51289,342.174332 105.503748,342.741173 C105.47632,343.746857 106.04316,344.405124 106.856851,344.81654 C109.389348,346.08736 112.031556,347.019904 114.911471,347.056474 C115.551452,347.065617 116.282859,347.221041 116.867985,346.187928 C112.79039,346.553632 109.407633,345.858795 107.643113,341.854341 Z M113.485227,349.031273 C114.30806,349.031273 115.213176,349.250695 116.264574,347.861022 C112.936672,348.583287 110.093327,347.851879 107.249982,348.190155 C105.869451,348.354722 104.854624,348.98556 104.360924,350.302093 C104.16893,350.814078 104.2055,351.380919 104.763198,351.710052 C105.238612,351.993472 105.72317,351.828905 106.015732,351.454059 C107.963104,348.967275 110.715023,349.031273 113.485227,349.031273 Z M171.878939,316.968216 C172.454922,314.234582 173.213757,311.455235 172.363497,308.630175 C171.888082,307.030222 171.065249,305.594836 169.346442,305.146849 C167.57278,304.680577 166.22882,305.695404 165.149994,306.966224 C163.394617,309.023307 162.535214,311.491805 162.315792,314.143156 C161.474674,324.565707 160.743267,335.006543 159.865578,345.429094 C159.472447,350.164954 158.869036,354.88253 158.357051,359.618391 C158.201627,361.13606 157.616501,361.62976 156.016548,361.008064 C153.356055,359.965809 150.640706,358.758987 147.678508,359.188689 C145.475144,359.499537 143.27178,359.536107 141.059274,359.590963 C139.514176,359.590963 137.969079,359.636676 136.423982,359.572678 C134.796601,359.50868 133.964625,358.320143 133.352072,357.021896 C132.867515,355.970498 133.324644,355.083667 134.147477,354.333975 C139.10276,349.76268 141.562116,344.103418 141.342694,337.347045 C141.315266,336.55164 141.552974,336.103653 142.311808,335.884231 C145.539142,334.915117 147.001956,331.386078 146.782534,328.341596 C146.444258,323.58745 141.461548,320.97267 136.862826,323.048037 C136.222845,323.331457 135.774858,323.779444 134.93374,323.139463 C130.371588,319.683565 121.603846,319.582996 116.950268,322.910898 C116.100007,323.514309 115.322887,323.660591 114.362916,323.660591 C110.404175,323.651448 107.707111,326.147375 107.624828,329.84098 C107.542545,333.927717 109.919618,336.679636 113.860073,336.963057 C115.624593,337.091053 116.895413,337.82246 117.599392,339.495554 C118.074807,340.601807 118.568506,341.717203 119.409624,342.604034 C122.600388,345.959364 122.545532,349.616399 120.52502,353.511142 C118.961638,356.546481 120.113604,358.502995 123.578645,358.713274 C125.553444,358.832128 127.418532,358.347571 129.237907,357.607021 C129.649324,357.442455 130.27102,356.96704 130.700721,357.46074 C131.075567,357.899584 130.80129,358.48471 130.581868,358.97841 C130.417301,359.33497 130.335018,359.782957 130.079025,360.048092 C128.405931,361.739471 128.195652,363.814839 128.424217,366.027345 C128.643639,368.102713 128.22308,369.958658 126.888262,371.677465 C125.516874,373.441984 125.004889,375.435069 125.992288,377.693288 C126.91569,379.805226 126.485988,380.655487 124.364907,381.652029 C123.459791,382.072588 122.463249,382.346865 121.951264,383.334265 C121.667844,383.873678 121.475849,384.330807 122.32611,384.513659 C124.300909,384.915933 128.735065,382.054303 129.265335,380.015505 C129.466472,379.247528 129.539612,378.278414 130.508727,378.150417 C131.496126,378.022421 131.788689,378.945823 132.154393,379.649802 C132.373815,380.061218 132.547524,380.500063 132.702948,380.938907 C133.726918,383.718254 136.039993,384.605085 138.673058,384.961646 C139.157615,385.025644 139.834167,385.199353 140.081017,384.550229 C140.355295,383.818822 139.706171,383.489689 139.239899,383.133128 C138.974764,382.931991 138.682201,382.776567 138.380495,382.602858 C135.930282,381.222327 135.061736,379.018963 135.244588,376.349327 C135.363441,374.511667 136.387411,373.405414 138.252499,373.140279 C139.962163,372.902572 141.562116,373.414557 143.171212,373.880829 C145.950559,374.703662 148.803046,375.352785 151.664676,374.584808 C153.383483,374.118536 153.86804,375.142506 154.636018,376.203046 C155.504563,377.38244 154.736586,378.104704 154.069177,378.799541 C153.529764,379.366382 152.743502,379.695515 152.130948,380.2075 C151.116121,381.066903 150.832701,382.08173 151.801815,383.160556 C152.789215,384.266809 155.91598,384.62337 157.296511,383.827965 C158.905606,382.904563 158.219912,381.560603 157.973062,380.262355 C157.6805,378.616689 157.479363,377.181303 159.344451,375.965339 C161.218681,374.740232 160.971831,373.597408 159.02446,372.546011 C158.585616,372.308303 158.082773,372.216878 158.338766,371.604324 C158.521618,371.147195 158.521618,370.516356 159.207312,370.379217 C159.80158,370.260364 160.386706,370.132367 160.962689,369.949516 C162.34322,369.510671 163.321477,368.642125 163.467758,367.124456 C163.623182,365.561073 162.992343,364.253683 161.502101,363.741698 C160.030145,363.238856 160.61527,362.397738 160.82555,361.538334 C164.482585,346.663343 168.724746,331.952918 171.878939,316.968216 Z M138.965621,326.037609 C141.242126,326.055949 143.792908,328.25017 143.719767,330.142686 C143.655769,331.706068 141.982675,333.187168 140.263869,333.205453 C138.069647,333.232881 135.866284,331.102657 135.902854,329.018147 C135.939424,327.162202 137.109676,326.028521 138.965621,326.037609 Z M118.623362,330.29811 C118.550221,331.998631 116.813129,333.315164 114.710334,333.269451 C112.324118,333.214595 110.623597,331.843207 110.623597,329.996404 C110.623597,327.994177 112.314976,326.467365 114.490912,326.494793 C116.785702,326.513078 118.705645,328.28674 118.623362,330.29811 Z M129.676751,355.979641 C127.97623,357.159034 126.074571,357.735017 123.990061,357.488168 C121.658701,357.223033 120.909009,355.751076 121.996977,353.666566 C122.088403,353.492856 122.152401,353.273434 122.298682,353.145438 C125.370592,350.292951 124.703183,347.248469 122.838095,344.094276 C121.978692,342.658889 121.338711,341.086364 121.439279,339.349272 C121.612988,336.432787 123.679213,333.909432 126.266566,333.370019 C129.53047,332.684325 132.245819,333.845434 133.781773,336.633923 C135.034308,338.919571 135.454867,341.406355 135.381726,344.011992 C135.244588,348.830136 133.864057,353.072297 129.676751,355.979641 Z M155.7057,369.419245 C157.022233,370.516356 156.821096,371.48547 156.153687,372.911714 C155.184573,371.439758 154.215459,371.896887 152.84407,372.308303 C149.104752,373.423699 145.420288,372.866001 142.156384,370.571212 C140.629572,369.492386 139.230756,368.230709 137.758799,367.060458 C135.939424,365.615929 135.99428,364.20797 138.033077,363.247998 C140.565574,362.059462 143.27178,360.386368 146.041985,361.620618 C148.629337,362.772584 151.024695,362.708586 153.612048,362.297169 C154.85544,362.105175 155.934265,362.224028 155.888552,363.933692 C155.870267,364.601101 156.647387,364.820524 156.921665,365.359936 C154.626875,366.00906 153.950323,367.974717 155.7057,369.419245 Z M131.33156,337.584753 C131.102995,337.868173 130.810432,338.270447 130.34416,338.041882 C129.969314,337.868173 130.06074,337.465899 130.106453,337.155051 C130.362445,335.308248 129.457329,334.448845 127.711095,334.567698 C125.873434,334.704837 125.425448,335.920802 125.772866,337.57561 C125.827722,337.831603 125.919147,338.10588 125.882577,338.361873 C125.836864,338.745861 125.754581,339.193848 125.279166,339.285274 C124.86775,339.358415 124.712326,338.992711 124.547759,338.709291 C124.364907,338.380158 124.355765,337.78589 123.834637,337.932171 C123.359223,338.06931 123.249512,338.59958 123.222084,339.084137 C123.075802,340.976653 123.020947,342.951452 124.099772,344.551405 C126.220853,347.714741 127.007115,350.603799 123.38665,353.218579 C123.340938,353.255149 123.304367,353.319147 123.276939,353.374003 C122.984377,353.89513 122.545532,354.452828 123.267797,354.937385 C123.816352,355.312232 124.703183,355.842502 125.087172,355.293946 C125.96486,354.041412 126.495131,352.779735 127.802521,354.946528 C128.058513,355.357945 128.680209,354.580824 129.045913,354.233406 C132.63895,350.932932 133.388642,346.562774 133.681205,341.799486 C133.562351,340.738946 133.480068,339.458983 133.260646,338.206449 C133.032081,336.935629 132.565809,336.039655 131.33156,337.584753 Z M116.255431,329.045575 C116.036009,328.917579 115.734304,328.972434 115.469169,328.963292 C114.417771,328.945007 113.896644,329.502705 113.850931,330.526674 C113.823503,331.404363 114.353773,331.934633 115.130893,332.026059 C116.127435,332.144913 116.447426,331.340365 116.63942,330.526674 C116.703418,330.270682 116.776559,329.987262 116.703418,329.731269 C116.63942,329.466134 116.483996,329.191857 116.255431,329.045575 Z M139.6696,331.943776 C140.263869,332.199768 140.748426,331.92549 141.104987,331.532359 C141.507261,331.084372 141.708398,330.58153 141.424977,329.895836 C140.876422,328.570161 139.614745,328.487877 138.974764,329.164429 C138.627345,329.539275 138.837625,330.188399 138.828482,330.700384 C138.810197,331.294652 139.130188,331.706068 139.6696,331.943776 Z" transform="translate(-104 -305)"/>
</svg>
