<svg xmlns="http://www.w3.org/2000/svg" width="52" height="51" viewBox="0 0 52 51">
  <g fill="none" transform="translate(.294 .239)">
    <path fill="#FF0079" d="M25.1373626,50 C28.6172161,50 31.8910256,49.3360806 34.9587912,48.0082418 C38.0265568,46.6804029 40.7051282,44.8946886 42.9945055,42.6510989 C45.2838828,40.4075092 47.0924908,37.7747253 48.4203297,34.7527473 C49.7481685,31.7307692 50.4120879,28.4798535 50.4120879,25 C50.4120879,21.6117216 49.7481685,18.3836996 48.4203297,15.3159341 C47.0924908,12.2481685 45.2838828,9.59249084 42.9945055,7.3489011 C40.7051282,5.10531136 38.0265568,3.31959707 34.9587912,1.99175824 C31.8910256,0.663919414 28.6172161,0 25.1373626,0 C21.6575092,0 18.3836996,0.663919414 15.3159341,1.99175824 C12.2481685,3.31959707 9.59249084,5.10531136 7.3489011,7.3489011 C5.10531136,9.59249084 3.31959707,12.2481685 1.99175824,15.3159341 C0.663919414,18.3836996 6.4659389e-13,21.6117216 6.4659389e-13,25 C6.4659389e-13,28.4798535 0.663919414,31.7307692 1.99175824,34.7527473 C3.31959707,37.7747253 5.10531136,40.4075092 7.3489011,42.6510989 C9.59249084,44.8946886 12.2481685,46.6804029 15.3159341,48.0082418 C18.3836996,49.3360806 21.6575092,50 25.1373626,50 Z"/>
    <path fill="#0C0A1D" d="M38.7441861,34.7473837 L30.6007264,20.6851706 C30.5007008,20.5127127 30.3972261,20.3471532 30.4006753,20.1264072 C30.4110227,19.0157786 30.4110227,17.9017009 30.4041244,16.7910723 C30.4041244,16.5668771 30.438616,16.4703007 30.7042011,16.4565041 C31.7492957,16.3978684 32.5529493,15.6942404 32.7805936,14.6663916 C32.9013141,14.1283231 32.8254327,13.5833563 32.8288818,13.0418386 C32.8426784,11.7208115 31.866567,10.7274543 30.548989,10.7240051 C26.8066537,10.7171068 23.0677675,10.720556 19.3254321,10.7274543 C18.2389476,10.7309034 17.3663109,11.4517773 17.1317682,12.5210159 C17.0110477,13.0694319 17.0800309,13.6281953 17.0800309,14.1835096 C17.0800309,15.4252061 17.9733626,16.3840718 19.2047116,16.4565041 C19.4702967,16.4737499 19.5082374,16.5668771 19.5047883,16.7945215 C19.4944408,17.8568618 19.4944408,18.915753 19.5047883,19.9815426 C19.5082374,20.2436785 19.4392543,20.4678737 19.3150846,20.6989672 C16.8040983,25.3691258 14.2965612,30.0392844 11.789024,34.7128922 C11.5786254,35.1026469 11.3889218,35.4993 11.2716505,35.9304446 C10.8922432,37.2859633 11.326837,38.4069393 12.4305672,38.9243129 C12.9203475,39.1519572 13.4411702,39.2312879 13.9792387,39.2312879 L24.9372106,39.2312879 C27.8310533,39.2312879 30.724896,39.2416353 33.6187388,39.2278387 C34.6672825,39.2243895 35.7158262,39.3140676 36.7609208,39.1554064 C38.0853971,38.9553553 39.0442628,38.0861677 39.2408647,36.8893102 C39.3684835,36.1098008 39.1235934,35.4061727 38.7441861,34.7473837 Z M36.8643955,37.87232 C36.5298273,37.9964896 36.1780133,38.0275666 35.8227501,38.0275666 C32.1942369,38.0240829 28.5691729,38.0275666 24.9406597,38.0275666 L14.248273,38.0275666 C13.9585438,38.0275666 13.6688146,38.0309812 13.3790854,37.9688964 C12.5374911,37.7929894 12.2029229,37.2997599 12.3719316,36.4581656 C12.4581605,36.0339193 12.6375167,35.6441646 12.8410169,35.2647573 C15.3968423,30.5049206 17.9526676,25.7450839 20.5153913,20.9886964 C20.6464592,20.7472554 20.7016458,20.5058144 20.7016458,20.233331 C20.6912983,18.7053545 20.6912983,17.1739288 20.7016458,15.6459522 C20.7050949,15.3631213 20.6499084,15.2320534 20.332586,15.2630958 C20.0083652,15.2941382 19.673797,15.2768924 19.346127,15.2665449 C18.7218296,15.2492991 18.2837867,14.8112562 18.2665409,14.1835096 C18.2561934,13.817899 18.2630917,13.4488392 18.2665409,13.0832285 C18.2734392,12.3382106 18.7011347,11.9105151 19.4496018,11.9105151 C22.6228262,11.907066 25.7926015,11.9105151 28.965826,11.9105151 C29.4831995,11.9105151 30.0005731,11.9036168 30.5213958,11.9139643 C31.1974305,11.9277609 31.6285752,12.3589056 31.6389226,13.0349403 C31.645821,13.4143476 31.6423718,13.7937549 31.6354735,14.1731621 C31.6216769,14.8216037 31.1836339,15.2561975 30.5282941,15.2665449 C30.1764801,15.2734432 29.8212169,15.2803415 29.4659537,15.2665449 C29.2659026,15.2596466 29.2072669,15.3251806 29.2072669,15.5252317 C29.2141653,17.1808271 29.2141653,18.8364224 29.2072669,20.4920178 C29.2072669,20.6817214 29.3003942,20.8300352 29.383174,20.9817981 C31.9596942,25.7726772 34.5362145,30.5635563 37.1092857,35.3578845 C37.3679724,35.8407665 37.5818202,36.333996 37.5576761,36.8996577 C37.5404303,37.3928872 37.3265826,37.7033113 36.8643955,37.87232 Z M23.2160812,9.38918137 C23.9886924,9.402978 24.6405831,8.75798564 24.6405831,7.97847615 C24.6405831,7.19896667 23.9886924,6.5539743 23.2195304,6.56777093 C22.4503684,6.58156756 21.8433167,7.20241582 21.8398676,7.97847615 C21.8398676,8.75108732 22.44347,9.37538474 23.2160812,9.38918137 L23.2160812,9.38918137 Z M26.5790093,7.15067847 C27.2584932,7.14378015 27.7655193,6.6264066 27.7655193,5.94692267 C27.7655193,5.28468452 27.2205525,4.74316687 26.5617635,4.75006519 C25.9098728,4.75351434 25.3545586,5.31917609 25.3614569,5.96761761 C25.3718043,6.6264066 25.913322,7.15757678 26.5790093,7.15067847 Z M28.9347835,23.0030041 C28.8037156,22.7615631 28.6898934,22.7512156 28.4656982,22.868487 C27.5275275,23.3651656 26.7238739,24.0274037 26.0030001,24.8000149 C25.5649571,25.2725494 25.1338125,25.7485331 24.6785238,26.207271 C23.9645483,26.9281448 23.0919116,27.2006282 22.0847577,27.0902552 C21.191426,26.9902296 20.3049927,26.8488142 19.4565001,26.5625341 C19.1391776,26.4556103 19.0219063,26.5452884 18.8770417,26.8108734 C17.7733114,28.8527744 16.6488863,30.887777 15.5382577,32.9227797 C14.9312061,34.0299591 14.3207053,35.1336893 13.7343486,36.2512162 C13.4722126,36.751344 13.5136025,36.7927338 14.072366,36.7927338 L35.5261226,36.7927338 C36.4815391,36.7927338 36.4884374,36.7892847 36.0296995,35.9511395 C33.667027,31.6362441 31.2940069,27.3213487 28.9347835,23.0030041 Z M26.4168989,34.1368829 C25.6477369,34.357629 24.837185,33.8988911 24.6233373,33.1228308 C24.4025912,32.3260755 24.8337359,31.5569135 25.6235928,31.3292691 C26.3996531,31.1050739 27.2067559,31.5500152 27.4275019,32.3260755 C27.648248,33.0848901 27.1791626,33.9195861 26.4168989,34.1368829 Z M29.7453354,30.9291669 C28.8485546,31.194752 27.8793415,30.6497852 27.627553,29.7357586 C27.3757646,28.8251811 27.9310789,27.8594172 28.8382071,27.6283237 C29.7453354,27.3972301 30.6559129,27.9284003 30.9042522,28.8355286 C31.1525915,29.7461061 30.6421163,30.6635818 29.7453354,30.9291669 Z M25.1614058,18.3742433 C26.551416,18.3707862 27.6689429,17.2601577 27.6724001,15.8770457 C27.6758412,14.4697897 26.5617635,13.3591611 25.1476091,13.3557119 C23.7644972,13.3557119 22.6331658,14.476688 22.6331658,15.8529016 C22.6297245,17.2567085 23.7541497,18.3776845 25.1614058,18.3742433 Z M24.1577011,23.3444706 C25.1752024,23.3272249 25.958161,22.5132238 25.9478136,21.4888242 C25.9374661,20.5058144 25.1407108,19.7263049 24.1508028,19.7297427 C23.1298523,19.7332033 22.3158512,20.5472043 22.3296479,21.5543582 C22.3399953,22.5373679 23.1850388,23.3651656 24.1577011,23.3444706 Z"/>
  </g>
</svg>
