<svg xmlns="http://www.w3.org/2000/svg" width="62" height="58" viewBox="0 0 62 58">
  <g fill="none" stroke-linecap="round" stroke-linejoin="round" transform="translate(1 1)">
    <polygon fill="#E2761B" stroke="#E2761B" points="56.977 .117 33.656 17.438 37.969 7.219"/>
    <g fill="#E4761B" stroke="#E4761B" transform="translate(.469)">
      <polygon points="2.672 .117 25.805 17.602 21.703 7.219"/>
      <polygon points="48.117 40.266 41.906 49.781 55.195 53.438 59.016 40.477"/>
      <polygon points=".211 40.477 4.008 53.438 17.297 49.781 11.086 40.266"/>
      <polygon points="16.547 24.188 12.844 29.789 26.039 30.375 25.57 16.195"/>
      <polygon points="42.633 24.188 33.492 16.031 33.188 30.375 46.359 29.789"/>
      <polygon points="17.297 49.781 25.219 45.914 18.375 40.57"/>
      <polygon points="33.961 45.914 41.906 49.781 40.805 40.57"/>
    </g>
    <g fill="#D7C1B3" stroke="#D7C1B3" transform="translate(17.578 45.703)">
      <polygon points="24.797 4.078 16.852 .211 17.484 5.391 17.414 7.57"/>
      <polygon points=".188 4.078 7.57 7.57 7.523 5.391 8.109 .211"/>
    </g>
    <polygon fill="#233447" stroke="#233447" points="25.266 37.148 18.656 35.203 23.32 33.07"/>
    <polygon fill="#233447" stroke="#233447" points="34.852 37.148 36.797 33.07 41.484 35.203"/>
    <g fill="#CD6116" stroke="#CD6116" transform="translate(11.484 29.766)">
      <polygon points="6.281 20.016 7.406 10.5 .07 10.711"/>
      <polygon points="29.766 10.5 30.891 20.016 37.102 10.711"/>
      <polygon points="35.344 .023 22.172 .609 23.391 7.383 25.336 3.305 30.023 5.438"/>
      <polygon points="7.172 5.438 11.859 3.305 13.781 7.383 15.023 .609 1.828 .023"/>
    </g>
    <g fill="#E4751F" stroke="#E4751F" transform="translate(13.125 29.766)">
      <polygon points=".188 .023 5.719 10.805 5.531 5.438"/>
      <polygon points="28.383 5.438 28.148 10.805 33.703 .023"/>
      <polygon points="13.383 .609 12.141 7.383 13.688 15.375 14.039 4.852"/>
      <polygon points="20.531 .609 19.898 4.828 20.18 15.375 21.75 7.383"/>
    </g>
    <polygon fill="#F6851B" stroke="#F6851B" points="34.875 37.148 33.305 45.141 34.43 45.914 41.273 40.57 41.508 35.203"/>
    <polygon fill="#F6851B" stroke="#F6851B" points="18.656 35.203 18.844 40.57 25.688 45.914 26.813 45.141 25.266 37.148"/>
    <polygon fill="#C0AD9E" stroke="#C0AD9E" points="34.992 53.273 35.063 51.094 34.477 50.578 25.641 50.578 25.102 51.094 25.148 53.273 17.766 49.781 20.344 51.891 25.57 55.523 34.547 55.523 39.797 51.891 42.375 49.781"/>
    <polygon fill="#161616" stroke="#161616" points="34.43 45.914 33.305 45.141 26.813 45.141 25.688 45.914 25.102 51.094 25.641 50.578 34.477 50.578 35.063 51.094"/>
    <g fill="#763D16" stroke="#763D16">
      <polygon points="57.961 18.563 59.953 9 56.977 .117 34.43 16.852 43.102 24.188 55.359 27.773 58.078 24.609 56.906 23.766 58.781 22.055 57.328 20.93 59.203 19.5"/>
      <polygon points=".188 9 2.18 18.563 .914 19.5 2.789 20.93 1.359 22.055 3.234 23.766 2.063 24.609 4.758 27.773 17.016 24.188 25.688 16.852 3.141 .117"/>
    </g>
    <polygon fill="#F6851B" stroke="#F6851B" points="55.359 27.773 43.102 24.188 46.828 29.789 41.273 40.57 48.586 40.477 59.484 40.477"/>
    <polygon fill="#F6851B" stroke="#F6851B" points="17.016 24.188 4.758 27.773 .68 40.477 11.555 40.477 18.844 40.57 13.313 29.789"/>
    <polygon fill="#F6851B" stroke="#F6851B" points="33.656 30.375 34.43 16.852 37.992 7.219 22.172 7.219 25.688 16.852 26.508 30.375 26.789 34.641 26.813 45.141 33.305 45.141 33.352 34.641"/>
  </g>
</svg>
