<svg xmlns="http://www.w3.org/2000/svg" width="60" height="81" viewBox="0 0 60 81">
  <path fill="#73328D" d="M722.164855,98.6634286 L722.164855,87.7285714 C722.183141,74.3617143 711.303141,63.5 697.945427,63.5 C684.569427,63.5 673.716855,74.3617143 673.716855,87.7285714 L673.716855,98.6725714 L668.496284,98.6725714 L668.496284,143.5 L727.357998,143.5 L727.357998,98.6634286 L722.164855,98.6634286 Z M682.823141,87.7285714 C682.823141,79.3994286 689.616284,72.6337143 697.945427,72.6337143 C706.256284,72.6337143 713.031141,79.3994286 713.031141,87.7285714 L713.031141,98.6725714 L682.823141,98.6725714 L682.823141,87.7285714 Z M702.105427,131.193714 L693.794569,131.193714 L695.037998,118.905714 C693.492855,117.945714 692.468855,116.245143 692.468855,114.279429 C692.468855,111.262286 694.919141,108.812 697.945427,108.812 C700.962569,108.812 703.412855,111.262286 703.412855,114.279429 C703.412855,116.236 702.388855,117.954857 700.825427,118.905714 L702.105427,131.193714 Z" transform="translate(-668 -63)"/>
</svg>
