<svg xmlns="http://www.w3.org/2000/svg" width="58" height="81" viewBox="0 0 58 81">
  <path fill="#73328D" d="M348.716571,95.8565714 C346.266286,92.236 344.428571,88.3137143 343.267429,84.1994286 C343.102857,83.6417143 343.166857,83.02 343.450286,82.5445714 C343.733714,82.0691429 344.172571,81.7674286 344.638857,81.7674286 L359.130286,81.7674286 C359.605714,81.7674286 360.053714,82.06 360.328,82.5445714 C360.602286,83.02 360.675429,83.6417143 360.510857,84.1994286 C359.340571,88.3137143 357.502857,92.2268571 355.052571,95.8565714 C353.946286,97.484 353.342857,99.5411429 353.342857,101.671429 C353.342857,102.677143 352.675429,103.490857 351.88,103.490857 C351.075429,103.490857 350.417143,102.677143 350.417143,101.671429 C350.426286,99.5594286 349.813714,97.484 348.716571,95.8565714 Z M353.352,108.958286 C353.352,107.952571 352.684571,107.148 351.889143,107.148 C351.084571,107.148 350.426286,107.961714 350.426286,108.958286 C350.426286,111.582286 349.164571,114.178857 346.878857,116.281714 C341.996571,120.789143 338.339429,125.662286 336.017143,130.782286 C335.761143,131.349143 335.761143,132.034857 336.026286,132.601714 C336.282286,133.150286 336.766857,133.506857 337.288,133.506857 L366.499429,133.506857 C367.020571,133.506857 367.496,133.150286 367.761143,132.601714 C368.035429,132.044 368.035429,131.358286 367.779429,130.782286 C365.457143,125.653143 361.790857,120.770857 356.908571,116.281714 C354.604571,114.188 353.352,111.591429 353.352,108.958286 Z M380.369143,139.861143 C380.369143,141.872571 379.061714,143.5 377.443429,143.5 L326.316571,143.5 C324.707429,143.5 323.4,141.863429 323.4,139.861143 C323.4,137.849714 324.707429,136.231429 326.316571,136.231429 L327.185143,136.231429 C328.2,122.078286 334.856,111.216571 340.030857,103.5 C334.846857,95.7834286 328.209143,84.9217143 327.203429,70.7685714 L326.334857,70.7685714 C324.725714,70.7685714 323.418286,69.1411429 323.418286,67.1297143 C323.418286,65.1274286 324.725714,63.5 326.334857,63.5 L377.452571,63.5 C379.070857,63.5 380.369143,65.1365714 380.369143,67.1297143 C380.369143,69.1411429 379.061714,70.7685714 377.443429,70.7685714 L376.574857,70.7685714 C375.569143,84.9217143 368.913143,95.7834286 363.738286,103.5 C368.913143,111.216571 375.569143,122.078286 376.565714,136.231429 L377.434286,136.231429 C379.052571,136.231429 380.369143,137.849714 380.369143,139.861143 Z M370.714286,136.231429 C369.617143,123.449714 362.942857,113.602857 357.950857,106.252 L357.685714,105.849714 C356.762286,104.496571 356.762286,102.512571 357.685714,101.159429 L357.941714,100.766286 C362.933714,93.4154286 369.617143,83.5685714 370.714286,70.7868571 L333.064,70.7868571 C334.170286,83.5685714 340.835429,93.4154286 345.827429,100.766286 L346.101714,101.159429 C347.025143,102.512571 347.025143,104.505714 346.101714,105.849714 L345.827429,106.252 C340.844571,113.593714 334.161143,123.440571 333.064,136.231429 L370.714286,136.231429 Z" transform="translate(-323 -63)"/>
</svg>
