<svg xmlns="http://www.w3.org/2000/svg" width="86" height="82" viewBox="0 0 86 82">
  <path fill="#73328D" d="M285.580812,230.390102 C285.426009,230.114895 285.374407,229.788087 285.434609,229.47848 L291.99657,194.647625 C292.142773,193.873606 291.60956,193.133988 290.835541,193.022186 C289.046697,192.755579 287.214852,192.609375 285.348607,192.609375 C264.131886,192.609375 247.051867,210.291409 248.040892,231.723135 C248.935313,251.159612 264.931706,266.803395 284.385383,267.293607 C289.915319,267.431211 295.187248,266.373385 299.951765,264.343735 C301.723408,263.595517 302.428626,261.454064 301.508403,259.759823 L285.580812,230.390102 Z M331.488738,216.483561 C330.946925,215.090327 329.338686,214.445311 327.979852,215.081727 L299.100344,228.799063 C297.767311,229.435479 297.242698,231.052318 297.939315,232.34235 L313.178889,260.447839 C313.892707,261.772272 315.586948,262.193682 316.851179,261.376662 C327.171433,254.728699 334,243.144215 334,229.960092 C334,225.204175 333.105578,220.663264 331.488738,216.483561 Z M296.210673,220.92987 L324.62577,207.436139 C325.640595,206.954527 326.062005,205.707497 325.520192,204.718472 C320.55787,195.64525 311.931859,188.851083 301.637406,186.322621 C300.545179,186.056015 299.461553,186.778432 299.255148,187.879259 L293.432805,218.788418 C293.131798,220.370856 294.757237,221.617887 296.210673,220.92987 Z" transform="translate(-248 -186)"/>
</svg>
