<svg xmlns="http://www.w3.org/2000/svg" width="87" height="86" viewBox="0 0 87 86">
  <path fill="#73328D" d="M317.009632,887.215379 L317.009632,889.417225 C317.009632,890.292066 316.292066,890.999902 315.427055,890.999902 L232.582577,890.999902 C231.717566,891.009632 231,890.292066 231,889.427055 L231,806.582577 C231,805.717566 231.717566,805 232.582577,805 L234.784424,805 C235.659265,805 236.367001,805.717566 236.367001,806.582577 L236.367001,884.040394 C236.367001,884.915235 237.084567,885.622972 237.949578,885.622972 L315.407395,885.622972 C316.292066,885.632801 317.009632,886.340538 317.009632,887.215379 Z M270.996936,835.236072 L289.879737,839.944485 C290.734918,840.160738 291.776863,839.718402 292.238858,838.971347 L298.205469,829.033549 C298.657634,828.286494 299.630772,828.040752 300.377827,828.492917 L304.545608,830.999483 C305.292663,831.451648 305.911932,831.107609 305.931591,830.232769 L306.236774,811.969238 C306.255971,811.094397 305.646531,810.730699 304.879817,811.153375 L288.906599,820.00991 C288.139885,820.432585 288.130055,821.150151 288.87711,821.592487 L293.044891,824.099053 C293.791946,824.541388 294.037688,825.524356 293.585523,826.271411 L289.663484,832.798313 C289.221149,833.545368 288.159544,833.987703 287.304363,833.771451 L269.335722,829.269461 C268.48054,829.053208 267.30098,829.387417 266.68171,830.006686 L246.344118,850.363937 C245.724849,850.983207 245.724849,851.985833 246.344118,852.605103 L247.897207,854.158191 C248.516476,854.77746 249.519102,854.77746 250.138372,854.158191 L268.323265,835.963468 C268.952365,835.354028 270.141755,835.029649 270.996936,835.236072 Z M264.833732,880.255971 L272.412409,880.255971 C273.28725,880.255971 273.994986,879.538405 273.994986,878.673393 L273.994986,843.119469 C273.994986,842.244628 273.336398,841.369787 272.540195,841.173194 C271.743991,840.9766 270.58409,841.310809 269.964821,841.930079 L264.361908,847.532992 C263.742638,848.152261 263.241325,849.361311 263.241325,850.245981 L263.241325,878.673393 C263.251155,879.548234 263.968721,880.255971 264.833732,880.255971 Z M247.130492,862.562561 L247.130492,878.663564 C247.130492,879.538405 247.848058,880.246141 248.713069,880.246141 L256.291747,880.246141 C257.166587,880.246141 257.874324,879.528575 257.874324,878.663564 L257.874324,855.612982 C257.874324,854.738142 257.373011,854.531718 256.753741,855.150988 L250.148202,861.756527 C249.528932,862.375797 247.130492,861.68772 247.130492,862.562561 Z M295.512139,845.557228 L295.512139,878.673393 C295.512139,879.548234 296.229705,880.255971 297.094716,880.255971 L304.673393,880.255971 C305.548234,880.255971 306.255971,879.538405 306.255971,878.673393 L306.255971,839.885507 C306.255971,839.010666 305.646531,837.929402 304.899476,837.487067 L302.215975,835.875 C301.46892,835.422836 300.485953,835.668577 300.043618,836.415632 L296.328002,842.608326 C295.866007,843.365211 295.512139,844.682387 295.512139,845.557228 Z M290.135308,878.673393 L290.135308,847.149635 C290.135308,846.274794 289.447231,845.399953 288.59205,845.1837 L280.924905,843.266914 C280.069724,843.050661 279.381647,843.591293 279.381647,844.466134 L279.381647,878.683223 C279.381647,879.558064 280.099213,880.2658 280.964224,880.2658 L288.542901,880.2658 C289.417742,880.255971 290.135308,879.548234 290.135308,878.673393 Z" transform="translate(-231 -805)"/>
</svg>
