<svg xmlns="http://www.w3.org/2000/svg" width="105" height="67" viewBox="0 0 105 67">
  <path fill="#73328D" d="M922.913851,192.237987 L848.343347,192.237987 C847.595506,196.131512 844.817808,199.455253 840.948024,200.772879 C840.734355,200.855972 840.496944,200.927195 840.259534,200.986548 L840.259534,214.055972 C842.253779,210.922159 845.779319,208.80921 849.755937,208.80921 C855.964211,208.80921 860.997304,213.877915 860.997304,220.050577 C860.997304,226.25885 855.964211,231.291943 849.755937,231.291943 C845.779319,231.291943 842.253779,229.202735 840.259534,226.045181 L840.259534,239.114605 C843.808815,240.099857 846.705218,242.806332 847.92788,246.272519 L882.696585,246.272519 C872.381117,244.207051 864.451621,233.09626 864.42788,219.753814 C864.475362,204.963166 874.185434,192.890864 886.11529,192.867123 C898.068887,192.890864 907.8027,204.963166 907.838311,219.753814 C907.81457,233.09626 899.908815,244.207051 889.593347,246.272519 L923.35306,246.272519 C924.492628,242.901296 927.199103,240.277915 930.67716,239.197699 C931.175721,239.067123 931.686153,238.936548 932.184714,238.853454 L932.184714,201.247699 C927.519606,200.511728 923.780398,196.879354 922.913851,192.237987 Z M932.137232,220.050577 C932.137232,226.25885 927.104139,231.291943 920.895865,231.291943 C914.687592,231.291943 909.654498,226.25885 909.654498,220.050577 C909.654498,213.877915 914.687592,208.80921 920.895865,208.80921 C927.092268,208.80921 932.137232,213.877915 932.137232,220.050577 Z M914.604498,220.050577 C914.604498,223.528634 917.441549,226.365684 920.883995,226.365684 C924.362052,226.365684 927.163491,223.528634 927.199103,220.050577 C927.175362,216.572519 924.362052,213.77108 920.883995,213.77108 C917.441549,213.77108 914.604498,216.572519 914.604498,220.050577 Z M856.059175,220.050577 C856.059175,216.572519 853.222124,213.77108 849.744067,213.77108 C846.266009,213.77108 843.46457,216.584389 843.46457,220.050577 C843.46457,223.528634 846.27788,226.365684 849.779678,226.365684 C853.222124,226.365684 856.059175,223.528634 856.059175,220.050577 L856.059175,220.050577 Z M834.288671,186.267123 L834.288671,252.267123 L938.155578,252.267123 L938.155578,186.267123 L834.288671,186.267123 Z M937.122844,243.886548 L934.974283,243.732231 L934.582556,243.70849 L934.499462,243.684749 L934.285793,243.661008 L933.96529,243.661008 C932.80198,243.661008 931.686153,243.957771 930.700901,244.563166 C929.668168,245.204174 928.813491,246.130073 928.291189,247.2459 L928.208096,247.376476 L928.160614,247.530792 C927.946944,248.029354 927.792628,248.563526 927.709534,249.097699 L927.650182,249.513166 L927.436513,251.234389 L843.832556,251.234389 L843.595146,249.536907 L843.571405,249.323238 L843.547664,249.085828 C843.286513,247.257771 842.253779,245.643382 840.686873,244.634389 C839.760973,244.052735 838.728239,243.732231 837.659894,243.649138 L837.185074,243.649138 L835.333275,243.518562 L835.333275,196.582591 L837.185074,196.475756 L837.659894,196.428274 C840.995506,196.273958 843.595146,193.50813 843.595146,190.172519 L843.595146,189.982591 C843.595146,189.95885 843.571405,189.875756 843.571405,189.768922 L843.571405,189.341584 L843.488311,187.299857 L927.757016,187.299857 L927.673923,189.341584 L927.673923,189.840145 L927.650182,190.053814 C927.650182,193.25885 929.988671,195.941584 933.02752,196.392663 C933.371765,196.416404 933.692268,196.440145 933.953419,196.440145 C934.107736,196.440145 934.250182,196.440145 934.428239,196.416404 L934.962412,196.392663 L937.110973,196.202735 L937.122844,243.886548 Z M897.795865,235.482231 C901.083995,231.315684 902.888311,225.724677 902.888311,219.753814 C902.888311,213.782951 901.083995,208.191943 897.795865,204.025397 C894.61457,200.025037 890.471765,197.793382 886.12716,197.793382 C881.746944,197.793382 877.616009,200.025037 874.458455,204.025397 C871.170326,208.203814 869.366009,213.794821 869.366009,219.753814 C869.366009,225.724677 871.170326,231.315684 874.458455,235.482231 C877.616009,239.482591 881.746944,241.714246 886.12716,241.714246 C890.483635,241.714246 894.61457,239.482591 897.795865,235.482231 Z M892.382916,228.134389 C891.397664,229.33331 889.937592,230.152375 888.062052,230.579713 L888.062052,234.27144 C887.610973,234.402015 887.159894,234.485109 886.685074,234.485109 C886.233995,234.485109 885.759175,234.402015 885.308096,234.27144 L885.308096,230.900217 L885.046944,230.900217 C884.358455,230.900217 883.717448,230.876476 883.159534,230.852735 C882.601621,230.805253 882.10306,230.7459 881.592628,230.639066 C881.094067,230.532231 880.583635,230.425397 880.108815,230.27108 C879.633995,230.116764 879.099822,229.950577 878.601261,229.736907 C878.648743,229.0959 878.755578,228.490505 878.945506,227.849497 C879.099822,227.244102 879.313491,226.579354 879.52716,225.914605 C880.429319,226.25885 881.272124,226.520001 882.043707,226.662447 C882.839031,226.793023 883.681837,226.876116 884.560254,226.876116 C885.88975,226.876116 886.922484,226.638706 887.658455,226.187627 C888.406297,225.736548 888.750542,224.988706 888.750542,223.991584 C888.750542,223.457411 888.667448,223.041943 888.453779,222.72144 C888.24011,222.400936 888.0027,222.139785 887.682196,221.902375 C887.385434,221.688706 887.041189,221.534389 886.649462,221.368202 C886.281477,221.237627 885.901621,221.047699 885.533635,220.893382 L883.859894,220.145541 C883.147664,219.848778 882.506657,219.563886 881.948743,219.219641 C881.367088,218.899138 880.892268,218.507411 880.46493,218.056332 C880.037592,217.605253 879.717088,217.047339 879.51529,216.441943 C879.27788,215.836548 879.171045,215.064965 879.171045,214.186548 C879.171045,212.275397 879.728959,210.767843 880.785434,209.652015 C881.87752,208.559929 883.385074,207.907051 885.296225,207.657771 L885.296225,204.286548 C885.723563,204.155972 886.198383,204.072879 886.649462,204.072879 C887.100542,204.072879 887.575362,204.155972 888.050182,204.286548 L888.050182,207.550936 C888.892988,207.63403 889.723923,207.740864 890.519247,207.918922 C891.290829,208.10885 892.109894,208.34626 892.988311,208.631152 C892.857736,209.853814 892.513491,211.076476 891.979319,212.263526 L890.994067,211.8718 C890.673563,211.764965 890.305578,211.65813 889.961333,211.575037 C889.557736,211.468202 889.166009,211.42072 888.691189,211.361368 C888.216369,211.313886 887.682196,211.278274 887.100542,211.278274 C886.732556,211.278274 886.388311,211.302015 886.008455,211.361368 C885.628599,211.42072 885.296225,211.515684 884.999462,211.681871 C884.7027,211.8718 884.441549,212.10921 884.251621,212.394102 C884.061693,212.714605 883.99047,213.106332 883.99047,213.593023 C883.99047,214.020361 884.037952,214.388346 884.204139,214.685109 C884.334714,214.981871 884.548383,215.243023 884.809534,215.432951 C885.046944,215.64662 885.343707,215.836548 885.65234,215.967123 C885.972844,216.12144 886.293347,216.263886 886.60198,216.394461 L888.513132,217.189785 C889.308455,217.510289 890.056297,217.854533 890.709175,218.198778 C891.373923,218.543023 891.931837,218.94662 892.382916,219.42144 C892.833995,219.89626 893.178239,220.477915 893.439391,221.166404 C893.700542,221.854893 893.807376,222.73331 893.807376,223.766044 C893.842988,225.487267 893.368168,226.947339 892.382916,228.134389 Z" transform="translate(-834 -186)"/>
</svg>
