<svg xmlns="http://www.w3.org/2000/svg" width="87" height="86" viewBox="0 0 87 86">
  <path fill="#73328D" d="M582.009632,887.215379 L582.009632,889.417225 C582.009632,890.292066 581.292066,890.999902 580.427055,890.999902 L497.582577,890.999902 C496.717566,891.009632 496,890.292066 496,889.427055 L496,806.582577 C496,805.717566 496.717566,805 497.582577,805 L499.784424,805 C500.659265,805 501.367001,805.717566 501.367001,806.582577 L501.367001,884.040394 C501.367001,884.915235 502.084567,885.622972 502.949578,885.622972 L580.407395,885.622972 C581.292066,885.632801 582.009632,886.340538 582.009632,887.215379 Z M514.01688,848.68771 C514.464077,849.083307 514.704876,849.023108 515.066073,848.584511 C516.725862,846.546324 518.445851,844.559737 520.07984,842.504351 C520.570037,841.885155 520.871035,841.859355 521.524631,842.297952 C536.247733,852.144887 550.988035,861.957422 565.719737,871.804357 C566.356133,872.225754 566.571132,872.156954 566.923729,871.503359 C568.738317,868.132181 570.613105,864.804003 572.436293,861.441425 C572.720091,860.908229 572.917889,860.78783 573.476886,861.123227 C574.758277,861.888622 576.091268,862.568018 577.518859,863.350613 C577.40706,857.898249 577.30386,852.600684 577.192061,847.15692 C572.522292,849.977701 567.990122,852.721083 563.328953,855.541865 C564.799543,856.350259 566.123935,857.107054 567.482726,857.820849 C567.938522,858.061648 567.981522,858.276646 567.732124,858.715243 C566.82053,860.314833 565.943336,861.940222 565.066142,863.557011 C564.575945,864.460005 564.575945,864.460005 563.698751,863.875209 C549.250847,854.243273 534.811542,844.619937 520.380838,834.996601 C519.976641,834.730003 519.684243,834.446205 519.219846,835.013801 C516.416264,838.427978 513.578283,841.816356 510.740302,845.196133 C510.465104,845.522931 510.447904,845.71213 510.800502,845.995928 C511.884095,846.873122 512.967687,847.758916 514.01688,848.68771 Z M536.935728,842.925748 C537.331326,843.200946 537.546324,843.106347 537.812922,842.762349 C538.328919,842.100154 538.913715,841.489558 539.403912,840.810162 C539.765109,840.302766 540.031708,840.311366 540.539104,840.646763 C545.613071,844.060941 550.712837,847.440718 555.795403,850.854896 C556.277,851.181693 556.491998,851.155894 556.784397,850.631297 C558.461385,847.638517 560.172774,844.662937 561.875563,841.678757 C565.25534,835.761996 568.652318,829.853835 572.014895,823.928474 C572.341693,823.360878 572.582492,823.257679 573.150088,823.618876 C574.164881,824.263872 575.231274,824.822868 576.271867,825.416264 C577.097462,825.889261 577.106062,825.889261 577.106062,824.969067 C577.080262,820.1015 577.054462,815.233932 577.028662,810.374964 C577.028662,810.194366 577.097462,809.987967 576.865263,809.772968 C572.307293,812.430351 567.740724,815.096333 563.027955,817.848315 C564.455546,818.665309 565.719737,819.430704 567.026929,820.1273 C567.594525,820.428298 567.628925,820.660496 567.310727,821.202292 C563.191354,828.366045 559.089181,835.546997 555.012808,842.73655 C554.668811,843.338546 554.453812,843.415945 553.851816,843.011748 C549.078848,839.795369 544.28008,836.61339 539.498511,833.422811 C539.145914,833.190613 538.879315,832.906815 538.466518,833.422811 C536.73793,835.546997 534.974941,837.645383 533.203353,839.743769 C532.919555,840.079167 532.919555,840.259766 533.306552,840.517764 C534.536344,841.291759 535.740336,842.091554 536.935728,842.925748 Z M514.13728,870.247767 C514.266279,870.350966 514.395278,870.445566 514.610276,870.608964 C514.765075,870.419766 514.902675,870.247767 515.040274,870.084368 C520.07984,864.030008 525.119407,857.975648 530.167573,851.929888 C530.477171,851.560091 530.477171,851.370892 530.055774,851.104294 C528.860382,850.338899 527.67359,849.547704 526.503998,848.73071 C526.0912,848.446912 525.876202,848.498511 525.558004,848.885509 C524.336812,850.407699 523.06402,851.895489 521.817029,853.400479 C518.153453,857.79505 514.481277,862.19822 510.809102,866.592791 C510.568303,866.885189 510.310305,867.100188 510.774702,867.461385 C511.918494,868.372979 513.019287,869.318973 514.13728,870.247767 Z" transform="translate(-496 -805)"/>
</svg>
