<svg xmlns="http://www.w3.org/2000/svg" width="61" height="63" viewBox="0 0 61 63">
  <path d="M58.8176255,51.877601 L41.4785802,21.9363525 C41.2656059,21.5691554 41.0452876,21.2166463 41.0526316,20.746634 C41.0746634,18.3818849 41.0746634,16.0097919 41.0599755,13.6450428 C41.0599755,13.1676867 41.1334149,12.9620563 41.6988984,12.9326805 C43.9241126,12.8078335 45.6352509,11.3096695 46.119951,9.12117503 C46.376989,7.9755202 46.2154223,6.81517748 46.2227662,5.6621787 C46.252142,2.8494492 44.1738066,0.734394125 41.3684211,0.727050184 C33.4002448,0.712362301 25.4394125,0.719706242 17.4712362,0.734394125 C15.1578947,0.741738066 13.2998776,2.27662179 12.8004896,4.55324357 C12.5434517,5.72093023 12.6903305,6.91064871 12.6903305,8.09302326 C12.6903305,10.7368421 14.5924113,12.7784578 17.2141983,12.9326805 C17.7796818,12.9694002 17.8604651,13.1676867 17.8531212,13.6523868 C17.8310894,15.9143207 17.8310894,18.1689106 17.8531212,20.4381885 C17.8604651,20.996328 17.7135863,21.4736842 17.4492044,21.9657283 C12.1028152,31.9094247 6.76376989,41.8531212 1.4247246,51.8041616 C0.976744186,52.6340269 0.572827417,53.4785802 0.323133415,54.3965728 C-0.484700122,57.2827417 0.440636475,59.6695226 2.79069767,60.7711138 C3.83353733,61.255814 4.94247246,61.4247246 6.08812729,61.4247246 L29.4198286,61.4247246 C35.5813953,61.4247246 41.7429621,61.4467564 47.9045288,61.4173807 C50.1370869,61.4100367 52.369645,61.6009792 54.5948592,61.2631579 C57.4149327,60.8372093 59.4565483,58.9865361 59.875153,56.4381885 C60.1468788,54.7784578 59.625459,53.2802938 58.8176255,51.877601 Z M54.8151775,58.5312118 C54.1028152,58.7955936 53.3537332,58.8617625 52.5973072,58.8617625 C44.871481,58.8543452 37.1529988,58.8617625 29.4271726,58.8617625 L6.66095471,58.8617625 C6.04406365,58.8617625 5.42717258,58.869033 4.81028152,58.7368421 C3.01835985,58.3623011 2.30599755,57.3121175 2.66585067,55.5201958 C2.8494492,54.6168911 3.23133415,53.7870257 3.66462668,52.9791922 C9.10648715,42.8445532 14.5483476,32.7099143 20.004896,22.5826193 C20.2839657,22.0685435 20.4014688,21.5544676 20.4014688,20.9742962 C20.379437,17.7209302 20.379437,14.4602203 20.4014688,11.2068543 C20.4088127,10.6046512 20.2913097,10.3255814 19.6156671,10.3916769 C18.9253366,10.4577723 18.2129743,10.4210526 17.5152999,10.3990208 C16.1860465,10.3623011 15.253366,9.42962056 15.2166463,8.09302326 C15.1946144,7.31456548 15.2093023,6.52876377 15.2166463,5.750306 C15.2313341,4.16401469 16.1419829,3.25336597 17.7356181,3.25336597 C24.4920441,3.24602203 31.2411261,3.25336597 37.997552,3.25336597 C39.0991432,3.25336597 40.2007344,3.23867809 41.3096695,3.26070991 C42.749082,3.29008568 43.6670747,4.20807834 43.6891065,5.64749082 C43.7037944,6.45532436 43.6964504,7.26315789 43.6817625,8.07099143 C43.6523868,9.45165239 42.7197062,10.376989 41.3243574,10.3990208 C40.5752754,10.4137087 39.8188494,10.4283966 39.0624235,10.3990208 C38.6364749,10.3843329 38.5116279,10.5238678 38.5116279,10.9498164 C38.5263158,14.4749082 38.5263158,18 38.5116279,21.5250918 C38.5116279,21.9290086 38.7099143,22.244798 38.8861689,22.5679315 C44.372093,32.7686659 49.8580171,42.9694002 55.3365973,53.1774786 C55.8873929,54.2056304 56.3427173,55.255814 56.2913097,56.4602203 C56.25459,57.5104039 55.7992656,58.1713586 54.8151775,58.5312118 Z M37.9314565,26.871481 C37.6523868,26.3574051 37.4100367,26.3353733 36.9326805,26.5850673 C34.9351285,27.6425949 33.2239902,29.0526316 31.6891065,30.6976744 C30.7564259,31.7037944 29.8384333,32.7172583 28.869033,33.6940024 C27.3488372,35.2288862 25.4908201,35.8090575 23.3463892,35.5740514 C21.4443084,35.3610771 19.5569155,35.0599755 17.750306,34.4504284 C17.0746634,34.2227662 16.8249694,34.4137087 16.5165239,34.9791922 C14.1664627,39.3268054 11.7723378,43.6597307 9.40758874,47.9926561 C8.11505508,50.3500612 6.81517748,52.7001224 5.56670747,55.0795594 C5.00856793,56.1444308 5.09669523,56.2325581 6.28641371,56.2325581 L51.9657283,56.2325581 C54,56.2325581 54.0146879,56.2252142 53.0379437,54.4406365 C48.0073439,45.253366 42.9547124,36.0660955 37.9314565,26.871481 Z M32.5703794,50.5777234 C30.9326805,51.0477356 29.2068543,50.0709914 28.75153,48.4186047 C28.2815177,46.7221542 29.1995104,45.0844553 30.8812729,44.5997552 C32.5336597,44.122399 34.252142,45.0697674 34.7221542,46.7221542 C35.1921665,48.3378213 34.1933905,50.1150551 32.5703794,50.5777234 Z M39.6572827,43.747858 C37.747858,44.3133415 35.6842105,43.1529988 35.1481028,41.2068543 C34.6119951,39.2680539 35.7943696,37.2117503 37.7258262,36.7197062 C39.6572827,36.2276622 41.5960832,37.3586291 42.124847,39.2900857 C42.6536108,41.2288862 41.5667075,43.1823745 39.6572827,43.747858 Z M29.8971848,17.0159288 C32.8567931,17.0085679 35.2362301,14.6438188 35.2435911,11.6988984 C35.250918,8.70257038 32.878825,6.3378213 29.8678091,6.33047736 C26.9228886,6.33047736 24.514059,8.71725826 24.514059,11.6474908 C24.5067319,14.6364749 26.9008568,17.0232558 29.8971848,17.0159288 Z M27.7600979,27.5985312 C29.9265606,27.5618115 31.5936353,25.8286414 31.5716034,23.6474908 C31.5495716,21.5544676 29.8531212,19.8947368 27.74541,19.9020565 C25.5716034,19.9094247 23.8384333,21.6425949 23.8678091,23.7870257 C23.8898409,25.880049 25.6891065,27.6425949 27.7600979,27.5985312 Z" transform="translate(.5 .086)"/>
</svg>
