<svg xmlns="http://www.w3.org/2000/svg" width="86" height="87" viewBox="0 0 86 87">
  <path fill="#73328D" d="M217.526304,88.5452882 C214.919945,92.7646386 213.424977,97.7216377 213.424977,103.032708 C213.424977,118.257777 225.787969,130.640439 241.013038,130.640439 C256.218435,130.640439 268.601098,118.257777 268.601098,103.032708 C268.601098,87.8076395 256.218435,75.4151418 241.003202,75.4151418 C235.701967,75.4151418 230.735133,76.9199451 226.525618,79.5263038 L230.243367,83.2440531 C233.44968,81.4933669 237.098582,80.5 241.013038,80.5 C253.405535,80.5098353 263.506404,90.6205398 263.506404,103.013038 C263.506404,115.425206 253.415371,125.51624 241.022873,125.51624 C228.630375,125.51624 218.519671,115.425206 218.519671,103.022873 C218.519671,99.1280878 219.513038,95.4791857 221.253888,92.2532022 L217.526304,88.5452882 Z M227.84355,98.8822049 C227.420631,100.180467 227.204254,101.577081 227.204254,103.013038 C227.204254,110.615737 233.380833,116.811985 240.993367,116.811985 C248.586231,116.811985 254.782479,110.625572 254.782479,103.013038 C254.782479,95.4005032 248.596066,89.2140897 240.993367,89.2140897 C239.53774,89.2140897 238.150961,89.4501372 236.842864,89.8730558 L241.308097,94.3284538 C245.960201,94.4956542 249.668115,98.3117566 249.668115,103.013038 C249.668115,107.812672 245.783166,111.727127 240.973696,111.727127 C236.272415,111.727127 232.456313,108.009378 232.289113,103.347438 L227.84355,98.8822049 Z M204.986276,81.4146844 C201.170174,87.728957 198.986734,95.1349497 198.986734,103.022873 C198.986734,126.214547 217.821363,145.059012 241.003202,145.059012 C264.165371,145.059012 283,126.214547 283,103.022873 C283,79.8508692 264.165371,60.9965691 241.003202,60.9965691 C233.115279,60.9965691 225.709286,63.1800091 219.404849,66.9961116 L223.122598,70.7138609 C228.413998,67.7731016 234.521729,66.0912626 241.013038,66.0912626 C261.35247,66.0912626 277.924977,82.6637694 277.924977,103.032708 C277.924977,123.401647 261.362306,139.964318 241.013038,139.964318 C220.663769,139.964318 204.091263,123.401647 204.091263,103.032708 C204.091263,96.5413998 205.773102,90.4336688 208.713861,85.142269 L204.986276,81.4146844 Z M197,68.0091491 L204.199451,66.2092864 L205.999314,59 L219.513038,72.5137237 L218.972095,77.3723696 L242.911253,101.331199 C243.90462,102.324565 243.90462,103.937557 242.911253,104.930924 C241.917887,105.934126 240.304895,105.934126 239.311528,104.930924 L215.37237,80.9720952 L210.523559,81.5130375 L197,68.0091491 Z" transform="translate(-197 -59)"/>
</svg>
