<svg xmlns="http://www.w3.org/2000/svg" width="60" height="45" viewBox="0 0 60 45">
  <path d="M29.5068493,27.369863 C21.4383562,23.4041096 6.40410959,16.0616438 1.5890411,13.7260274 C0.746575342,13.3219178 0.0684931507,13.7465753 0.0684931507,14.6780822 L0.0684931507,41.8150685 C0.0684931507,42.7465753 0.821917808,43.5068493 1.75342466,43.5068493 L58.2328767,43.5068493 C59.1643836,43.5068493 59.9246575,42.7534247 59.9246575,41.8219178 L59.9246575,14.7123288 C59.9246575,13.7808219 59.2465753,13.3561644 58.4109589,13.7671233 C53.630137,16.109589 38.7671233,23.4246575 30.8013699,27.3767123 C30.3219178,27.6164384 29.9657534,27.5958904 29.5068493,27.369863 Z M7.98630137,11.6575342 C15.1917808,15.1849315 22.3972603,18.7191781 29.609589,22.2260274 C29.8835616,22.3630137 30.3150685,22.4041096 30.5821918,22.2739726 C40.2260274,17.5410959 49.8561644,12.7739726 59.4931507,8.02739726 C59.8424658,7.85616438 59.9657534,7.65753425 59.9657534,7.25342466 C59.9520548,5.84931507 59.9657534,3.36986301 59.9726027,1.71232877 C59.9726027,0.780821918 59.2123288,0.0205479452 58.2808219,0.0205479452 L1.73287671,0.0205479452 C0.801369863,0.0205479452 0.0342465753,0.773972603 0.0342465753,1.71232877 C0.0342465753,3.37671233 0.0479452055,5.8630137 0.0684931507,7.32191781 C0.0753424658,7.55479452 0.328767123,7.89041096 0.547945205,8 C3.02054795,9.23972603 5.50684932,10.4383562 7.98630137,11.6575342 Z" transform="translate(0 .736)"/>
</svg>
