<svg xmlns="http://www.w3.org/2000/svg" width="87" height="86" viewBox="0 0 87 86">
  <path fill="#73328D" d="M457.009632,887.215379 L457.009632,889.417225 C457.009632,890.292066 456.292066,890.999902 455.427055,890.999902 L372.582577,890.999902 C371.717566,891.009632 371,890.292066 371,889.427055 L371,806.582577 C371,805.717566 371.717566,805 372.582577,805 L374.784424,805 C375.659265,805 376.367001,805.717566 376.367001,806.582577 L376.367001,884.040394 C376.367001,884.915235 377.084567,885.622972 377.949578,885.622972 L455.407395,885.622972 C456.292066,885.632801 457.009632,886.340538 457.009632,887.215379 Z M431.439826,829.085986 C432.312975,829.073565 433.037061,829.768609 433.049482,830.641758 L433.132381,835.504515 C433.144802,836.377665 433.764726,836.720522 434.517051,836.273599 L450.16688,826.853819 C450.919205,826.406896 450.904685,825.697332 450.139939,825.271105 L434.164656,816.418297 C433.399909,815.99207 432.78617,816.363986 432.806927,817.231927 L432.889826,822.094683 C432.910583,822.962624 432.207203,823.691918 431.334053,823.70434 L387.576339,823.526078 C386.723006,823.32907 385.87273,823.860381 385.675723,824.713714 L385.181641,826.853819 C384.984633,827.707152 385.515944,828.557428 386.369277,828.754435 L431.439826,829.085986 Z M387.130492,842.155762 L387.130492,878.663564 C387.130492,879.538405 387.848058,880.246141 388.713069,880.246141 L396.291747,880.246141 C397.166587,880.246141 397.874324,879.528575 397.874324,878.663564 L397.874324,842.155762 C397.874324,841.280921 387.130492,841.280921 387.130492,842.155762 Z M403.130492,842.155762 L403.130492,878.663564 C403.130492,879.538405 403.848058,880.246141 404.713069,880.246141 L412.291747,880.246141 C413.166587,880.246141 413.874324,879.528575 413.874324,878.663564 L413.874324,842.155762 C413.874324,841.280921 403.130492,841.280921 403.130492,842.155762 Z M419.130492,842.155762 L419.130492,878.663564 C419.130492,879.538405 419.848058,880.246141 420.713069,880.246141 L428.291747,880.246141 C429.166587,880.246141 429.874324,879.528575 429.874324,878.663564 L429.874324,842.155762 C429.874324,841.280921 419.130492,841.280921 419.130492,842.155762 Z M435.130492,842.155762 L435.130492,878.663564 C435.130492,879.538405 435.848058,880.246141 436.713069,880.246141 L444.291747,880.246141 C445.166587,880.246141 445.874324,879.528575 445.874324,878.663564 L445.874324,842.155762 C445.874324,841.280921 435.130492,841.280921 435.130492,842.155762 Z" transform="translate(-371 -805)"/>
</svg>
