<svg xmlns="http://www.w3.org/2000/svg" width="802" height="235" viewBox="0 0 802 235">
  <g fill="none" fill-rule="evenodd" transform="translate(.5)">
    <g fill="#FFF" transform="translate(431.5 .5)">
      <text font-family="Inter-Regular_Bold, Inter" font-size="20" font-weight="bold">
        <tspan x=".5" y="19">Liquidity Mining</tspan>
      </text>
      <text fill-opacity=".905" font-family="Inter-Light, Inter" font-size="19" font-weight="300">
        <tspan x=".5" y="57">A share of every experiment is set aside </tspan> <tspan x=".5" y="80">for INR liquidity providers to mine.</tspan>
      </text>
    </g>
    <g fill="#FFF" transform="translate(431.5 149.5)">
      <text font-family="Inter-Regular_Bold, Inter" font-size="20" font-weight="bold">
        <tspan x=".5" y="19">Experiment Mining</tspan>
      </text>
      <text fill-opacity=".905" font-family="Inter-Light, Inter" font-size="19" font-weight="300">
        <tspan x=".5" y="57">A share of every experiment is set aside </tspan> <tspan x=".5" y="80">for INR holders to mine.</tspan>
      </text>
    </g>
    <path fill="#FF0079" fill-rule="nonzero" d="M13.9642857 94.5C15.7738095 94.5 17.4761905 94.1547619 19.0714286 93.4642857 20.6666667 92.7738095 22.0595238 91.8452381 23.25 90.6785714 24.4404762 89.5119048 25.3809524 88.1428571 26.0714286 86.5714286 26.7619048 85 27.1071429 83.3095238 27.1071429 81.5 27.1071429 79.7380952 26.7619048 78.0595238 26.0714286 76.4642857 25.3809524 74.8690476 24.4404762 73.4880952 23.25 72.3214286 22.0595238 71.1547619 20.6666667 70.2261905 19.0714286 69.5357143 17.4761905 68.8452381 15.7738095 68.5 13.9642857 68.5 12.1547619 68.5 10.452381 68.8452381 8.85714286 69.5357143 7.26190476 70.2261905 5.88095238 71.1547619 4.71428571 72.3214286 3.54761905 73.4880952 2.61904762 74.8690476 1.92857143 76.4642857 1.23809524 78.0595238.892857143 79.7380952.892857143 81.5.892857143 83.3095238 1.23809524 85 1.92857143 86.5714286 2.61904762 88.1428571 3.54761905 89.5119048 4.71428571 90.6785714 5.88095238 91.8452381 7.26190476 92.7738095 8.85714286 93.4642857 10.452381 94.1547619 12.1547619 94.5 13.9642857 94.5zM393.980926 13.9427793C394.947321 13.9427793 395.856494 13.7584015 396.708447 13.3896458 397.5604 13.0208901 398.304269 12.5249773 398.940054 11.9019074 399.57584 11.2788374 400.078111 10.5476839 400.446866 9.70844687 400.815622 8.86920981 401 7.96639419 401 7 401 6.05903724 400.815622 5.16257947 400.446866 4.3106267 400.078111 3.45867393 399.57584 2.72116258 398.940054 2.09809264 398.304269 1.47502271 397.5604.9791099 396.708447.610354223 395.856494.241598547 394.947321.0572207084 393.980926.0572207084 393.014532.0572207084 392.105359.241598547 391.253406.610354223 390.401453.9791099 389.663942 1.47502271 389.040872 2.09809264 388.417802 2.72116258 387.921889 3.45867393 387.553134 4.3106267 387.184378 5.16257947 387 6.05903724 387 7 387 7.96639419 387.184378 8.86920981 387.553134 9.70844687 387.921889 10.5476839 388.417802 11.2788374 389.040872 11.9019074 389.663942 12.5249773 390.401453 13.0208901 391.253406 13.3896458 392.105359 13.7584015 393.014532 13.9427793 393.980926 13.9427793zM393.980926 162.942779C394.947321 162.942779 395.856494 162.758401 396.708447 162.389646 397.5604 162.02089 398.304269 161.524977 398.940054 160.901907 399.57584 160.278837 400.078111 159.547684 400.446866 158.708447 400.815622 157.86921 401 156.966394 401 156 401 155.059037 400.815622 154.162579 400.446866 153.310627 400.078111 152.458674 399.57584 151.721163 398.940054 151.098093 398.304269 150.475023 397.5604 149.97911 396.708447 149.610354 395.856494 149.241599 394.947321 149.057221 393.980926 149.057221 393.014532 149.057221 392.105359 149.241599 391.253406 149.610354 390.401453 149.97911 389.663942 150.475023 389.040872 151.098093 388.417802 151.721163 387.921889 152.458674 387.553134 153.310627 387.184378 154.162579 387 155.059037 387 156 387 156.966394 387.184378 157.86921 387.553134 158.708447 387.921889 159.547684 388.417802 160.278837 389.040872 160.901907 389.663942 161.524977 390.401453 162.02089 391.253406 162.389646 392.105359 162.758401 393.014532 162.942779 393.980926 162.942779z" transform="translate(.5 36)"/>
    <path stroke="#FF0079" stroke-dasharray="7" stroke-linecap="square" d="M359.785714.546875L319.285714.546875 319.285714 75.046875.107142857 75.046875M319.285714 77.8613281L319.285714 150 359.785714 150" transform="translate(27.5 42.453)"/>
  </g>
</svg>
