<svg xmlns="http://www.w3.org/2000/svg" width="207" height="75" viewBox="0 0 207 75">
  <g fill="none" transform="translate(.653 .266)">
    <path fill="#FF0079" fill-opacity=".3" d="M5.36132812,24.6640625 C6.10351563,24.6640625 6.80175781,24.5224609 7.45605469,24.2392578 C8.11035156,23.9560547 8.68164062,23.5751953 9.16992188,23.0966797 C9.65820312,22.6181641 10.0439453,22.0566406 10.3271484,21.4121094 C10.6103516,20.7675781 10.7519531,20.0742188 10.7519531,19.3320312 C10.7519531,18.609375 10.6103516,17.9208984 10.3271484,17.2666016 C10.0439453,16.6123047 9.65820312,16.0458984 9.16992188,15.5673828 C8.68164062,15.0888672 8.11035156,14.7080078 7.45605469,14.4248047 C6.80175781,14.1416016 6.10351563,14 5.36132812,14 C4.61914062,14 3.92089844,14.1416016 3.26660156,14.4248047 C2.61230469,14.7080078 2.04589844,15.0888672 1.56738281,15.5673828 C1.08886719,16.0458984 0.708007812,16.6123047 0.424804688,17.2666016 C0.141601562,17.9208984 0,18.609375 0,19.3320312 C0,20.0742188 0.141601562,20.7675781 0.424804688,21.4121094 C0.708007812,22.0566406 1.08886719,22.6181641 1.56738281,23.0966797 C2.04589844,23.5751953 2.61230469,23.9560547 3.26660156,24.2392578 C3.92089844,24.5224609 4.61914062,24.6640625 5.36132812,24.6640625 Z M9.375,59.234375 L9.375,27.8574219 L1.31835938,27.8574219 L1.31835938,59.234375 L9.375,59.234375 Z"/>
    <path fill="#FF0079" fill-opacity=".5" d="M12.3613281,24.6640625 C13.1035156,24.6640625 13.8017578,24.5224609 14.4560547,24.2392578 C15.1103516,23.9560547 15.6816406,23.5751953 16.1699219,23.0966797 C16.6582031,22.6181641 17.0439453,22.0566406 17.3271484,21.4121094 C17.6103516,20.7675781 17.7519531,20.0742188 17.7519531,19.3320312 C17.7519531,18.609375 17.6103516,17.9208984 17.3271484,17.2666016 C17.0439453,16.6123047 16.6582031,16.0458984 16.1699219,15.5673828 C15.6816406,15.0888672 15.1103516,14.7080078 14.4560547,14.4248047 C13.8017578,14.1416016 13.1035156,14 12.3613281,14 C11.6191406,14 10.9208984,14.1416016 10.2666016,14.4248047 C9.61230469,14.7080078 9.04589844,15.0888672 8.56738281,15.5673828 C8.08886719,16.0458984 7.70800781,16.6123047 7.42480469,17.2666016 C7.14160156,17.9208984 7,18.609375 7,19.3320312 C7,20.0742188 7.14160156,20.7675781 7.42480469,21.4121094 C7.70800781,22.0566406 8.08886719,22.6181641 8.56738281,23.0966797 C9.04589844,23.5751953 9.61230469,23.9560547 10.2666016,24.2392578 C10.9208984,24.5224609 11.6191406,24.6640625 12.3613281,24.6640625 Z M16.375,59.234375 L16.375,27.8574219 L8.31835938,27.8574219 L8.31835938,59.234375 L16.375,59.234375 Z"/>
    <path fill="#FF0079" fill-opacity=".7" d="M19.3613281,24.6640625 C20.1035156,24.6640625 20.8017578,24.5224609 21.4560547,24.2392578 C22.1103516,23.9560547 22.6816406,23.5751953 23.1699219,23.0966797 C23.6582031,22.6181641 24.0439453,22.0566406 24.3271484,21.4121094 C24.6103516,20.7675781 24.7519531,20.0742188 24.7519531,19.3320312 C24.7519531,18.609375 24.6103516,17.9208984 24.3271484,17.2666016 C24.0439453,16.6123047 23.6582031,16.0458984 23.1699219,15.5673828 C22.6816406,15.0888672 22.1103516,14.7080078 21.4560547,14.4248047 C20.8017578,14.1416016 20.1035156,14 19.3613281,14 C18.6191406,14 17.9208984,14.1416016 17.2666016,14.4248047 C16.6123047,14.7080078 16.0458984,15.0888672 15.5673828,15.5673828 C15.0888672,16.0458984 14.7080078,16.6123047 14.4248047,17.2666016 C14.1416016,17.9208984 14,18.609375 14,19.3320312 C14,20.0742188 14.1416016,20.7675781 14.4248047,21.4121094 C14.7080078,22.0566406 15.0888672,22.6181641 15.5673828,23.0966797 C16.0458984,23.5751953 16.6123047,23.9560547 17.2666016,24.2392578 C17.9208984,24.5224609 18.6191406,24.6640625 19.3613281,24.6640625 Z M23.375,59.234375 L23.375,27.8574219 L15.3183594,27.8574219 L15.3183594,59.234375 L23.375,59.234375 Z"/>
    <path fill="#FF0079" fill-opacity=".8" d="M26.3613281,24.6640625 C27.1035156,24.6640625 27.8017578,24.5224609 28.4560547,24.2392578 C29.1103516,23.9560547 29.6816406,23.5751953 30.1699219,23.0966797 C30.6582031,22.6181641 31.0439453,22.0566406 31.3271484,21.4121094 C31.6103516,20.7675781 31.7519531,20.0742188 31.7519531,19.3320312 C31.7519531,18.609375 31.6103516,17.9208984 31.3271484,17.2666016 C31.0439453,16.6123047 30.6582031,16.0458984 30.1699219,15.5673828 C29.6816406,15.0888672 29.1103516,14.7080078 28.4560547,14.4248047 C27.8017578,14.1416016 27.1035156,14 26.3613281,14 C25.6191406,14 24.9208984,14.1416016 24.2666016,14.4248047 C23.6123047,14.7080078 23.0458984,15.0888672 22.5673828,15.5673828 C22.0888672,16.0458984 21.7080078,16.6123047 21.4248047,17.2666016 C21.1416016,17.9208984 21,18.609375 21,19.3320312 C21,20.0742188 21.1416016,20.7675781 21.4248047,21.4121094 C21.7080078,22.0566406 22.0888672,22.6181641 22.5673828,23.0966797 C23.0458984,23.5751953 23.6123047,23.9560547 24.2666016,24.2392578 C24.9208984,24.5224609 25.6191406,24.6640625 26.3613281,24.6640625 Z M30.375,59.234375 L30.375,27.8574219 L22.3183594,27.8574219 L22.3183594,59.234375 L30.375,59.234375 Z"/>
    <path fill="#FFF" d="M33.3613281 24.6640625C34.1035156 24.6640625 34.8017578 24.5224609 35.4560547 24.2392578 36.1103516 23.9560547 36.6816406 23.5751953 37.1699219 23.0966797 37.6582031 22.6181641 38.0439453 22.0566406 38.3271484 21.4121094 38.6103516 20.7675781 38.7519531 20.0742188 38.7519531 19.3320312 38.7519531 18.609375 38.6103516 17.9208984 38.3271484 17.2666016 38.0439453 16.6123047 37.6582031 16.0458984 37.1699219 15.5673828 36.6816406 15.0888672 36.1103516 14.7080078 35.4560547 14.4248047 34.8017578 14.1416016 34.1035156 14 33.3613281 14 32.6191406 14 31.9208984 14.1416016 31.2666016 14.4248047 30.6123047 14.7080078 30.0458984 15.0888672 29.5673828 15.5673828 29.0888672 16.0458984 28.7080078 16.6123047 28.4248047 17.2666016 28.1416016 17.9208984 28 18.609375 28 19.3320312 28 20.0742188 28.1416016 20.7675781 28.4248047 21.4121094 28.7080078 22.0566406 29.0888672 22.6181641 29.5673828 23.0966797 30.0458984 23.5751953 30.6123047 23.9560547 31.2666016 24.2392578 31.9208984 24.5224609 32.6191406 24.6640625 33.3613281 24.6640625zM37.375 59.234375L37.375 27.8574219 29.3183594 27.8574219 29.3183594 59.234375 37.375 59.234375zM49.75 59L49.75 41.0703125C49.75 40.25 49.90625 39.4736328 50.21875 38.7412109 50.53125 38.0087891 50.9609375 37.3691406 51.5078125 36.8222656 52.0546875 36.2753906 52.6992188 35.8457031 53.4414062 35.5332031 54.1835938 35.2207031 54.9746094 35.0644531 55.8144531 35.0644531 56.6347656 35.0644531 57.40625 35.2207031 58.1289062 35.5332031 58.8515625 35.8457031 59.4863281 36.2753906 60.0332031 36.8222656 60.5800781 37.3691406 61.0097656 38.0087891 61.3222656 38.7412109 61.6347656 39.4736328 61.7910156 40.25 61.7910156 41.0703125L61.7910156 41.0703125 61.7910156 59 69.7890625 59 69.7890625 41.0703125C69.7890625 39.1367188 69.4228516 37.3154297 68.6904297 35.6064453 67.9580078 33.8974609 66.9570312 32.4033203 65.6875 31.1240234 64.4179688 29.8447266 62.9335938 28.8388672 61.234375 28.1064453 59.5351562 27.3740234 57.7285156 27.0078125 55.8144531 27.0078125 54.0371094 27.0078125 52.3330078 27.3251953 50.7021484 27.9599609 49.0712891 28.5947266 47.6113281 29.4980469 46.3222656 30.6699219L46.3222656 30.6699219 43.6855469 27.6230469 41.7519531 27.6230469 41.7519531 59 49.75 59zM89.828125 59.5859375C91.1367188 59.5859375 92.4111328 59.4345703 93.6513672 59.1318359 94.8916016 58.8291016 96.0732422 58.3847656 97.1962891 57.7988281 98.3193359 57.2128906 99.3642578 56.5 100.331055 55.6601562 101.297852 54.8203125 102.152344 53.8730469 102.894531 52.8183594L102.894531 52.8183594 97.0351562 46.9296875C96.7226562 47.6328125 96.3173828 48.2724609 95.8193359 48.8486328 95.3212891 49.4248047 94.7548828 49.9130859 94.1201172 50.3134766 93.4853516 50.7138672 92.8066406 51.0214844 92.0839844 51.2363281 91.3613281 51.4511719 90.609375 51.5585938 89.828125 51.5585938 89.515625 51.5585938 89.203125 51.5439453 88.890625 51.5146484 88.578125 51.4853516 88.265625 51.421875 87.953125 51.3242188L87.953125 51.3242188 102.953125 33.2480469C102.210938 32.1933594 101.351562 31.2412109 100.375 30.3916016 99.3984375 29.5419922 98.3486328 28.8242188 97.2255859 28.2382812 96.1025391 27.6523438 94.9160156 27.203125 93.6660156 26.890625 92.4160156 26.578125 91.1367188 26.421875 89.828125 26.421875 87.6210938 26.421875 85.5458984 26.8222656 83.6025391 27.6230469 81.6591797 28.4238281 79.9599609 29.546875 78.5048828 30.9921875 77.0498047 32.4375 75.9023438 34.1855469 75.0625 36.2363281 74.2226562 38.2871094 73.8027344 40.5527344 73.8027344 43.0332031 73.8027344 45.4550781 74.2226562 47.6767578 75.0625 49.6982422 75.9023438 51.7197266 77.0498047 53.4628906 78.5048828 54.9277344 79.9599609 56.3925781 81.6591797 57.5351562 83.6025391 58.3554688 85.5458984 59.1757812 87.6210938 59.5859375 89.828125 59.5859375zM82.7382812 47.1933594C82.5820312 46.9199219 82.4550781 46.6074219 82.3574219 46.2558594 82.2597656 45.9042969 82.1767578 45.5380859 82.1083984 45.1572266 82.0400391 44.7763672 81.9912109 44.4003906 81.9619141 44.0292969 81.9326172 43.6582031 81.9179688 43.3261719 81.9179688 43.0332031 81.9179688 41.7246094 82.1230469 40.5478516 82.5332031 39.5029297 82.9433594 38.4580078 83.5048828 37.5644531 84.2177734 36.8222656 84.9306641 36.0800781 85.7705078 35.5087891 86.7373047 35.1083984 87.7041016 34.7080078 88.734375 34.5078125 89.828125 34.5078125 90.21875 34.5078125 90.5947266 34.5273438 90.9560547 34.5664062 91.3173828 34.6054688 91.6835938 34.6933594 92.0546875 34.8300781L92.0546875 34.8300781 82.7382812 47.1933594zM114.964844 59L114.964844 41.7148438C114.964844 40.875 115.121094 40.0839844 115.433594 39.3417969 115.746094 38.5996094 116.175781 37.9550781 116.722656 37.4082031 117.269531 36.8613281 117.914062 36.4316406 118.65625 36.1191406 119.398438 35.8066406 120.189453 35.6503906 121.029297 35.6503906L121.029297 35.6503906 128.089844 35.6503906 128.089844 27.6816406 121.029297 27.6816406C119.271484 27.6816406 117.572266 27.9990234 115.931641 28.6337891 114.291016 29.2685547 112.826172 30.171875 111.537109 31.34375L111.537109 31.34375 108.900391 27.6230469 106.966797 27.6230469 106.966797 59 114.964844 59zM153.607422 59L153.607422 51.03125 147.542969 51.03125C146.703125 51.03125 145.912109 50.8701172 145.169922 50.5478516 144.427734 50.2255859 143.783203 49.7910156 143.236328 49.2441406 142.689453 48.6972656 142.259766 48.0576172 141.947266 47.3251953 141.634766 46.5927734 141.478516 45.8066406 141.478516 44.9667969L141.478516 44.9667969 141.478516 35.6503906 153.607422 35.6503906 153.607422 27.6816406 141.478516 27.6816406 141.478516 15.1425781 133.509766 15.1425781 133.509766 27.6816406 129.613281 27.6816406 129.613281 35.6503906 133.509766 35.6503906 133.509766 44.9667969C133.509766 46.9003906 133.875977 48.7167969 134.608398 50.4160156 135.34082 52.1152344 136.34668 53.6044922 137.625977 54.8837891 138.905273 56.1630859 140.394531 57.1689453 142.09375 57.9013672 143.792969 58.6337891 145.609375 59 147.542969 59L147.542969 59 153.607422 59zM162.132812 24.4296875C162.875 24.4296875 163.573242 24.2880859 164.227539 24.0048828 164.881836 23.7216797 165.453125 23.3408203 165.941406 22.8623047 166.429688 22.3837891 166.81543 21.8222656 167.098633 21.1777344 167.381836 20.5332031 167.523438 19.8398438 167.523438 19.0976562 167.523438 18.375 167.381836 17.6865234 167.098633 17.0322266 166.81543 16.3779297 166.429688 15.8115234 165.941406 15.3330078 165.453125 14.8544922 164.881836 14.4736328 164.227539 14.1904297 163.573242 13.9072266 162.875 13.765625 162.132812 13.765625 161.390625 13.765625 160.692383 13.9072266 160.038086 14.1904297 159.383789 14.4736328 158.817383 14.8544922 158.338867 15.3330078 157.860352 15.8115234 157.479492 16.3779297 157.196289 17.0322266 156.913086 17.6865234 156.771484 18.375 156.771484 19.0976562 156.771484 19.8398438 156.913086 20.5332031 157.196289 21.1777344 157.479492 21.8222656 157.860352 22.3837891 158.338867 22.8623047 158.817383 23.3408203 159.383789 23.7216797 160.038086 24.0048828 160.692383 24.2880859 161.390625 24.4296875 162.132812 24.4296875zM166.146484 59L166.146484 27.6230469 158.089844 27.6230469 158.089844 59 166.146484 59zM186.595703 59.5859375C187.611328 59.5859375 188.612305 59.4589844 189.598633 59.2050781 190.584961 58.9511719 191.546875 58.6044922 192.484375 58.1650391 193.421875 57.7255859 194.31543 57.2080078 195.165039 56.6123047 196.014648 56.0166016 196.820312 55.3769531 197.582031 54.6933594L197.582031 54.6933594 200.6875 59 202.621094 59 202.621094 27.6816406 200.6875 27.6816406 197.582031 31.4023438C196.839844 30.6992188 196.043945 30.0449219 195.194336 29.4394531 194.344727 28.8339844 193.451172 28.3066406 192.513672 27.8574219 191.576172 27.4082031 190.609375 27.0566406 189.613281 26.8027344 188.617188 26.5488281 187.611328 26.421875 186.595703 26.421875 184.388672 26.421875 182.313477 26.8271484 180.370117 27.6376953 178.426758 28.4482422 176.727539 29.5859375 175.272461 31.0507812 173.817383 32.515625 172.669922 34.2685547 171.830078 36.3095703 170.990234 38.3505859 170.570312 40.5917969 170.570312 43.0332031 170.570312 45.6503906 170.990234 47.984375 171.830078 50.0351562 172.669922 52.0859375 173.817383 53.8193359 175.272461 55.2353516 176.727539 56.6513672 178.426758 57.7304688 180.370117 58.4726562 182.313477 59.2148438 184.388672 59.5859375 186.595703 59.5859375zM186.595703 51.5585938C185.501953 51.5585938 184.47168 51.3730469 183.504883 51.0019531 182.538086 50.6308594 181.698242 50.0839844 180.985352 49.3613281 180.272461 48.6386719 179.710938 47.7451172 179.300781 46.6806641 178.890625 45.6162109 178.685547 44.4003906 178.685547 43.0332031 178.685547 41.6660156 178.890625 40.4501953 179.300781 39.3857422 179.710938 38.3212891 180.272461 37.4277344 180.985352 36.7050781 181.698242 35.9824219 182.538086 35.4355469 183.504883 35.0644531 184.47168 34.6933594 185.501953 34.5078125 186.595703 34.5078125 187.689453 34.5078125 188.719727 34.7470703 189.686523 35.2255859 190.65332 35.7041016 191.498047 36.3388672 192.220703 37.1298828 192.943359 37.9208984 193.514648 38.8291016 193.93457 39.8544922 194.354492 40.8798828 194.564453 41.9394531 194.564453 43.0332031 194.564453 44.1269531 194.354492 45.1865234 193.93457 46.2119141 193.514648 47.2373047 192.943359 48.1455078 192.220703 48.9365234 191.498047 49.7275391 190.65332 50.3623047 189.686523 50.8408203 188.719727 51.3193359 187.689453 51.5585938 186.595703 51.5585938z"/>
  </g>
</svg>
