<svg xmlns="http://www.w3.org/2000/svg" width="118" height="32" viewBox="0 0 118 32">
  <path fill="#FFF" d="M4.85546875,15.953125 C5.35026042,15.953125 5.81575521,15.858724 6.25195312,15.6699219 C6.68815104,15.4811198 7.06901042,15.2272135 7.39453125,14.9082031 C7.72005208,14.5891927 7.97721354,14.2148438 8.16601562,13.7851562 C8.35481771,13.3554688 8.44921875,12.8932292 8.44921875,12.3984375 C8.44921875,11.9166667 8.35481771,11.4576823 8.16601562,11.0214844 C7.97721354,10.5852865 7.72005208,10.2076823 7.39453125,9.88867188 C7.06901042,9.56966146 6.68815104,9.31575521 6.25195312,9.12695312 C5.81575521,8.93815104 5.35026042,8.84375 4.85546875,8.84375 C4.36067708,8.84375 3.89518229,8.93815104 3.45898438,9.12695312 C3.02278646,9.31575521 2.64518229,9.56966146 2.32617188,9.88867188 C2.00716146,10.2076823 1.75325521,10.5852865 1.56445312,11.0214844 C1.37565104,11.4576823 1.28125,11.9166667 1.28125,12.3984375 C1.28125,12.8932292 1.37565104,13.3554688 1.56445312,13.7851562 C1.75325521,14.2148438 2.00716146,14.5891927 2.32617188,14.9082031 C2.64518229,15.2272135 3.02278646,15.4811198 3.45898438,15.6699219 C3.89518229,15.858724 4.36067708,15.953125 4.85546875,15.953125 Z M7.53125,39 L7.53125,18.0820312 L2.16015625,18.0820312 L2.16015625,39 L7.53125,39 Z M16.9257812,39 L16.9257812,27.046875 C16.9257812,26.5 17.0299479,25.9824219 17.2382812,25.4941406 C17.4466146,25.0058594 17.7330729,24.5794271 18.0976562,24.2148438 C18.4622396,23.8502604 18.8919271,23.5638021 19.3867188,23.3554688 C19.8815104,23.1471354 20.4088542,23.0429688 20.96875,23.0429688 C21.515625,23.0429688 22.0299479,23.1471354 22.5117188,23.3554688 C22.9934896,23.5638021 23.4166667,23.8502604 23.78125,24.2148438 C24.1458333,24.5794271 24.4322917,25.0058594 24.640625,25.4941406 C24.8489583,25.9824219 24.953125,26.5 24.953125,27.046875 L24.953125,27.046875 L24.953125,39 L30.2851562,39 L30.2851562,27.046875 C30.2851562,25.7578125 30.0410156,24.5436198 29.5527344,23.4042969 C29.0644531,22.264974 28.3971354,21.2688802 27.5507812,20.4160156 C26.7044271,19.563151 25.7148438,18.8925781 24.5820312,18.4042969 C23.4492188,17.9160156 22.2447917,17.671875 20.96875,17.671875 C19.7838542,17.671875 18.6477865,17.8834635 17.5605469,18.3066406 C16.4733073,18.7298177 15.5,19.3320312 14.640625,20.1132812 L14.640625,20.1132812 L12.8828125,18.0820312 L11.59375,18.0820312 L11.59375,39 L16.9257812,39 Z M43.6445312,39.390625 C44.5169271,39.390625 45.3665365,39.2897135 46.1933594,39.0878906 C47.0201823,38.8860677 47.8079427,38.5898438 48.5566406,38.1992188 C49.3053385,37.8085938 50.0019531,37.3333333 50.6464844,36.7734375 C51.2910156,36.2135417 51.8606771,35.5820312 52.3554688,34.8789062 L52.3554688,34.8789062 L48.4492188,30.953125 C48.2408854,31.421875 47.9707031,31.8483073 47.6386719,32.2324219 C47.3066406,32.6165365 46.9290365,32.9420573 46.5058594,33.2089844 C46.0826823,33.4759115 45.6302083,33.6809896 45.1484375,33.8242188 C44.6666667,33.9674479 44.1653646,34.0390625 43.6445312,34.0390625 C43.4361979,34.0390625 43.2278646,34.0292969 43.0195312,34.0097656 C42.8111979,33.9902344 42.6028646,33.9479167 42.3945312,33.8828125 L42.3945312,33.8828125 L52.3945312,21.8320312 C51.8997396,21.1289062 51.3268229,20.4941406 50.6757812,19.9277344 C50.0247396,19.3613281 49.3248698,18.8828125 48.5761719,18.4921875 C47.827474,18.1015625 47.0364583,17.8020833 46.203125,17.59375 C45.3697917,17.3854167 44.5169271,17.28125 43.6445312,17.28125 C42.1731771,17.28125 40.7897135,17.5481771 39.4941406,18.0820312 C38.1985677,18.6158854 37.0657552,19.3645833 36.0957031,20.328125 C35.125651,21.2916667 34.3606771,22.4570312 33.8007812,23.8242188 C33.2408854,25.1914062 32.9609375,26.7018229 32.9609375,28.3554688 C32.9609375,29.9700521 33.2408854,31.4511719 33.8007812,32.7988281 C34.3606771,34.1464844 35.125651,35.3085938 36.0957031,36.2851562 C37.0657552,37.2617188 38.1985677,38.0234375 39.4941406,38.5703125 C40.7897135,39.1171875 42.1731771,39.390625 43.6445312,39.390625 Z M38.9179688,31.1289062 C38.8138021,30.9466146 38.7291667,30.7382812 38.6640625,30.5039062 C38.5989583,30.2695312 38.5436198,30.0253906 38.4980469,29.7714844 C38.452474,29.5175781 38.4199219,29.2669271 38.4003906,29.0195312 C38.3808594,28.7721354 38.3710938,28.5507812 38.3710938,28.3554688 C38.3710938,27.4830729 38.5078125,26.6985677 38.78125,26.0019531 C39.0546875,25.3053385 39.4290365,24.7096354 39.9042969,24.2148438 C40.3795573,23.7200521 40.9394531,23.3391927 41.5839844,23.0722656 C42.2285156,22.8053385 42.9153646,22.671875 43.6445312,22.671875 C43.9049479,22.671875 44.155599,22.6848958 44.3964844,22.7109375 C44.6373698,22.7369792 44.8815104,22.7955729 45.1289062,22.8867188 L45.1289062,22.8867188 L38.9179688,31.1289062 Z M60.4023438,39 L60.4023438,27.4765625 C60.4023438,26.9166667 60.5065104,26.3893229 60.7148438,25.8945312 C60.9231771,25.3997396 61.2096354,24.9700521 61.5742188,24.6054688 C61.9388021,24.2408854 62.3684896,23.9544271 62.8632812,23.7460938 C63.3580729,23.5377604 63.8854167,23.4335938 64.4453125,23.4335938 L64.4453125,23.4335938 L69.1523438,23.4335938 L69.1523438,18.1210938 L64.4453125,18.1210938 C63.2734375,18.1210938 62.140625,18.3326823 61.046875,18.7558594 C59.953125,19.1790365 58.9765625,19.78125 58.1171875,20.5625 L58.1171875,20.5625 L56.359375,18.0820312 L55.0703125,18.0820312 L55.0703125,39 L60.4023438,39 Z M86.1640625,39 L86.1640625,33.6875 L82.1210938,33.6875 C81.5611979,33.6875 81.0338542,33.5800781 80.5390625,33.3652344 C80.0442708,33.1503906 79.6145833,32.8606771 79.25,32.4960938 C78.8854167,32.1315104 78.5989583,31.7050781 78.390625,31.2167969 C78.1822917,30.7285156 78.078125,30.2044271 78.078125,29.6445312 L78.078125,29.6445312 L78.078125,23.4335938 L86.1640625,23.4335938 L86.1640625,18.1210938 L78.078125,18.1210938 L78.078125,9.76171875 L72.765625,9.76171875 L72.765625,18.1210938 L70.1679688,18.1210938 L70.1679688,23.4335938 L72.765625,23.4335938 L72.765625,29.6445312 C72.765625,30.9335938 73.0097656,32.1445312 73.4980469,33.2773438 C73.9863281,34.4101562 74.656901,35.4029948 75.5097656,36.2558594 C76.3626302,37.108724 77.3554688,37.7792969 78.4882812,38.2675781 C79.6210938,38.7558594 80.8320312,39 82.1210938,39 L82.1210938,39 L86.1640625,39 Z M91.8476562,15.953125 C92.3424479,15.953125 92.8079427,15.858724 93.2441406,15.6699219 C93.6803385,15.4811198 94.0611979,15.2272135 94.3867188,14.9082031 C94.7122396,14.5891927 94.969401,14.2148438 95.1582031,13.7851562 C95.3470052,13.3554688 95.4414062,12.8932292 95.4414062,12.3984375 C95.4414062,11.9166667 95.3470052,11.4576823 95.1582031,11.0214844 C94.969401,10.5852865 94.7122396,10.2076823 94.3867188,9.88867188 C94.0611979,9.56966146 93.6803385,9.31575521 93.2441406,9.12695312 C92.8079427,8.93815104 92.3424479,8.84375 91.8476562,8.84375 C91.3528646,8.84375 90.8873698,8.93815104 90.4511719,9.12695312 C90.014974,9.31575521 89.6373698,9.56966146 89.3183594,9.88867188 C88.999349,10.2076823 88.7454427,10.5852865 88.5566406,11.0214844 C88.3678385,11.4576823 88.2734375,11.9166667 88.2734375,12.3984375 C88.2734375,12.8932292 88.3678385,13.3554688 88.5566406,13.7851562 C88.7454427,14.2148438 88.999349,14.5891927 89.3183594,14.9082031 C89.6373698,15.2272135 90.014974,15.4811198 90.4511719,15.6699219 C90.8873698,15.858724 91.3528646,15.953125 91.8476562,15.953125 Z M94.5234375,39 L94.5234375,18.0820312 L89.1523438,18.0820312 L89.1523438,39 L94.5234375,39 Z M108.15625,39.390625 C108.833333,39.390625 109.500651,39.3059896 110.158203,39.1367188 C110.815755,38.9674479 111.457031,38.7363281 112.082031,38.4433594 C112.707031,38.1503906 113.302734,37.8053385 113.869141,37.4082031 C114.435547,37.0110677 114.972656,36.5846354 115.480469,36.1289062 L115.480469,36.1289062 L117.550781,39 L118.839844,39 L118.839844,18.1210938 L117.550781,18.1210938 L115.480469,20.6015625 C114.985677,20.1328125 114.455078,19.6966146 113.888672,19.2929688 C113.322266,18.8893229 112.726562,18.5377604 112.101562,18.2382812 C111.476562,17.9388021 110.832031,17.7044271 110.167969,17.5351562 C109.503906,17.3658854 108.833333,17.28125 108.15625,17.28125 C106.684896,17.28125 105.301432,17.5514323 104.005859,18.0917969 C102.710286,18.6321615 101.577474,19.390625 100.607422,20.3671875 C99.6373698,21.34375 98.8723958,22.5123698 98.3125,23.8730469 C97.7526042,25.233724 97.4726562,26.7278646 97.4726562,28.3554688 C97.4726562,30.1002604 97.7526042,31.65625 98.3125,33.0234375 C98.8723958,34.390625 99.6373698,35.546224 100.607422,36.4902344 C101.577474,37.4342448 102.710286,38.1536458 104.005859,38.6484375 C105.301432,39.1432292 106.684896,39.390625 108.15625,39.390625 Z M108.15625,34.0390625 C107.427083,34.0390625 106.740234,33.9153646 106.095703,33.6679688 C105.451172,33.4205729 104.891276,33.0559896 104.416016,32.5742188 C103.940755,32.0924479 103.566406,31.4967448 103.292969,30.7871094 C103.019531,30.077474 102.882812,29.2669271 102.882812,28.3554688 C102.882812,27.4440104 103.019531,26.6334635 103.292969,25.9238281 C103.566406,25.2141927 103.940755,24.6184896 104.416016,24.1367188 C104.891276,23.6549479 105.451172,23.2903646 106.095703,23.0429688 C106.740234,22.7955729 107.427083,22.671875 108.15625,22.671875 C108.885417,22.671875 109.572266,22.8313802 110.216797,23.1503906 C110.861328,23.469401 111.424479,23.8925781 111.90625,24.4199219 C112.388021,24.9472656 112.76888,25.5527344 113.048828,26.2363281 C113.328776,26.9199219 113.46875,27.6263021 113.46875,28.3554688 C113.46875,29.0846354 113.328776,29.7910156 113.048828,30.4746094 C112.76888,31.1582031 112.388021,31.7636719 111.90625,32.2910156 C111.424479,32.8183594 110.861328,33.2415365 110.216797,33.5605469 C109.572266,33.8795573 108.885417,34.0390625 108.15625,34.0390625 Z" transform="translate(-1 -8)"/>
</svg>
