<svg xmlns="http://www.w3.org/2000/svg" width="181" height="43" viewBox="0 0 181 43">
  <g fill="none">
    <g transform="translate(0 1)">
      <path fill="#EFC2D3" d="M11.0324661,2.7046317 C11.8873495,1.21707418 13.2845442,0.406565438 14.9943109,0.406565438 C16.8419077,0.406565438 18.2832753,1.2632641 19.3182792,3.01713644 L20.8496734,5.58360178 L15.5347397,14.7721017 L6.93453933,9.77310163 L11.0324661,2.7046317 Z M11.6611735,37.7820112 C9.09470816,37.7820112 6.97864499,35.6656119 6.97864499,33.0992138 C6.97864499,32.37853 7.29484761,31.161523 7.74524977,30.3967336 L9.18473481,27.8302682 L19.858708,27.8302682 L19.858708,37.7820112 L11.6611735,37.7820112 L11.6611735,37.7820112 Z M41.6077738,19.8146696 C42.0140703,20.5353534 42.2401791,21.3001428 42.2401791,22.1111222 C42.2401791,23.7326103 41.2032927,25.4439234 39.7638076,26.2528857 C39.0872967,26.6153455 38.1404369,26.8411853 37.1973423,26.8411853 L34.2227651,26.8411853 L28.9112603,17.6526854 L37.5117296,12.7440481 L41.6077738,19.8146696 Z"/>
      <path fill="#FF0079" d="M6.70843058,29.9922524 C6.25802842,30.8011475 5.89953546,32.0182217 5.89953546,32.7850954 C5.89953546,32.9631317 5.89953546,33.1895766 5.94364112,33.5036949 L0.314387298,23.8224353 C0.134199539,23.5083169 0,23.0576458 0,22.6516182 C0,22.2450528 0.134199539,21.7508139 0.314387298,21.4361577 L3.0168675,16.7077082 L0,14.9979415 L9.81727452,14.8162074 L14.5898297,23.4164077 L11.5288565,21.6604511 L6.70843058,29.9922524 Z M20.2191507,2.43253474 C19.5443879,1.2632641 18.6435836,0.450671099 17.5625915,0 L28.6391633,0 C29.6300615,0 30.394851,0.406565438 30.8471357,1.17290129 L33.5937888,5.85563151 L36.564937,4.09806129 L31.7902304,12.6557024 L22.0207594,12.5180739 L25.0376269,10.8083072 L20.2191507,2.43253474 Z M37.2874362,27.9205638 C38.6368273,27.9205638 39.7638076,27.5602555 40.7087848,26.8411181 L35.1236367,36.5664162 C34.6732345,37.3312056 33.8643394,37.7818767 32.9190932,37.7818767 L27.6482651,37.7818767 L27.6482651,41.2491464 L22.6054283,32.8291338 L27.6482651,24.4069697 L27.6482651,27.9204966 L37.2874362,27.9204966 L37.2874362,27.9205638 Z"/>
    </g>
    <path fill="#FFF" d="M61.4550781,39.0625 L61.4550781,29.6875 C61.858724,29.921875 62.2786458,30.1497396 62.7148438,30.3710938 C63.1510417,30.5924479 63.59375,30.7910156 64.0429688,30.9667969 C64.4921875,31.1425781 64.9479167,31.2825521 65.4101562,31.3867188 C65.8723958,31.4908854 66.3378906,31.5429688 66.8066406,31.5429688 C68.2779948,31.5429688 69.6614583,31.2890625 70.9570312,30.78125 C72.2526042,30.2734375 73.3854167,29.5410156 74.3554688,28.5839844 C75.3255208,27.6269531 76.0904948,26.4615885 76.6503906,25.0878906 C77.2102865,23.7141927 77.4902344,22.1679688 77.4902344,20.4492188 C77.4902344,18.7955729 77.2102865,17.2884115 76.6503906,15.9277344 C76.0904948,14.5670573 75.3255208,13.4049479 74.3554688,12.4414062 C73.3854167,11.4778646 72.2526042,10.7324219 70.9570312,10.2050781 C69.6614583,9.67773438 68.2779948,9.4140625 66.8066406,9.4140625 C66.1295573,9.4140625 65.4589844,9.49869792 64.7949219,9.66796875 C64.1308594,9.83723958 63.4895833,10.0683594 62.8710938,10.3613281 C62.2526042,10.6542969 61.656901,11.0026042 61.0839844,11.40625 C60.5110677,11.8098958 59.983724,12.2395833 59.5019531,12.6953125 L59.5019531,12.6953125 L57.3730469,10.1757812 L56.0839844,10.1757812 L56.0839844,39.0625 L61.4550781,39.0625 Z M66.8066406,26.1328125 C66.077474,26.1328125 65.390625,25.9960938 64.7460938,25.7226562 C64.1015625,25.4492188 63.5384115,25.0651042 63.0566406,24.5703125 C62.5748698,24.0755208 62.1940104,23.4765625 61.9140625,22.7734375 C61.6341146,22.0703125 61.4941406,21.2955729 61.4941406,20.4492188 C61.4941406,19.5638021 61.6341146,18.7695312 61.9140625,18.0664062 C62.1940104,17.3632812 62.5748698,16.7675781 63.0566406,16.2792969 C63.5384115,15.7910156 64.1015625,15.4166667 64.7460938,15.15625 C65.390625,14.8958333 66.077474,14.765625 66.8066406,14.765625 C67.5358073,14.765625 68.2259115,14.8958333 68.8769531,15.15625 C69.5279948,15.4166667 70.094401,15.7910156 70.5761719,16.2792969 C71.0579427,16.7675781 71.4388021,17.3632812 71.71875,18.0664062 C71.9986979,18.7695312 72.1386719,19.5638021 72.1386719,20.4492188 C72.1386719,21.2955729 71.9986979,22.0703125 71.71875,22.7734375 C71.4388021,23.4765625 71.0579427,24.0755208 70.5761719,24.5703125 C70.094401,25.0651042 69.5279948,25.4492188 68.8769531,25.7226562 C68.2259115,25.9960938 67.5358073,26.1328125 66.8066406,26.1328125 Z M85.8105469,31.09375 L85.8105469,1.85546875 L80.4394531,1.85546875 L80.4394531,31.09375 L85.8105469,31.09375 Z M99.4433594,31.484375 C100.120443,31.484375 100.78776,31.3997396 101.445312,31.2304688 C102.102865,31.0611979 102.744141,30.8300781 103.369141,30.5371094 C103.994141,30.2441406 104.589844,29.8990885 105.15625,29.5019531 C105.722656,29.1048177 106.259766,28.6783854 106.767578,28.2226562 L106.767578,28.2226562 L108.837891,31.09375 L110.126953,31.09375 L110.126953,10.2148438 L108.837891,10.2148438 L106.767578,12.6953125 C106.272786,12.2265625 105.742188,11.7903646 105.175781,11.3867188 C104.609375,10.9830729 104.013672,10.6315104 103.388672,10.3320312 C102.763672,10.0325521 102.119141,9.79817708 101.455078,9.62890625 C100.791016,9.45963542 100.120443,9.375 99.4433594,9.375 C97.9720052,9.375 96.5885417,9.64518229 95.2929688,10.1855469 C93.9973958,10.7259115 92.8645833,11.484375 91.8945312,12.4609375 C90.9244792,13.4375 90.1595052,14.6061198 89.5996094,15.9667969 C89.0397135,17.327474 88.7597656,18.8216146 88.7597656,20.4492188 C88.7597656,22.1940104 89.0397135,23.75 89.5996094,25.1171875 C90.1595052,26.484375 90.9244792,27.639974 91.8945312,28.5839844 C92.8645833,29.5279948 93.9973958,30.2473958 95.2929688,30.7421875 C96.5885417,31.2369792 97.9720052,31.484375 99.4433594,31.484375 Z M99.4433594,26.1328125 C98.7141927,26.1328125 98.0273438,26.0091146 97.3828125,25.7617188 C96.7382812,25.5143229 96.1783854,25.1497396 95.703125,24.6679688 C95.2278646,24.1861979 94.8535156,23.5904948 94.5800781,22.8808594 C94.3066406,22.171224 94.1699219,21.3606771 94.1699219,20.4492188 C94.1699219,19.5377604 94.3066406,18.7272135 94.5800781,18.0175781 C94.8535156,17.3079427 95.2278646,16.7122396 95.703125,16.2304688 C96.1783854,15.7486979 96.7382812,15.3841146 97.3828125,15.1367188 C98.0273438,14.8893229 98.7141927,14.765625 99.4433594,14.765625 C100.172526,14.765625 100.859375,14.9251302 101.503906,15.2441406 C102.148438,15.563151 102.711589,15.9863281 103.193359,16.5136719 C103.67513,17.0410156 104.05599,17.6464844 104.335938,18.3300781 C104.615885,19.0136719 104.755859,19.7200521 104.755859,20.4492188 C104.755859,21.1783854 104.615885,21.8847656 104.335938,22.5683594 C104.05599,23.2519531 103.67513,23.8574219 103.193359,24.3847656 C102.711589,24.9121094 102.148438,25.3352865 101.503906,25.6542969 C100.859375,25.9733073 100.172526,26.1328125 99.4433594,26.1328125 Z M125.673828,31.09375 C126.585286,31.09375 127.444661,30.921224 128.251953,30.5761719 C129.059245,30.2311198 129.76237,29.7558594 130.361328,29.1503906 C130.960286,28.5449219 131.435547,27.8417969 131.787109,27.0410156 C132.138672,26.2402344 132.314453,25.3776042 132.314453,24.453125 C132.314453,23.5416667 132.138672,22.7018229 131.787109,21.9335938 C131.435547,21.1653646 130.960286,20.5078125 130.361328,19.9609375 C129.76237,19.4140625 129.059245,18.9876302 128.251953,18.6816406 C127.444661,18.375651 126.585286,18.2226562 125.673828,18.2226562 L125.673828,18.2226562 L120.126953,18.2226562 C119.76237,18.2226562 119.44987,18.0891927 119.189453,17.8222656 C118.929036,17.5553385 118.798828,17.2330729 118.798828,16.8554688 C118.798828,16.4908854 118.929036,16.1783854 119.189453,15.9179688 C119.44987,15.6575521 119.76237,15.5273438 120.126953,15.5273438 L120.126953,15.5273438 L130.927734,15.5273438 L130.927734,10.2148438 L120.126953,10.2148438 C119.202474,10.2148438 118.336589,10.3873698 117.529297,10.7324219 C116.722005,11.077474 116.01888,11.5494792 115.419922,12.1484375 C114.820964,12.7473958 114.348958,13.4505208 114.003906,14.2578125 C113.658854,15.0651042 113.486328,15.9309896 113.486328,16.8554688 C113.486328,17.7799479 113.658854,18.6458333 114.003906,19.453125 C114.348958,20.2604167 114.820964,20.9667969 115.419922,21.5722656 C116.01888,22.1777344 116.722005,22.65625 117.529297,23.0078125 C118.336589,23.359375 119.202474,23.5351562 120.126953,23.5351562 L120.126953,23.5351562 L125.673828,23.5351562 C126.038411,23.5351562 126.350911,23.59375 126.611328,23.7109375 C126.871745,23.828125 127.001953,24.0755208 127.001953,24.453125 C127.001953,24.8177083 126.871745,25.1302083 126.611328,25.390625 C126.350911,25.6510417 126.038411,25.78125 125.673828,25.78125 L125.673828,25.78125 L113.486328,25.78125 L113.486328,31.09375 L125.673828,31.09375 Z M149.677734,31.09375 L149.677734,25.78125 L145.634766,25.78125 C145.07487,25.78125 144.547526,25.6738281 144.052734,25.4589844 C143.557943,25.2441406 143.128255,24.9544271 142.763672,24.5898438 C142.399089,24.2252604 142.11263,23.7988281 141.904297,23.3105469 C141.695964,22.8222656 141.591797,22.2981771 141.591797,21.7382812 L141.591797,21.7382812 L141.591797,15.5273438 L149.677734,15.5273438 L149.677734,10.2148438 L141.591797,10.2148438 L141.591797,1.85546875 L136.279297,1.85546875 L136.279297,10.2148438 L133.681641,10.2148438 L133.681641,15.5273438 L136.279297,15.5273438 L136.279297,21.7382812 C136.279297,23.0273438 136.523438,24.2382812 137.011719,25.3710938 C137.5,26.5039062 138.170573,27.4967448 139.023438,28.3496094 C139.876302,29.202474 140.869141,29.8730469 142.001953,30.3613281 C143.134766,30.8496094 144.345703,31.09375 145.634766,31.09375 L145.634766,31.09375 L149.677734,31.09375 Z M155.361328,8.046875 C155.85612,8.046875 156.321615,7.95247396 156.757812,7.76367188 C157.19401,7.57486979 157.57487,7.32096354 157.900391,7.00195312 C158.225911,6.68294271 158.483073,6.30859375 158.671875,5.87890625 C158.860677,5.44921875 158.955078,4.98697917 158.955078,4.4921875 C158.955078,4.01041667 158.860677,3.55143229 158.671875,3.11523438 C158.483073,2.67903646 158.225911,2.30143229 157.900391,1.98242188 C157.57487,1.66341146 157.19401,1.40950521 156.757812,1.22070312 C156.321615,1.03190104 155.85612,0.9375 155.361328,0.9375 C154.866536,0.9375 154.401042,1.03190104 153.964844,1.22070312 C153.528646,1.40950521 153.151042,1.66341146 152.832031,1.98242188 C152.513021,2.30143229 152.259115,2.67903646 152.070312,3.11523438 C151.88151,3.55143229 151.787109,4.01041667 151.787109,4.4921875 C151.787109,4.98697917 151.88151,5.44921875 152.070312,5.87890625 C152.259115,6.30859375 152.513021,6.68294271 152.832031,7.00195312 C153.151042,7.32096354 153.528646,7.57486979 153.964844,7.76367188 C154.401042,7.95247396 154.866536,8.046875 155.361328,8.046875 Z M158.037109,31.09375 L158.037109,10.1757812 L152.666016,10.1757812 L152.666016,31.09375 L158.037109,31.09375 Z M171.630859,31.484375 C172.503255,31.484375 173.352865,31.3834635 174.179688,31.1816406 C175.00651,30.9798177 175.794271,30.6835938 176.542969,30.2929688 C177.291667,29.9023438 177.988281,29.4270833 178.632812,28.8671875 C179.277344,28.3072917 179.847005,27.6757812 180.341797,26.9726562 L180.341797,26.9726562 L176.435547,23.046875 C176.227214,23.515625 175.957031,23.9420573 175.625,24.3261719 C175.292969,24.7102865 174.915365,25.0358073 174.492188,25.3027344 C174.06901,25.5696615 173.616536,25.7747396 173.134766,25.9179688 C172.652995,26.0611979 172.151693,26.1328125 171.630859,26.1328125 C170.901693,26.1328125 170.214844,25.9960938 169.570312,25.7226562 C168.925781,25.4492188 168.365885,25.0716146 167.890625,24.5898438 C167.415365,24.1080729 167.041016,23.5481771 166.767578,22.9101562 C166.494141,22.2721354 166.357422,21.5885417 166.357422,20.859375 C166.357422,19.9609375 166.494141,19.140625 166.767578,18.3984375 C167.041016,17.65625 167.415365,17.014974 167.890625,16.4746094 C168.365885,15.9342448 168.925781,15.5143229 169.570312,15.2148438 C170.214844,14.9153646 170.901693,14.765625 171.630859,14.765625 C172.151693,14.765625 172.659505,14.84375 173.154297,15 C173.649089,15.15625 174.108073,15.3841146 174.53125,15.6835938 C174.954427,15.9830729 175.335286,16.3509115 175.673828,16.7871094 C176.01237,17.2233073 176.279297,17.7148438 176.474609,18.2617188 L176.474609,18.2617188 L180.380859,14.3359375 C179.912109,13.5416667 179.355469,12.8385417 178.710938,12.2265625 C178.066406,11.6145833 177.363281,11.0970052 176.601562,10.6738281 C175.839844,10.250651 175.039062,9.92838542 174.199219,9.70703125 C173.359375,9.48567708 172.503255,9.375 171.630859,9.375 C170.159505,9.375 168.776042,9.67447917 167.480469,10.2734375 C166.184896,10.8723958 165.052083,11.6894531 164.082031,12.7246094 C163.111979,13.7597656 162.347005,14.9739583 161.787109,16.3671875 C161.227214,17.7604167 160.947266,19.2578125 160.947266,20.859375 C160.947266,22.3307292 161.227214,23.7109375 161.787109,25 C162.347005,26.2890625 163.111979,27.4153646 164.082031,28.3789062 C165.052083,29.3424479 166.184896,30.1009115 167.480469,30.6542969 C168.776042,31.2076823 170.159505,31.484375 171.630859,31.484375 Z"/>
  </g>
</svg>
