<svg xmlns="http://www.w3.org/2000/svg" width="797" height="258" viewBox="0 0 797 258">
  <g fill="none" fill-rule="evenodd" transform="translate(.5)">
    <g fill="#FFF" transform="translate(0 .5)">
      <text font-family="Inter-Regular_Bold, Inter" font-size="20" font-weight="bold">
        <tspan x=".5" y="19">Active Products</tspan>
      </text>
      <text fill-opacity=".905" font-family="Inter-Light, Inter" font-size="19" font-weight="300">
        <tspan x=".5" y="57">Participants in active products are </tspan> <tspan x=".5" y="80">rewarded with a steady drip of INR </tspan> <tspan x=".5" y="103">token.</tspan>
      </text>
    </g>
    <g fill="#FFF" transform="translate(0 149.5)">
      <text font-family="Inter-Regular_Bold, Inter" font-size="20" font-weight="bold">
        <tspan x=".5" y="19">Failed Products</tspan>
      </text>
      <text fill-opacity=".905" font-family="Inter-Light, Inter" font-size="19" font-weight="300">
        <tspan x=".5" y="57">Participants in failed products are </tspan> <tspan x=".5" y="80">rewarded with a claim in all future </tspan> <tspan x=".5" y="103">products.</tspan>
      </text>
    </g>
    <path fill="#FF0079" fill-rule="nonzero" d="M386.857143 94.5C388.666667 94.5 390.369048 94.1547619 391.964286 93.4642857 393.559524 92.7738095 394.952381 91.8452381 396.142857 90.6785714 397.333333 89.5119048 398.27381 88.1428571 398.964286 86.5714286 399.654762 85 400 83.3095238 400 81.5 400 79.7380952 399.654762 78.0595238 398.964286 76.4642857 398.27381 74.8690476 397.333333 73.4880952 396.142857 72.3214286 394.952381 71.1547619 393.559524 70.2261905 391.964286 69.5357143 390.369048 68.8452381 388.666667 68.5 386.857143 68.5 385.047619 68.5 383.345238 68.8452381 381.75 69.5357143 380.154762 70.2261905 378.77381 71.1547619 377.607143 72.3214286 376.440476 73.4880952 375.511905 74.8690476 374.821429 76.4642857 374.130952 78.0595238 373.785714 79.7380952 373.785714 81.5 373.785714 83.3095238 374.130952 85 374.821429 86.5714286 375.511905 88.1428571 376.440476 89.5119048 377.607143 90.6785714 378.77381 91.8452381 380.154762 92.7738095 381.75 93.4642857 383.345238 94.1547619 385.047619 94.5 386.857143 94.5zM6.98092643 13.9427793C7.94732062 13.9427793 8.8564941 13.7584015 9.70844687 13.3896458 10.5603996 13.0208901 11.3042688 12.5249773 11.9400545 11.9019074 12.5758401 11.2788374 13.0781108 10.5476839 13.4468665 9.70844687 13.8156222 8.86920981 14 7.96639419 14 7 14 6.05903724 13.8156222 5.16257947 13.4468665 4.3106267 13.0781108 3.45867393 12.5758401 2.72116258 11.9400545 2.09809264 11.3042688 1.47502271 10.5603996.9791099 9.70844687.610354223 8.8564941.241598547 7.94732062.0572207084 6.98092643.0572207084 6.01453224.0572207084 5.10535876.241598547 4.25340599.610354223 3.40145322.9791099 2.66394187 1.47502271 2.04087193 2.09809264 1.417802 2.72116258.921889192 3.45867393.553133515 4.3106267.184377838 5.16257947 0 6.05903724 0 7 0 7.96639419.184377838 8.86920981.553133515 9.70844687.921889192 10.5476839 1.417802 11.2788374 2.04087193 11.9019074 2.66394187 12.5249773 3.40145322 13.0208901 4.25340599 13.3896458 5.10535876 13.7584015 6.01453224 13.9427793 6.98092643 13.9427793zM6.98092643 162.942779C7.94732062 162.942779 8.8564941 162.758401 9.70844687 162.389646 10.5603996 162.02089 11.3042688 161.524977 11.9400545 160.901907 12.5758401 160.278837 13.0781108 159.547684 13.4468665 158.708447 13.8156222 157.86921 14 156.966394 14 156 14 155.059037 13.8156222 154.162579 13.4468665 153.310627 13.0781108 152.458674 12.5758401 151.721163 11.9400545 151.098093 11.3042688 150.475023 10.5603996 149.97911 9.70844687 149.610354 8.8564941 149.241599 7.94732062 149.057221 6.98092643 149.057221 6.01453224 149.057221 5.10535876 149.241599 4.25340599 149.610354 3.40145322 149.97911 2.66394187 150.475023 2.04087193 151.098093 1.417802 151.721163.921889192 152.458674.553133515 153.310627.184377838 154.162579 0 155.059037 0 156 0 156.966394.184377838 157.86921.553133515 158.708447.921889192 159.547684 1.417802 160.278837 2.04087193 160.901907 2.66394187 161.524977 3.40145322 162.02089 4.25340599 162.389646 5.10535876 162.758401 6.01453224 162.942779 6.98092643 162.942779z" transform="translate(395.5 36)"/>
    <path stroke="#FF0079" stroke-dasharray="7" stroke-linecap="square" d="M359.785714 75.046875L40.5 75.046875 40.09375.546875-1.8189894e-12.546875M40.5 77.8613281L40.5 149.546875 3.63797881e-12 150" transform="translate(409.5 42.453)"/>
  </g>
</svg>
